SplineFontDB: 3.2
FontName: Kitab-Regular
FullName: Kitab
FamilyName: Kitab
Weight: Book
Copyright: Copyright (c) 1994 - 2015 by SIL International. All rights reserved.\nCopyright (c) 2018 - 2019 by Khaled Hosny. All rights reverved.
Version: 1.000
ItalicAngle: 0
UnderlinePosition: -64
UnderlineWidth: 9
Ascent: 1638
Descent: 410
InvalidEm: 0
sfntRevision: 0x00010000
LayerCount: 2
Layer: 0 1 "Back" 1
Layer: 1 1 "Fore" 0
XUID: [1021 357 1561146572 13748072]
StyleMap: 0x0040
FSType: 0
OS2Version: 3
OS2_WeightWidthSlopeOnly: 0
OS2_UseTypoMetrics: 0
CreationTime: 1440087096
ModificationTime: 1671294785
PfmFamily: 81
TTFWeight: 400
TTFWidth: 5
LineGap: 0
VLineGap: 0
Panose: 1 0 6 0 2 0 0 2 0 3
OS2TypoAscent: 2071
OS2TypoAOffset: 0
OS2TypoDescent: -1386
OS2TypoDOffset: 0
OS2TypoLinegap: 0
OS2WinAscent: 2692
OS2WinAOffset: 0
OS2WinDescent: 1802
OS2WinDOffset: 0
HheadAscent: 2071
HheadAOffset: 0
HheadDescent: -1386
HheadDOffset: 0
OS2SubXSize: 1113
OS2SubYSize: 1113
OS2SubXOff: 0
OS2SubYOff: 1560
OS2SupXSize: 1113
OS2SupYSize: 1113
OS2SupXOff: 0
OS2SupYOff: 1560
OS2StrikeYSize: 272
OS2StrikeYPos: 1363
OS2CapHeight: 1344
OS2XHeight: 889
OS2Vendor: 'SIL '
OS2CodePages: 00000041.00000000
OS2UnicodeRanges: 80002003.00000000.00000000.00000000
Lookup: 1 1 0 "'ccmp' Glyph Composition/Decomposition lookup 0" { "'ccmp' Glyph Composition/Decomposition lookup 0 subtable"  } ['ccmp' ('arab' <'KUR ' 'SND ' 'URD ' 'dflt' > 'latn' <'dflt' > ) ]
Lookup: 2 1 0 "'ccmp' Glyph Composition/Decomposition in Arabic lookup 1" { "'ccmp' Glyph Composition/Decomposition in Arabic lookup 1 subtable"  } ['ccmp' ('arab' <'KUR ' 'SND ' 'URD ' 'dflt' > ) ]
Lookup: 6 8 0 "'ccmp' Glyph Composition/Decomposition lookup 2" { "'ccmp' Glyph Composition/Decomposition lookup 2 subtable"  } ['ccmp' ('arab' <'KUR ' 'SND ' 'URD ' 'dflt' > 'latn' <'dflt' > ) ]

StartChar: .notdef
Encoding: 65536 -1 0
Width: 1475
GlyphClass: 2
LayerCount: 2
Fore
SplineSet
1044 1020 m 0,0,1
 1044 1016 1044 1016 1036.5 1003 c 128,-1,2
 1029 990 1029 990 1019.5 975.5 c 128,-1,3
 1010 961 1010 961 1001 949 c 128,-1,4
 992 937 992 937 989 937 c 256,5,6
 986 937 986 937 974 945 c 128,-1,7
 962 953 962 953 948.5 962.5 c 128,-1,8
 935 972 935 972 923.5 981 c 128,-1,9
 912 990 912 990 912 994 c 256,10,11
 912 998 912 998 920 1011 c 128,-1,12
 928 1024 928 1024 938 1039 c 128,-1,13
 948 1054 948 1054 957 1066 c 128,-1,14
 966 1078 966 1078 968 1078 c 0,15,16
 972 1078 972 1078 984 1069.5 c 128,-1,17
 996 1061 996 1061 1009.5 1051 c 128,-1,18
 1023 1041 1023 1041 1033.5 1031 c 128,-1,19
 1044 1021 1044 1021 1044 1020 c 0,0,1
1131 871 m 0,20,21
 1131 867 1131 867 1124 854 c 128,-1,22
 1117 841 1117 841 1107 826 c 128,-1,23
 1097 811 1097 811 1088 799.5 c 128,-1,24
 1079 788 1079 788 1075 788 c 0,25,26
 1072 788 1072 788 1062 795.5 c 128,-1,27
 1052 803 1052 803 1039 814 c 2,28,-1
 1005 840 l 2,29,30
 1002 843 1002 843 997 842 c 0,31,32
 996 842 996 842 990 840 c 2,33,-1
 967 806 l 2,34,35
 958 793 958 793 950 783 c 128,-1,36
 942 773 942 773 940 773 c 0,37,38
 937 773 937 773 924.5 781 c 128,-1,39
 912 789 912 789 898.5 799.5 c 128,-1,40
 885 810 885 810 874 819 c 128,-1,41
 863 828 863 828 863 831 c 0,42,43
 863 835 863 835 871 847.5 c 128,-1,44
 879 860 879 860 889 875 c 128,-1,45
 899 890 899 890 907.5 902 c 128,-1,46
 916 914 916 914 919 914 c 0,47,48
 923 914 923 914 934 906 c 128,-1,49
 945 898 945 898 958 888 c 2,50,-1
 989 862 l 2,51,52
 994 858 994 858 997 858 c 256,53,54
 1000 858 1000 858 1005 864 c 0,55,56
 1017 881 1017 881 1027 896 c 0,57,58
 1036 908 1036 908 1044 918 c 128,-1,59
 1052 928 1052 928 1054 928 c 0,60,61
 1057 928 1057 928 1069 919.5 c 128,-1,62
 1081 911 1081 911 1095 901.5 c 128,-1,63
 1109 892 1109 892 1120 882 c 128,-1,64
 1131 872 1131 872 1131 871 c 0,20,21
1258 582 m 0,65,66
 1258 556 1258 556 1251.5 523.5 c 128,-1,67
 1245 491 1245 491 1231.5 462.5 c 128,-1,68
 1218 434 1218 434 1198 414 c 128,-1,69
 1178 394 1178 394 1149 394 c 0,70,71
 1124 394 1124 394 1106 402.5 c 128,-1,72
 1088 411 1088 411 1073.5 422 c 128,-1,73
 1059 433 1059 433 1049.5 444.5 c 128,-1,74
 1040 456 1040 456 1032 463 c 1,75,76
 1022 446 1022 446 1006 424 c 128,-1,77
 990 402 990 402 970 382.5 c 128,-1,78
 950 363 950 363 926 349 c 128,-1,79
 902 335 902 335 873 335 c 2,80,-1
 871 335 l 1,81,82
 871 197 871 197 832 113 c 128,-1,83
 793 29 793 29 732 -17.5 c 128,-1,84
 671 -64 671 -64 595.5 -79.5 c 128,-1,85
 520 -95 520 -95 447 -95 c 0,86,87
 398 -95 398 -95 358 -78 c 128,-1,88
 318 -61 318 -61 291 -32.5 c 128,-1,89
 264 -4 264 -4 249 34.5 c 128,-1,90
 234 73 234 73 234 114 c 0,91,92
 234 154 234 154 247.5 196 c 128,-1,93
 261 238 261 238 278 271.5 c 128,-1,94
 295 305 295 305 310.5 326 c 128,-1,95
 326 347 326 347 330 347 c 0,96,97
 342 347 342 347 342 338 c 0,98,99
 342 333 342 333 333 317.5 c 128,-1,100
 324 302 324 302 312 279 c 128,-1,101
 300 256 300 256 291 226 c 128,-1,102
 282 196 282 196 282 161 c 0,103,104
 282 119 282 119 303.5 90.5 c 128,-1,105
 325 62 325 62 355.5 44.5 c 128,-1,106
 386 27 386 27 421 20 c 128,-1,107
 456 13 456 13 484 13 c 0,108,109
 520 13 520 13 558.5 17 c 128,-1,110
 597 21 597 21 632.5 28 c 128,-1,111
 668 35 668 35 698.5 45.5 c 128,-1,112
 729 56 729 56 749 70 c 0,113,114
 794 100 794 100 809.5 141.5 c 128,-1,115
 825 183 825 183 825 246 c 0,116,117
 825 286 825 286 818 314 c 128,-1,118
 811 342 811 342 803 361 c 128,-1,119
 795 380 795 380 788 391.5 c 128,-1,120
 781 403 781 403 781 409 c 0,121,122
 781 413 781 413 787 428 c 128,-1,123
 793 443 793 443 800.5 458.5 c 128,-1,124
 808 474 808 474 815.5 486.5 c 128,-1,125
 823 499 823 499 825 499 c 0,126,127
 846 469 846 469 857 433 c 1,128,129
 888 433 888 433 920.5 446.5 c 128,-1,130
 953 460 953 460 980 483 c 128,-1,131
 1007 506 1007 506 1025.5 535.5 c 128,-1,132
 1044 565 1044 565 1048 599 c 0,133,134
 1051 616 1051 616 1061 616 c 0,135,136
 1062 615 1062 615 1065 611 c 0,137,138
 1068 608 1068 608 1068 604.5 c 128,-1,139
 1068 601 1068 601 1071 595 c 0,140,141
 1075 568 1075 568 1090 551 c 128,-1,142
 1105 534 1105 534 1123 524.5 c 128,-1,143
 1141 515 1141 515 1158.5 511 c 128,-1,144
 1176 507 1176 507 1188 507 c 0,145,146
 1193 507 1193 507 1205.5 513.5 c 128,-1,147
 1218 520 1218 520 1218 526 c 0,148,149
 1218 531 1218 531 1212 538 c 128,-1,150
 1206 545 1206 545 1199 551.5 c 128,-1,151
 1192 558 1192 558 1186 562.5 c 128,-1,152
 1180 567 1180 567 1180 569 c 0,153,154
 1180 572 1180 572 1184 587.5 c 128,-1,155
 1188 603 1188 603 1194 621.5 c 128,-1,156
 1200 640 1200 640 1205 654.5 c 128,-1,157
 1210 669 1210 669 1214 669 c 0,158,159
 1222 669 1222 669 1229.5 659.5 c 128,-1,160
 1237 650 1237 650 1243.5 635.5 c 128,-1,161
 1250 621 1250 621 1254 606 c 128,-1,162
 1258 591 1258 591 1258 582 c 0,65,66
110 1295 m 1,163,-1
 110 -296 l 1,164,-1
 1365 -296 l 1,165,-1
 1365 1295 l 1,166,-1
 110 1295 l 1,163,-1
78 1327 m 1,167,-1
 1397 1327 l 1,168,-1
 1397 -329 l 1,169,-1
 78 -329 l 1,170,-1
 78 1327 l 1,167,-1
EndSplineSet
EndChar

StartChar: exclam
Encoding: 33 33 4
Width: 721
GlyphClass: 2
LayerCount: 2
Fore
SplineSet
471 1089 m 0,0,1
 471 1003 471 1003 458.5 916 c 128,-1,2
 446 829 446 829 426 721 c 0,3,4
 418 677 418 677 412.5 648 c 128,-1,5
 407 619 407 619 402.5 593.5 c 128,-1,6
 398 568 398 568 395.5 540.5 c 128,-1,7
 393 513 393 513 391.5 473.5 c 128,-1,8
 390 434 390 434 389.5 375 c 128,-1,9
 389 316 389 316 389 226 c 0,10,11
 389 220 389 220 379.5 216 c 128,-1,12
 370 212 370 212 360 212 c 256,13,14
 350 212 350 212 341.5 216 c 128,-1,15
 333 220 333 220 333 226 c 0,16,17
 333 316 333 316 332 375 c 128,-1,18
 331 434 331 434 330 473.5 c 128,-1,19
 329 513 329 513 326.5 540.5 c 128,-1,20
 324 568 324 568 319.5 593.5 c 128,-1,21
 315 619 315 619 309 648 c 128,-1,22
 303 677 303 677 295 721 c 0,23,24
 276 829 276 829 263.5 916 c 128,-1,25
 251 1003 251 1003 251 1089 c 0,26,27
 251 1181 251 1181 282 1228 c 128,-1,28
 313 1275 313 1275 359 1275 c 0,29,30
 408 1275 408 1275 439.5 1228 c 128,-1,31
 471 1181 471 1181 471 1089 c 0,0,1
474 18 m 0,32,33
 474 -5 474 -5 465 -25 c 128,-1,34
 456 -45 456 -45 440.5 -60 c 128,-1,35
 425 -75 425 -75 404 -84.5 c 128,-1,36
 383 -94 383 -94 359 -94 c 0,37,38
 336 -94 336 -94 315.5 -84.5 c 128,-1,39
 295 -75 295 -75 280 -60 c 128,-1,40
 265 -45 265 -45 256 -25 c 128,-1,41
 247 -5 247 -5 247 18 c 256,42,43
 247 41 247 41 256 62 c 128,-1,44
 265 83 265 83 280 98.5 c 128,-1,45
 295 114 295 114 315 123.5 c 128,-1,46
 335 133 335 133 359 133 c 0,47,48
 408 133 408 133 441 99.5 c 128,-1,49
 474 66 474 66 474 18 c 0,32,33
EndSplineSet
EndChar

StartChar: quotedbl
Encoding: 34 34 5
Width: 817
GlyphClass: 2
LayerCount: 2
Fore
SplineSet
686 1254 m 0,0,1
 686 1197 686 1197 678.5 1138 c 128,-1,2
 671 1079 671 1079 660 1019 c 128,-1,3
 649 959 649 959 636 900.5 c 128,-1,4
 623 842 623 842 612 788 c 1,5,-1
 564 788 l 1,6,7
 556 832 556 832 543 890 c 128,-1,8
 530 948 530 948 518 1009.5 c 128,-1,9
 506 1071 506 1071 496.5 1131 c 128,-1,10
 487 1191 487 1191 487 1240 c 0,11,12
 487 1293 487 1293 509.5 1325 c 128,-1,13
 532 1357 532 1357 589 1357 c 0,14,15
 634 1357 634 1357 660 1327.5 c 128,-1,16
 686 1298 686 1298 686 1254 c 0,0,1
328 1254 m 256,17,18
 328 1210 328 1210 317.5 1144.5 c 128,-1,19
 307 1079 307 1079 293 1010.5 c 128,-1,20
 279 942 279 942 266 881.5 c 128,-1,21
 253 821 253 821 247 788 c 1,22,-1
 208 788 l 1,23,24
 198 839 198 839 184 895 c 128,-1,25
 170 951 170 951 158.5 1010.5 c 128,-1,26
 147 1070 147 1070 138.5 1128.5 c 128,-1,27
 130 1187 130 1187 130 1240 c 0,28,29
 130 1291 130 1291 151.5 1324 c 128,-1,30
 173 1357 173 1357 229 1357 c 0,31,32
 274 1357 274 1357 301 1327.5 c 128,-1,33
 328 1298 328 1298 328 1254 c 256,17,18
EndSplineSet
EndChar

StartChar: numbersign
Encoding: 35 35 6
Width: 1003
GlyphClass: 2
LayerCount: 2
Fore
SplineSet
701 419 m 1,0,-1
 610 -30 l 1,1,-1
 530 -30 l 1,2,-1
 620 419 l 1,3,-1
 287 419 l 1,4,-1
 195 -30 l 1,5,-1
 112 -30 l 1,6,-1
 203 419 l 1,7,-1
 35 419 l 1,8,-1
 35 500 l 1,9,-1
 218 500 l 1,10,-1
 287 836 l 1,11,-1
 35 836 l 1,12,-1
 35 912 l 1,13,-1
 307 912 l 1,14,-1
 396 1357 l 1,15,-1
 474 1357 l 1,16,-1
 389 912 l 1,17,-1
 719 912 l 1,18,-1
 812 1357 l 1,19,-1
 894 1357 l 1,20,-1
 801 912 l 1,21,-1
 968 912 l 1,22,-1
 968 836 l 1,23,-1
 788 836 l 1,24,-1
 719 500 l 1,25,-1
 968 500 l 1,26,-1
 968 419 l 1,27,-1
 701 419 l 1,0,-1
370 836 m 1,28,-1
 300 500 l 1,29,-1
 636 500 l 1,30,-1
 706 836 l 1,31,-1
 370 836 l 1,28,-1
EndSplineSet
EndChar

StartChar: dollar
Encoding: 36 36 7
Width: 1003
GlyphClass: 2
LayerCount: 2
Fore
SplineSet
902 330 m 0,0,1
 902 249 902 249 869.5 185 c 128,-1,2
 837 121 837 121 783.5 75 c 128,-1,3
 730 29 730 29 660.5 2 c 128,-1,4
 591 -25 591 -25 516 -30 c 1,5,-1
 516 -152 l 1,6,-1
 452 -152 l 1,7,-1
 452 -30 l 1,8,9
 364 -25 364 -25 276 -5.5 c 128,-1,10
 188 14 188 14 107 51 c 1,11,-1
 107 328 l 1,12,-1
 149 328 l 1,13,14
 159 190 159 190 238.5 119.5 c 128,-1,15
 318 49 318 49 452 38 c 1,16,-1
 452 607 l 1,17,18
 388 647 388 647 326.5 690 c 128,-1,19
 265 733 265 733 216.5 783 c 128,-1,20
 168 833 168 833 137.5 894 c 128,-1,21
 107 955 107 955 107 1033 c 0,22,23
 107 1106 107 1106 136 1163.5 c 128,-1,24
 165 1221 165 1221 213 1261 c 128,-1,25
 261 1301 261 1301 323.5 1324 c 128,-1,26
 386 1347 386 1347 452 1352 c 1,27,-1
 452 1443 l 1,28,-1
 516 1443 l 1,29,-1
 516 1352 l 1,30,31
 560 1349 560 1349 600.5 1341.5 c 128,-1,32
 641 1334 641 1334 680 1321.5 c 128,-1,33
 719 1309 719 1309 758 1294.5 c 128,-1,34
 797 1280 797 1280 838 1265 c 1,35,-1
 838 972 l 1,36,-1
 801 972 l 1,37,38
 789 1106 789 1106 722 1188.5 c 128,-1,39
 655 1271 655 1271 516 1286 c 1,40,-1
 516 788 l 1,41,42
 574 746 574 746 642 700 c 128,-1,43
 710 654 710 654 767.5 599.5 c 128,-1,44
 825 545 825 545 863.5 478.5 c 128,-1,45
 902 412 902 412 902 330 c 0,0,1
452 1286 m 1,46,47
 410 1280 410 1280 375.5 1266.5 c 128,-1,48
 341 1253 341 1253 315 1230.5 c 128,-1,49
 289 1208 289 1208 274 1174 c 128,-1,50
 259 1140 259 1140 259 1094 c 0,51,52
 259 1049 259 1049 276.5 1010.5 c 128,-1,53
 294 972 294 972 322 939 c 128,-1,54
 350 906 350 906 384.5 878.5 c 128,-1,55
 419 851 419 851 452 831 c 1,56,-1
 452 1286 l 1,46,47
747 282 m 0,57,58
 747 329 747 329 725.5 369 c 128,-1,59
 704 409 704 409 670.5 443.5 c 128,-1,60
 637 478 637 478 596 508 c 128,-1,61
 555 538 555 538 516 564 c 1,62,-1
 516 38 l 1,63,64
 565 41 565 41 607.5 61 c 128,-1,65
 650 81 650 81 681 114 c 128,-1,66
 712 147 712 147 729.5 190 c 128,-1,67
 747 233 747 233 747 282 c 0,57,58
EndSplineSet
EndChar

StartChar: percent
Encoding: 37 37 8
Width: 1735
GlyphClass: 2
LayerCount: 2
Fore
SplineSet
1584 498 m 0,0,1
 1584 443 1584 443 1572.5 383.5 c 128,-1,2
 1561 324 1561 324 1537.5 265.5 c 128,-1,3
 1514 207 1514 207 1480.5 153.5 c 128,-1,4
 1447 100 1447 100 1403.5 59 c 128,-1,5
 1360 18 1360 18 1306 -6 c 128,-1,6
 1252 -30 1252 -30 1189 -30 c 0,7,8
 1054 -30 1054 -30 994.5 43.5 c 128,-1,9
 935 117 935 117 935 247 c 0,10,11
 935 302 935 302 951 358.5 c 128,-1,12
 967 415 967 415 997 467.5 c 128,-1,13
 1027 520 1027 520 1067 565.5 c 128,-1,14
 1107 611 1107 611 1156 645.5 c 128,-1,15
 1205 680 1205 680 1259.5 699.5 c 128,-1,16
 1314 719 1314 719 1371 719 c 0,17,18
 1416 719 1416 719 1455.5 701.5 c 128,-1,19
 1495 684 1495 684 1523.5 654 c 128,-1,20
 1552 624 1552 624 1568 583.5 c 128,-1,21
 1584 543 1584 543 1584 498 c 0,0,1
530 -30 m 1,22,-1
 434 -30 l 1,23,-1
 1136 1232 l 1,24,25
 1076 1206 1076 1206 1015 1192.5 c 128,-1,26
 954 1179 954 1179 889 1179 c 0,27,28
 863 1179 863 1179 837.5 1182 c 128,-1,29
 812 1185 812 1185 788 1196 c 1,30,31
 788 1167 788 1167 795.5 1140.5 c 128,-1,32
 803 1114 803 1114 803 1087 c 0,33,34
 803 1035 803 1035 789 976.5 c 128,-1,35
 775 918 775 918 749 862 c 128,-1,36
 723 806 723 806 685 754.5 c 128,-1,37
 647 703 647 703 601.5 664 c 128,-1,38
 556 625 556 625 503 602.5 c 128,-1,39
 450 580 450 580 391 580 c 0,40,41
 325 580 325 580 279.5 600.5 c 128,-1,42
 234 621 234 621 206 657.5 c 128,-1,43
 178 694 178 694 165 744.5 c 128,-1,44
 152 795 152 795 152 857 c 0,45,46
 152 939 152 939 188 1023 c 128,-1,47
 224 1107 224 1107 284 1177 c 128,-1,48
 344 1247 344 1247 422 1290.5 c 128,-1,49
 500 1334 500 1334 586 1334 c 0,50,51
 638 1334 638 1334 672.5 1317 c 128,-1,52
 707 1300 707 1300 739.5 1279 c 128,-1,53
 772 1258 772 1258 809.5 1241 c 128,-1,54
 847 1224 847 1224 907 1224 c 0,55,56
 998 1224 998 1224 1076 1256.5 c 128,-1,57
 1154 1289 1154 1289 1211 1363 c 1,58,-1
 1308 1363 l 1,59,-1
 530 -30 l 1,22,-1
1534 487 m 0,60,61
 1534 518 1534 518 1525 548 c 128,-1,62
 1516 578 1516 578 1498 601.5 c 128,-1,63
 1480 625 1480 625 1453.5 640 c 128,-1,64
 1427 655 1427 655 1392 655 c 0,65,66
 1347 655 1347 655 1306.5 630.5 c 128,-1,67
 1266 606 1266 606 1231.5 565 c 128,-1,68
 1197 524 1197 524 1170.5 472 c 128,-1,69
 1144 420 1144 420 1125 366.5 c 128,-1,70
 1106 313 1106 313 1096.5 262.5 c 128,-1,71
 1087 212 1087 212 1087 173 c 0,72,73
 1087 109 1087 109 1116 70.5 c 128,-1,74
 1145 32 1145 32 1211 32 c 0,75,76
 1259 32 1259 32 1302 54.5 c 128,-1,77
 1345 77 1345 77 1381 114 c 128,-1,78
 1417 151 1417 151 1445.5 198.5 c 128,-1,79
 1474 246 1474 246 1493.5 296.5 c 128,-1,80
 1513 347 1513 347 1523.5 396 c 128,-1,81
 1534 445 1534 445 1534 487 c 0,60,61
751 1115 m 0,82,83
 751 1136 751 1136 744 1162 c 128,-1,84
 737 1188 737 1188 734 1209 c 1,85,86
 720 1213 720 1213 700 1224 c 128,-1,87
 680 1235 680 1235 660 1246 c 128,-1,88
 640 1257 640 1257 621.5 1266 c 128,-1,89
 603 1275 603 1275 594 1275 c 0,90,91
 569 1275 569 1275 544 1261 c 128,-1,92
 519 1247 519 1247 496.5 1225.5 c 128,-1,93
 474 1204 474 1204 454.5 1180.5 c 128,-1,94
 435 1157 435 1157 422 1140 c 0,95,96
 366 1066 366 1066 336.5 979.5 c 128,-1,97
 307 893 307 893 307 798 c 0,98,99
 307 734 307 734 334 692 c 128,-1,100
 361 650 361 650 432 650 c 0,101,102
 481 650 481 650 524 672.5 c 128,-1,103
 567 695 567 695 602.5 733 c 128,-1,104
 638 771 638 771 666 819 c 128,-1,105
 694 867 694 867 713 919 c 128,-1,106
 732 971 732 971 741.5 1021.5 c 128,-1,107
 751 1072 751 1072 751 1115 c 0,82,83
EndSplineSet
EndChar

StartChar: ampersand
Encoding: 38 38 9
Width: 1562
GlyphClass: 2
LayerCount: 2
Fore
SplineSet
1499 239 m 1,0,1
 1487 182 1487 182 1461 132 c 128,-1,2
 1435 82 1435 82 1397.5 45.5 c 128,-1,3
 1360 9 1360 9 1310 -11.5 c 128,-1,4
 1260 -32 1260 -32 1198 -32 c 0,5,6
 1146 -32 1146 -32 1098 -16 c 128,-1,7
 1050 0 1050 0 1006.5 27.5 c 128,-1,8
 963 55 963 55 924 89 c 128,-1,9
 885 123 885 123 851 160 c 1,10,11
 803 118 803 118 755.5 82.5 c 128,-1,12
 708 47 708 47 657.5 21.5 c 128,-1,13
 607 -4 607 -4 550 -18 c 128,-1,14
 493 -32 493 -32 426 -32 c 0,15,16
 360 -32 360 -32 297 -13.5 c 128,-1,17
 234 5 234 5 184.5 42 c 128,-1,18
 135 79 135 79 104.5 135 c 128,-1,19
 74 191 74 191 74 264 c 0,20,21
 74 348 74 348 112.5 420.5 c 128,-1,22
 151 493 151 493 210 552.5 c 128,-1,23
 269 612 269 612 341 659.5 c 128,-1,24
 413 707 413 707 482 742 c 1,25,26
 450 808 450 808 424.5 885 c 128,-1,27
 399 962 399 962 399 1036 c 256,28,29
 399 1110 399 1110 425 1170 c 128,-1,30
 451 1230 451 1230 496.5 1271.5 c 128,-1,31
 542 1313 542 1313 604.5 1335 c 128,-1,32
 667 1357 667 1357 740 1357 c 0,33,34
 795 1357 795 1357 842.5 1341.5 c 128,-1,35
 890 1326 890 1326 926.5 1296 c 128,-1,36
 963 1266 963 1266 984.5 1222 c 128,-1,37
 1006 1178 1006 1178 1006 1120 c 0,38,39
 1006 1051 1006 1051 975.5 997.5 c 128,-1,40
 945 944 945 944 897.5 901.5 c 128,-1,41
 850 859 850 859 793 826.5 c 128,-1,42
 736 794 736 794 684 767 c 1,43,44
 742 660 742 660 806.5 559.5 c 128,-1,45
 871 459 871 459 945 363 c 1,46,47
 972 397 972 397 1002.5 437.5 c 128,-1,48
 1033 478 1033 478 1058 523 c 128,-1,49
 1083 568 1083 568 1099 615.5 c 128,-1,50
 1115 663 1115 663 1115 708 c 0,51,52
 1115 727 1115 727 1109.5 747 c 128,-1,53
 1104 767 1104 767 1092 782.5 c 128,-1,54
 1080 798 1080 798 1062.5 808 c 128,-1,55
 1045 818 1045 818 1022 818 c 1,56,-1
 1022 854 l 1,57,-1
 1435 854 l 1,58,-1
 1435 818 l 1,59,60
 1423 818 1423 818 1407.5 815 c 128,-1,61
 1392 812 1392 812 1375 808.5 c 128,-1,62
 1358 805 1358 805 1342 797.5 c 128,-1,63
 1326 790 1326 790 1313 780 c 0,64,65
 1297 767 1297 767 1279 743.5 c 128,-1,66
 1261 720 1261 720 1244 693.5 c 128,-1,67
 1227 667 1227 667 1212 641 c 128,-1,68
 1197 615 1197 615 1187 597 c 0,69,70
 1144 519 1144 519 1095 446 c 128,-1,71
 1046 373 1046 373 990 303 c 1,72,73
 1017 273 1017 273 1050 240.5 c 128,-1,74
 1083 208 1083 208 1120.5 181.5 c 128,-1,75
 1158 155 1158 155 1199 137.5 c 128,-1,76
 1240 120 1240 120 1283 120 c 0,77,78
 1357 120 1357 120 1401 157 c 128,-1,79
 1445 194 1445 194 1464 264 c 1,80,-1
 1499 239 l 1,0,1
892 1123 m 0,81,82
 892 1155 892 1155 881.5 1186 c 128,-1,83
 871 1217 871 1217 851 1239 c 128,-1,84
 831 1261 831 1261 803 1274.5 c 128,-1,85
 775 1288 775 1288 740 1288 c 0,86,87
 704 1288 704 1288 672 1274.5 c 128,-1,88
 640 1261 640 1261 616.5 1237.5 c 128,-1,89
 593 1214 593 1214 580 1181.5 c 128,-1,90
 567 1149 567 1149 567 1113 c 0,91,92
 567 1079 567 1079 574.5 1042 c 128,-1,93
 582 1005 582 1005 594 968.5 c 128,-1,94
 606 932 606 932 621 897 c 128,-1,95
 636 862 636 862 650 831 c 1,96,97
 695 852 695 852 738.5 879.5 c 128,-1,98
 782 907 782 907 816 943 c 128,-1,99
 850 979 850 979 871 1023.5 c 128,-1,100
 892 1068 892 1068 892 1123 c 0,81,82
801 216 m 1,101,102
 717 330 717 330 647 440.5 c 128,-1,103
 577 551 577 551 511 676 c 1,104,105
 464 650 464 650 422 617.5 c 128,-1,106
 380 585 380 585 347.5 544.5 c 128,-1,107
 315 504 315 504 296 456 c 128,-1,108
 277 408 277 408 277 351 c 0,109,110
 277 298 277 298 294.5 249.5 c 128,-1,111
 312 201 312 201 344.5 165.5 c 128,-1,112
 377 130 377 130 422.5 109 c 128,-1,113
 468 88 468 88 524 88 c 0,114,115
 563 88 563 88 600 99 c 128,-1,116
 637 110 637 110 672 128.5 c 128,-1,117
 707 147 707 147 739.5 170 c 128,-1,118
 772 193 772 193 801 216 c 1,101,102
EndSplineSet
EndChar

StartChar: quotesingle
Encoding: 39 39 10
Width: 362
GlyphClass: 2
LayerCount: 2
Fore
SplineSet
274 1240 m 0,0,1
 274 1218 274 1218 269 1178.5 c 128,-1,2
 264 1139 264 1139 253 1078 c 2,3,-1
 200 788 l 1,4,-1
 157 788 l 1,5,-1
 104 1078 l 2,6,7
 94 1136 94 1136 88 1177 c 128,-1,8
 82 1218 82 1218 82 1240 c 0,9,10
 82 1301 82 1301 107.5 1329 c 128,-1,11
 133 1357 133 1357 178 1357 c 256,12,13
 223 1357 223 1357 248.5 1329 c 128,-1,14
 274 1301 274 1301 274 1240 c 0,0,1
EndSplineSet
EndChar

StartChar: parenleft
Encoding: 40 40 11
Width: 710
GlyphClass: 2
LayerCount: 2
Fore
SplineSet
636 -487 m 1,0,1
 611 -475 611 -475 576 -453.5 c 128,-1,2
 541 -432 541 -432 500.5 -402 c 128,-1,3
 460 -372 460 -372 419 -335.5 c 128,-1,4
 378 -299 378 -299 342 -260 c 0,5,6
 293 -208 293 -208 248.5 -148 c 128,-1,7
 204 -88 204 -88 171 -17.5 c 128,-1,8
 138 53 138 53 118.5 136.5 c 128,-1,9
 99 220 99 220 99 320 c 256,10,11
 99 420 99 420 118.5 502.5 c 128,-1,12
 138 585 138 585 171 655 c 128,-1,13
 204 725 204 725 248 784.5 c 128,-1,14
 292 844 292 844 342 896 c 0,15,16
 378 935 378 935 419 971 c 128,-1,17
 460 1007 460 1007 500.5 1037.5 c 128,-1,18
 541 1068 541 1068 576 1090.5 c 128,-1,19
 611 1113 611 1113 636 1123 c 1,20,-1
 653 1107 l 1,21,22
 569 1025 569 1025 504 948 c 128,-1,23
 439 871 439 871 394 782 c 0,24,25
 371 738 371 738 348 688 c 128,-1,26
 325 638 325 638 307 581 c 128,-1,27
 289 524 289 524 277.5 459 c 128,-1,28
 266 394 266 394 266 320 c 0,29,30
 266 245 266 245 277.5 179 c 128,-1,31
 289 113 289 113 307 55 c 128,-1,32
 325 -3 325 -3 347.5 -53 c 128,-1,33
 370 -103 370 -103 394 -147 c 0,34,35
 439 -235 439 -235 503.5 -310.5 c 128,-1,36
 568 -386 568 -386 653 -471 c 1,37,-1
 636 -487 l 1,0,1
EndSplineSet
EndChar

StartChar: parenright
Encoding: 41 41 12
Width: 710
GlyphClass: 2
LayerCount: 2
Fore
SplineSet
610 320 m 256,0,1
 610 220 610 220 591 136.5 c 128,-1,2
 572 53 572 53 539 -17.5 c 128,-1,3
 506 -88 506 -88 461.5 -148 c 128,-1,4
 417 -208 417 -208 368 -261 c 0,5,6
 330 -300 330 -300 288.5 -336 c 128,-1,7
 247 -372 247 -372 207.5 -402 c 128,-1,8
 168 -432 168 -432 132 -454 c 128,-1,9
 96 -476 96 -476 71 -487 c 1,10,-1
 56 -471 l 1,11,12
 140 -387 140 -387 204.5 -311 c 128,-1,13
 269 -235 269 -235 316 -147 c 0,14,15
 339 -103 339 -103 362 -53 c 128,-1,16
 385 -3 385 -3 402.5 55 c 128,-1,17
 420 113 420 113 431 178.5 c 128,-1,18
 442 244 442 244 442 320 c 0,19,20
 442 394 442 394 431 459 c 128,-1,21
 420 524 420 524 402.5 581 c 128,-1,22
 385 638 385 638 362 688 c 128,-1,23
 339 738 339 738 316 782 c 0,24,25
 269 870 269 870 204.5 948 c 128,-1,26
 140 1026 140 1026 56 1107 c 1,27,-1
 71 1123 l 1,28,29
 96 1113 96 1113 132 1090.5 c 128,-1,30
 168 1068 168 1068 207.5 1038.5 c 128,-1,31
 247 1009 247 1009 288.5 972.5 c 128,-1,32
 330 936 330 936 368 897 c 0,33,34
 417 844 417 844 461.5 784.5 c 128,-1,35
 506 725 506 725 539 655 c 128,-1,36
 572 585 572 585 591 502.5 c 128,-1,37
 610 420 610 420 610 320 c 256,0,1
EndSplineSet
EndChar

StartChar: asterisk
Encoding: 42 42 13
Width: 894
GlyphClass: 2
LayerCount: 2
Fore
SplineSet
720 624 m 256,0,1
 737 624 737 624 750 613.5 c 128,-1,2
 763 603 763 603 763 584 c 0,3,4
 763 567 763 567 752.5 545.5 c 128,-1,5
 742 524 742 524 716 498 c 0,6,7
 698 480 698 480 667 457.5 c 128,-1,8
 636 435 636 435 604 415.5 c 128,-1,9
 572 396 572 396 545.5 382.5 c 128,-1,10
 519 369 519 369 511 369 c 0,11,12
 507 369 507 369 507 373 c 0,13,14
 507 381 507 381 520.5 407 c 128,-1,15
 534 433 534 433 553.5 465.5 c 128,-1,16
 573 498 573 498 595 528.5 c 128,-1,17
 617 559 617 559 636 577 c 0,18,19
 661 603 661 603 682 613.5 c 128,-1,20
 703 624 703 624 720 624 c 256,0,1
503 633 m 0,21,22
 503 606 503 606 496 565.5 c 128,-1,23
 489 525 489 525 479 486.5 c 128,-1,24
 469 448 469 448 460 421 c 128,-1,25
 451 394 451 394 447 394 c 0,26,27
 442 394 442 394 432 421 c 128,-1,28
 422 448 422 448 412.5 486.5 c 128,-1,29
 403 525 403 525 396 565.5 c 128,-1,30
 389 606 389 606 389 633 c 0,31,32
 389 690 389 690 407 715 c 128,-1,33
 425 740 425 740 447 740 c 256,34,35
 469 740 469 740 486 715 c 128,-1,36
 503 690 503 690 503 633 c 0,21,22
879 309 m 256,37,38
 879 287 879 287 853 270 c 128,-1,39
 827 253 827 253 772 253 c 0,40,41
 745 253 745 253 704 259.5 c 128,-1,42
 663 266 663 266 624.5 275.5 c 128,-1,43
 586 285 586 285 559.5 294.5 c 128,-1,44
 533 304 533 304 533 309 c 256,45,46
 533 314 533 314 559.5 323.5 c 128,-1,47
 586 333 586 333 624.5 342 c 128,-1,48
 663 351 663 351 704 358 c 128,-1,49
 745 365 745 365 772 365 c 0,50,51
 827 365 827 365 853 348 c 128,-1,52
 879 331 879 331 879 309 c 256,37,38
386 373 m 0,53,54
 386 369 386 369 383 369 c 0,55,56
 375 369 375 369 348.5 382.5 c 128,-1,57
 322 396 322 396 290.5 415.5 c 128,-1,58
 259 435 259 435 227 458 c 128,-1,59
 195 481 195 481 177 499 c 0,60,61
 151 524 151 524 140.5 545.5 c 128,-1,62
 130 567 130 567 130 584 c 256,63,64
 130 601 130 601 142.5 612.5 c 128,-1,65
 155 624 155 624 173 624 c 0,66,67
 190 624 190 624 211.5 613.5 c 128,-1,68
 233 603 233 603 259 577 c 0,69,70
 277 559 277 559 299 528 c 128,-1,71
 321 497 321 497 340.5 464.5 c 128,-1,72
 360 432 360 432 373 405.5 c 128,-1,73
 386 379 386 379 386 373 c 0,53,54
763 35 m 0,74,75
 763 17 763 17 751.5 5.5 c 128,-1,76
 740 -6 740 -6 720 -6 c 0,77,78
 703 -6 703 -6 681.5 4 c 128,-1,79
 660 14 660 14 636 40 c 0,80,81
 618 58 618 58 595.5 89.5 c 128,-1,82
 573 121 573 121 553.5 153 c 128,-1,83
 534 185 534 185 520.5 211 c 128,-1,84
 507 237 507 237 507 244 c 0,85,86
 507 248 507 248 511 248 c 0,87,88
 519 248 519 248 545.5 234.5 c 128,-1,89
 572 221 572 221 604 201.5 c 128,-1,90
 636 182 636 182 667 160 c 128,-1,91
 698 138 698 138 716 120 c 0,92,93
 742 94 742 94 752.5 73 c 128,-1,94
 763 52 763 52 763 35 c 0,74,75
363 309 m 256,95,96
 363 304 363 304 335.5 294.5 c 128,-1,97
 308 285 308 285 269.5 275.5 c 128,-1,98
 231 266 231 266 190 259.5 c 128,-1,99
 149 253 149 253 122 253 c 0,100,101
 66 253 66 253 41 270 c 128,-1,102
 16 287 16 287 16 309 c 256,103,104
 16 331 16 331 41 348 c 128,-1,105
 66 365 66 365 122 365 c 0,106,107
 149 365 149 365 190 358 c 128,-1,108
 231 351 231 351 269.5 342 c 128,-1,109
 308 333 308 333 335.5 323.5 c 128,-1,110
 363 314 363 314 363 309 c 256,95,96
503 -16 m 0,111,112
 503 -73 503 -73 486 -97.5 c 128,-1,113
 469 -122 469 -122 447 -122 c 256,114,115
 425 -122 425 -122 407 -97.5 c 128,-1,116
 389 -73 389 -73 389 -16 c 0,117,118
 389 11 389 11 396 51.5 c 128,-1,119
 403 92 403 92 412.5 130.5 c 128,-1,120
 422 169 422 169 432 196.5 c 128,-1,121
 442 224 442 224 447 224 c 0,122,123
 451 224 451 224 460 196.5 c 128,-1,124
 469 169 469 169 479 130.5 c 128,-1,125
 489 92 489 92 496 51.5 c 128,-1,126
 503 11 503 11 503 -16 c 0,111,112
383 248 m 0,127,128
 386 248 386 248 386 244 c 0,129,130
 386 238 386 238 373 212 c 128,-1,131
 360 186 360 186 340.5 153.5 c 128,-1,132
 321 121 321 121 299 89.5 c 128,-1,133
 277 58 277 58 259 40 c 0,134,135
 233 14 233 14 211.5 4 c 128,-1,136
 190 -6 190 -6 173 -6 c 256,137,138
 156 -6 156 -6 143 5 c 128,-1,139
 130 16 130 16 130 34 c 0,140,141
 130 51 130 51 140.5 71.5 c 128,-1,142
 151 92 151 92 177 118 c 0,143,144
 195 136 195 136 227 159 c 128,-1,145
 259 182 259 182 290.5 201.5 c 128,-1,146
 322 221 322 221 348.5 234.5 c 128,-1,147
 375 248 375 248 383 248 c 0,127,128
EndSplineSet
EndChar

StartChar: plus
Encoding: 43 43 14
Width: 1189
GlyphClass: 2
LayerCount: 2
Fore
SplineSet
630 506 m 1,0,-1
 630 5 l 1,1,-1
 551 5 l 1,2,-1
 551 506 l 1,3,-1
 48 506 l 1,4,-1
 48 589 l 1,5,-1
 551 589 l 1,6,-1
 551 1092 l 1,7,-1
 630 1092 l 1,8,-1
 630 589 l 1,9,-1
 1133 589 l 1,10,-1
 1133 506 l 1,11,-1
 630 506 l 1,0,-1
EndSplineSet
EndChar

StartChar: comma
Encoding: 44 44 15
Width: 503
GlyphClass: 2
LayerCount: 2
Fore
SplineSet
399 -10 m 0,0,1
 399 -236 399 -236 109 -335 c 1,2,-1
 109 -290 l 1,3,4
 149 -280 149 -280 187.5 -255.5 c 128,-1,5
 226 -231 226 -231 255.5 -197.5 c 128,-1,6
 285 -164 285 -164 302.5 -123.5 c 128,-1,7
 320 -83 320 -83 320 -40 c 0,8,9
 320 0 320 0 298 0 c 0,10,11
 290 0 290 0 281.5 -4.5 c 128,-1,12
 273 -9 273 -9 262.5 -15 c 128,-1,13
 252 -21 252 -21 239.5 -25.5 c 128,-1,14
 227 -30 227 -30 213 -30 c 0,15,16
 166 -30 166 -30 137.5 -2.5 c 128,-1,17
 109 25 109 25 109 79 c 0,18,19
 109 130 109 130 146 162.5 c 128,-1,20
 183 195 183 195 234 195 c 0,21,22
 274 195 274 195 304.5 177.5 c 128,-1,23
 335 160 335 160 356 130.5 c 128,-1,24
 377 101 377 101 388 65 c 128,-1,25
 399 29 399 29 399 -10 c 0,0,1
EndSplineSet
EndChar

StartChar: hyphen
Encoding: 45 45 16
Width: 668
GlyphClass: 2
LayerCount: 2
Fore
SplineSet
79 309 m 1,0,-1
 79 458 l 1,1,-1
 586 458 l 1,2,-1
 586 309 l 1,3,-1
 79 309 l 1,0,-1
EndSplineSet
EndChar

StartChar: period
Encoding: 46 46 17
Width: 833
GlyphClass: 2
LayerCount: 2
Fore
SplineSet
552 86 m 0,0,1
 552 37 552 37 519 3.5 c 128,-1,2
 486 -30 486 -30 437 -30 c 0,3,4
 414 -30 414 -30 393.5 -21 c 128,-1,5
 373 -12 373 -12 358 3.5 c 128,-1,6
 343 19 343 19 334 40 c 128,-1,7
 325 61 325 61 325 86 c 0,8,9
 325 109 325 109 334 129 c 128,-1,10
 343 149 343 149 358 164 c 128,-1,11
 373 179 373 179 393 188.5 c 128,-1,12
 413 198 413 198 437 198 c 0,13,14
 462 198 462 198 482.5 188.5 c 128,-1,15
 503 179 503 179 518.5 164 c 128,-1,16
 534 149 534 149 543 129 c 128,-1,17
 552 109 552 109 552 86 c 0,0,1
EndSplineSet
EndChar

StartChar: slash
Encoding: 47 47 18
Width: 705
GlyphClass: 2
LayerCount: 2
Fore
SplineSet
165 -338 m 1,0,-1
 86 -338 l 1,1,-1
 541 1618 l 1,2,-1
 623 1618 l 1,3,-1
 165 -338 l 1,0,-1
EndSplineSet
EndChar

StartChar: zero
Encoding: 48 48 19
Width: 1003
GlyphClass: 2
LayerCount: 2
Fore
SplineSet
932 676 m 0,0,1
 932 610 932 610 923 532.5 c 128,-1,2
 914 455 914 455 893 377.5 c 128,-1,3
 872 300 872 300 839 227.5 c 128,-1,4
 806 155 806 155 757 99.5 c 128,-1,5
 708 44 708 44 643 10.5 c 128,-1,6
 578 -23 578 -23 495 -23 c 0,7,8
 417 -23 417 -23 354.5 10 c 128,-1,9
 292 43 292 43 245.5 97.5 c 128,-1,10
 199 152 199 152 166 223 c 128,-1,11
 133 294 133 294 112 370 c 128,-1,12
 91 446 91 446 81 520.5 c 128,-1,13
 71 595 71 595 71 658 c 0,14,15
 71 722 71 722 81 798.5 c 128,-1,16
 91 875 91 875 112 952 c 128,-1,17
 133 1029 133 1029 166.5 1102.5 c 128,-1,18
 200 1176 200 1176 248 1232.5 c 128,-1,19
 296 1289 296 1289 360 1323 c 128,-1,20
 424 1357 424 1357 506 1357 c 0,21,22
 587 1357 587 1357 649.5 1324 c 128,-1,23
 712 1291 712 1291 759.5 1237 c 128,-1,24
 807 1183 807 1183 839.5 1112 c 128,-1,25
 872 1041 872 1041 893 965 c 128,-1,26
 914 889 914 889 923 814.5 c 128,-1,27
 932 740 932 740 932 676 c 0,0,1
740 708 m 0,28,29
 740 746 740 746 738 804.5 c 128,-1,30
 736 863 736 863 728 928 c 128,-1,31
 720 993 720 993 705 1058 c 128,-1,32
 690 1123 690 1123 664 1175.5 c 128,-1,33
 638 1228 638 1228 598.5 1260.5 c 128,-1,34
 559 1293 559 1293 503 1293 c 0,35,36
 446 1293 446 1293 406.5 1255 c 128,-1,37
 367 1217 367 1217 340 1155.5 c 128,-1,38
 313 1094 313 1094 297.5 1019 c 128,-1,39
 282 944 282 944 275 870.5 c 128,-1,40
 268 797 268 797 266 734 c 128,-1,41
 264 671 264 671 264 633 c 256,42,43
 264 595 264 595 266 536.5 c 128,-1,44
 268 478 268 478 275.5 412.5 c 128,-1,45
 283 347 283 347 298 280 c 128,-1,46
 313 213 313 213 340 160 c 128,-1,47
 367 107 367 107 406 73.5 c 128,-1,48
 445 40 445 40 500 40 c 0,49,50
 558 40 558 40 599.5 78.5 c 128,-1,51
 641 117 641 117 667.5 177.5 c 128,-1,52
 694 238 694 238 708.5 313.5 c 128,-1,53
 723 389 723 389 730 463 c 128,-1,54
 737 537 737 537 738.5 601.5 c 128,-1,55
 740 666 740 666 740 708 c 0,28,29
EndSplineSet
Substitution2: "Single Substitution lookup 47 subtable" zero.Small
Substitution2: "Single Substitution lookup 46 subtable" zero.Medium
EndChar

StartChar: one
Encoding: 49 49 20
Width: 1003
GlyphClass: 2
LayerCount: 2
Fore
SplineSet
259 0 m 1,0,-1
 259 38 l 1,1,2
 323 38 323 38 358 46.5 c 128,-1,3
 393 55 393 55 409 77 c 128,-1,4
 425 99 425 99 428.5 137 c 128,-1,5
 432 175 432 175 432 234 c 2,6,-1
 432 983 l 2,7,8
 432 1028 432 1028 430 1067 c 128,-1,9
 428 1106 428 1106 420 1135.5 c 128,-1,10
 412 1165 412 1165 396 1181.5 c 128,-1,11
 380 1198 380 1198 351 1198 c 0,12,13
 325 1198 325 1198 299 1188.5 c 128,-1,14
 273 1179 273 1179 251 1169 c 1,15,-1
 234 1198 l 1,16,-1
 559 1357 l 1,17,-1
 594 1357 l 1,18,-1
 594 234 l 2,19,20
 594 177 594 177 596.5 139 c 128,-1,21
 599 101 599 101 614.5 78.5 c 128,-1,22
 630 56 630 56 663.5 47 c 128,-1,23
 697 38 697 38 759 38 c 1,24,-1
 759 0 l 1,25,-1
 259 0 l 1,0,-1
EndSplineSet
Substitution2: "Single Substitution lookup 47 subtable" one.Small
Substitution2: "Single Substitution lookup 46 subtable" one.Medium
EndChar

StartChar: two
Encoding: 50 50 21
Width: 1003
GlyphClass: 2
LayerCount: 2
Fore
SplineSet
825 0 m 1,0,-1
 45 0 l 1,1,-1
 45 38 l 1,2,3
 106 94 106 94 176.5 160 c 128,-1,4
 247 226 247 226 316.5 298 c 128,-1,5
 386 370 386 370 450.5 447.5 c 128,-1,6
 515 525 515 525 563.5 603.5 c 128,-1,7
 612 682 612 682 641.5 761 c 128,-1,8
 671 840 671 840 671 916 c 0,9,10
 671 973 671 973 652.5 1026 c 128,-1,11
 634 1079 634 1079 600.5 1118.5 c 128,-1,12
 567 1158 567 1158 519 1182 c 128,-1,13
 471 1206 471 1206 409 1206 c 0,14,15
 295 1206 295 1206 224 1146.5 c 128,-1,16
 153 1087 153 1087 117 983 c 1,17,-1
 82 983 l 1,18,19
 92 1062 92 1062 120 1131 c 128,-1,20
 148 1200 148 1200 195 1250 c 128,-1,21
 242 1300 242 1300 308 1328.5 c 128,-1,22
 374 1357 374 1357 460 1357 c 0,23,24
 535 1357 535 1357 603.5 1331.5 c 128,-1,25
 672 1306 672 1306 724 1260 c 128,-1,26
 776 1214 776 1214 807 1149.5 c 128,-1,27
 838 1085 838 1085 838 1006 c 0,28,29
 838 932 838 932 812 858.5 c 128,-1,30
 786 785 786 785 745 715.5 c 128,-1,31
 704 646 704 646 653.5 583.5 c 128,-1,32
 603 521 603 521 555 469 c 0,33,34
 481 388 481 388 407 306 c 128,-1,35
 333 224 333 224 253 149 c 1,36,-1
 599 149 l 2,37,38
 655 149 655 149 696.5 152 c 128,-1,39
 738 155 738 155 770.5 165 c 128,-1,40
 803 175 803 175 830.5 196.5 c 128,-1,41
 858 218 858 218 884 256 c 1,42,-1
 922 256 l 1,43,-1
 825 0 l 1,0,-1
EndSplineSet
Substitution2: "Single Substitution lookup 47 subtable" two.Small
Substitution2: "Single Substitution lookup 46 subtable" two.Medium
EndChar

StartChar: three
Encoding: 51 51 22
Width: 1003
GlyphClass: 2
LayerCount: 2
Fore
SplineSet
838 439 m 0,0,1
 838 323 838 323 796.5 237 c 128,-1,2
 755 151 755 151 683 93 c 128,-1,3
 611 35 611 35 515.5 6 c 128,-1,4
 420 -23 420 -23 312 -23 c 0,5,6
 286 -23 286 -23 246.5 -20.5 c 128,-1,7
 207 -18 207 -18 170.5 -7.5 c 128,-1,8
 134 3 134 3 108 23.5 c 128,-1,9
 82 44 82 44 82 82 c 0,10,11
 82 112 82 112 106.5 132 c 128,-1,12
 131 152 131 152 160 152 c 0,13,14
 191 152 191 152 223 137.5 c 128,-1,15
 255 123 255 123 289.5 106.5 c 128,-1,16
 324 90 324 90 361.5 75.5 c 128,-1,17
 399 61 399 61 445 61 c 0,18,19
 497 61 497 61 542.5 82.5 c 128,-1,20
 588 104 588 104 621 139.5 c 128,-1,21
 654 175 654 175 672.5 222 c 128,-1,22
 691 269 691 269 691 320 c 0,23,24
 691 407 691 407 661.5 470.5 c 128,-1,25
 632 534 632 534 580 575 c 128,-1,26
 528 616 528 616 457.5 636 c 128,-1,27
 387 656 387 656 307 658 c 1,28,-1
 307 689 l 1,29,30
 367 697 367 697 420.5 722 c 128,-1,31
 474 747 474 747 516 787.5 c 128,-1,32
 558 828 558 828 582.5 882 c 128,-1,33
 607 936 607 936 607 998 c 0,34,35
 607 1046 607 1046 591.5 1087 c 128,-1,36
 576 1128 576 1128 547.5 1158 c 128,-1,37
 519 1188 519 1188 478.5 1205 c 128,-1,38
 438 1222 438 1222 389 1222 c 0,39,40
 305 1222 305 1222 243 1176 c 128,-1,41
 181 1130 181 1130 135 1059 c 1,42,-1
 101 1075 l 1,43,44
 130 1135 130 1135 162.5 1186 c 128,-1,45
 195 1237 195 1237 236.5 1275.5 c 128,-1,46
 278 1314 278 1314 332.5 1335.5 c 128,-1,47
 387 1357 387 1357 460 1357 c 0,48,49
 520 1357 520 1357 576 1339.5 c 128,-1,50
 632 1322 632 1322 674.5 1287.5 c 128,-1,51
 717 1253 717 1253 743 1203 c 128,-1,52
 769 1153 769 1153 769 1087 c 0,53,54
 769 1042 769 1042 753 1000 c 128,-1,55
 737 958 737 958 711.5 920.5 c 128,-1,56
 686 883 686 883 654.5 849.5 c 128,-1,57
 623 816 623 816 591 788 c 1,58,59
 712 744 712 744 775 656.5 c 128,-1,60
 838 569 838 569 838 439 c 0,0,1
EndSplineSet
Substitution2: "Single Substitution lookup 47 subtable" three.Small
Substitution2: "Single Substitution lookup 46 subtable" three.Medium
EndChar

StartChar: four
Encoding: 52 52 23
Width: 1003
GlyphClass: 2
LayerCount: 2
Fore
SplineSet
756 351 m 1,0,-1
 756 0 l 1,1,-1
 594 0 l 1,2,-1
 594 351 l 1,3,-1
 32 351 l 1,4,-1
 32 474 l 1,5,-1
 650 1357 l 1,6,-1
 756 1357 l 1,7,-1
 756 490 l 1,8,-1
 932 490 l 1,9,-1
 932 351 l 1,10,-1
 756 351 l 1,0,-1
594 1150 m 1,11,-1
 127 490 l 1,12,-1
 594 490 l 1,13,-1
 594 1150 l 1,11,-1
EndSplineSet
Substitution2: "Single Substitution lookup 47 subtable" four.Small
Substitution2: "Single Substitution lookup 46 subtable" four.Medium
EndChar

StartChar: five
Encoding: 53 53 24
Width: 1003
GlyphClass: 2
LayerCount: 2
Fore
SplineSet
795 1161 m 1,0,-1
 396 1161 l 1,1,-1
 307 985 l 1,2,3
 407 975 407 975 504.5 935.5 c 128,-1,4
 602 896 602 896 678.5 831 c 128,-1,5
 755 766 755 766 802 677.5 c 128,-1,6
 849 589 849 589 849 480 c 0,7,8
 849 373 849 373 806 280.5 c 128,-1,9
 763 188 763 188 691 120.5 c 128,-1,10
 619 53 619 53 524 15 c 128,-1,11
 429 -23 429 -23 325 -23 c 0,12,13
 295 -23 295 -23 255.5 -18 c 128,-1,14
 216 -13 216 -13 181 0.5 c 128,-1,15
 146 14 146 14 121 39.5 c 128,-1,16
 96 65 96 65 96 107 c 0,17,18
 96 145 96 145 116 161.5 c 128,-1,19
 136 178 136 178 173 178 c 0,20,21
 203 178 203 178 231.5 162.5 c 128,-1,22
 260 147 260 147 290.5 127.5 c 128,-1,23
 321 108 321 108 356 92.5 c 128,-1,24
 391 77 391 77 434 77 c 0,25,26
 495 77 495 77 548 101 c 128,-1,27
 601 125 601 125 639 166 c 128,-1,28
 677 207 677 207 699 261 c 128,-1,29
 721 315 721 315 721 376 c 0,30,31
 721 492 721 492 667.5 573 c 128,-1,32
 614 654 614 654 529.5 706 c 128,-1,33
 445 758 445 758 342 783 c 128,-1,34
 239 808 239 808 142 812 c 1,35,-1
 396 1328 l 1,36,-1
 871 1328 l 1,37,-1
 795 1161 l 1,0,-1
EndSplineSet
Substitution2: "Single Substitution lookup 47 subtable" five.Small
Substitution2: "Single Substitution lookup 46 subtable" five.Medium
EndChar

StartChar: six
Encoding: 54 54 25
Width: 1003
GlyphClass: 2
LayerCount: 2
Fore
SplineSet
927 447 m 0,0,1
 927 357 927 357 897 272.5 c 128,-1,2
 867 188 867 188 811 122 c 128,-1,3
 755 56 755 56 677 16.5 c 128,-1,4
 599 -23 599 -23 503 -23 c 0,5,6
 398 -23 398 -23 320 27.5 c 128,-1,7
 242 78 242 78 190.5 157.5 c 128,-1,8
 139 237 139 237 113.5 333 c 128,-1,9
 88 429 88 429 88 521 c 0,10,11
 88 622 88 622 114 723.5 c 128,-1,12
 140 825 140 825 188.5 918 c 128,-1,13
 237 1011 237 1011 305 1091 c 128,-1,14
 373 1171 373 1171 457 1230 c 128,-1,15
 541 1289 541 1289 638.5 1323 c 128,-1,16
 736 1357 736 1357 844 1357 c 2,17,-1
 899 1357 l 1,18,-1
 899 1321 l 1,19,20
 778 1313 778 1313 680 1263 c 128,-1,21
 582 1213 582 1213 508 1133 c 128,-1,22
 434 1053 434 1053 383.5 951.5 c 128,-1,23
 333 850 333 850 307 740 c 1,24,25
 371 784 371 784 442 811 c 128,-1,26
 513 838 513 838 591 838 c 0,27,28
 672 838 672 838 734.5 805 c 128,-1,29
 797 772 797 772 840 717 c 128,-1,30
 883 662 883 662 905 591.5 c 128,-1,31
 927 521 927 521 927 447 c 0,0,1
751 341 m 0,32,33
 751 401 751 401 740 473 c 128,-1,34
 729 545 729 545 700.5 607 c 128,-1,35
 672 669 672 669 622 711.5 c 128,-1,36
 572 754 572 754 495 754 c 0,37,38
 472 754 472 754 444 745.5 c 128,-1,39
 416 737 416 737 388.5 724.5 c 128,-1,40
 361 712 361 712 335 697 c 128,-1,41
 309 682 309 682 290 671 c 1,42,43
 284 616 284 616 278 563.5 c 128,-1,44
 272 511 272 511 272 458 c 0,45,46
 272 420 272 420 278.5 374 c 128,-1,47
 285 328 285 328 298 280.5 c 128,-1,48
 311 233 311 233 331.5 188.5 c 128,-1,49
 352 144 352 144 380.5 109 c 128,-1,50
 409 74 409 74 447 53 c 128,-1,51
 485 32 485 32 533 32 c 0,52,53
 593 32 593 32 634.5 62 c 128,-1,54
 676 92 676 92 702 137.5 c 128,-1,55
 728 183 728 183 739.5 237.5 c 128,-1,56
 751 292 751 292 751 341 c 0,32,33
EndSplineSet
Substitution2: "Single Substitution lookup 47 subtable" six.Small
Substitution2: "Single Substitution lookup 46 subtable" six.Medium
EndChar

StartChar: seven
Encoding: 55 55 26
Width: 1003
GlyphClass: 2
LayerCount: 2
Fore
SplineSet
468 -30 m 1,0,-1
 363 -30 l 1,1,-1
 759 1169 l 1,2,-1
 394 1169 l 2,3,4
 336 1169 336 1169 293.5 1162.5 c 128,-1,5
 251 1156 251 1156 218 1137.5 c 128,-1,6
 185 1119 185 1119 157.5 1088 c 128,-1,7
 130 1057 130 1057 101 1006 c 1,8,-1
 74 1014 l 1,9,-1
 203 1328 l 1,10,-1
 910 1328 l 1,11,-1
 910 1293 l 1,12,-1
 468 -30 l 1,0,-1
EndSplineSet
Substitution2: "Single Substitution lookup 47 subtable" seven.Small
Substitution2: "Single Substitution lookup 46 subtable" seven.Medium
EndChar

StartChar: eight
Encoding: 56 56 27
Width: 1003
GlyphClass: 2
LayerCount: 2
Fore
SplineSet
889 315 m 0,0,1
 889 231 889 231 858 167.5 c 128,-1,2
 827 104 827 104 773.5 61.5 c 128,-1,3
 720 19 720 19 650 -2 c 128,-1,4
 580 -23 580 -23 503 -23 c 0,5,6
 433 -23 433 -23 364 -1 c 128,-1,7
 295 21 295 21 240.5 63 c 128,-1,8
 186 105 186 105 153 165.5 c 128,-1,9
 120 226 120 226 120 303 c 0,10,11
 120 361 120 361 145 414.5 c 128,-1,12
 170 468 170 468 209 514 c 128,-1,13
 248 560 248 560 295 598.5 c 128,-1,14
 342 637 342 637 386 668 c 1,15,16
 330 715 330 715 284 757 c 128,-1,17
 238 799 238 799 205 842 c 128,-1,18
 172 885 172 885 153.5 933 c 128,-1,19
 135 981 135 981 135 1041 c 0,20,21
 135 1116 135 1116 166.5 1175.5 c 128,-1,22
 198 1235 198 1235 249 1275 c 128,-1,23
 300 1315 300 1315 366.5 1336 c 128,-1,24
 433 1357 433 1357 503 1357 c 0,25,26
 565 1357 565 1357 629 1339.5 c 128,-1,27
 693 1322 693 1322 744 1285.5 c 128,-1,28
 795 1249 795 1249 827.5 1195 c 128,-1,29
 860 1141 860 1141 860 1070 c 0,30,31
 860 1012 860 1012 833.5 962 c 128,-1,32
 807 912 807 912 767 871.5 c 128,-1,33
 727 831 727 831 678.5 797.5 c 128,-1,34
 630 764 630 764 586 737 c 1,35,36
 644 692 644 692 699 645 c 128,-1,37
 754 598 754 598 796 547.5 c 128,-1,38
 838 497 838 497 863.5 439 c 128,-1,39
 889 381 889 381 889 315 c 0,0,1
719 1080 m 0,40,41
 719 1298 719 1298 503 1299 c 0,42,43
 459 1299 459 1299 418.5 1286.5 c 128,-1,44
 378 1274 378 1274 347 1249 c 128,-1,45
 316 1224 316 1224 297.5 1188.5 c 128,-1,46
 279 1153 279 1153 279 1105 c 0,47,48
 279 1054 279 1054 302 1010 c 128,-1,49
 325 966 325 966 362 925.5 c 128,-1,50
 399 885 399 885 446 847.5 c 128,-1,51
 493 810 493 810 541 775 c 1,52,53
 581 813 581 813 614 846.5 c 128,-1,54
 647 880 647 880 670.5 915 c 128,-1,55
 694 950 694 950 706.5 990.5 c 128,-1,56
 719 1031 719 1031 719 1080 c 0,40,41
747 234 m 0,57,58
 747 289 747 289 724 337.5 c 128,-1,59
 701 386 701 386 658.5 434 c 128,-1,60
 616 482 616 482 558 531 c 128,-1,61
 500 580 500 580 432 633 c 1,62,63
 358 569 358 569 315 488 c 128,-1,64
 272 407 272 407 272 307 c 0,65,66
 272 251 272 251 287.5 201 c 128,-1,67
 303 151 303 151 333.5 114 c 128,-1,68
 364 77 364 77 409.5 54.5 c 128,-1,69
 455 32 455 32 516 32 c 0,70,71
 563 32 563 32 604.5 45 c 128,-1,72
 646 58 646 58 678 83.5 c 128,-1,73
 710 109 710 109 728.5 147 c 128,-1,74
 747 185 747 185 747 234 c 0,57,58
EndSplineSet
Substitution2: "Single Substitution lookup 47 subtable" eight.Small
Substitution2: "Single Substitution lookup 46 subtable" eight.Medium
EndChar

StartChar: nine
Encoding: 57 57 28
Width: 1003
GlyphClass: 2
LayerCount: 2
Fore
SplineSet
916 810 m 0,0,1
 916 709 916 709 890 607.5 c 128,-1,2
 864 506 864 506 816 412 c 128,-1,3
 768 318 768 318 700 237.5 c 128,-1,4
 632 157 632 157 548.5 97.5 c 128,-1,5
 465 38 465 38 367 4 c 128,-1,6
 269 -30 269 -30 162 -30 c 2,7,-1
 107 -30 l 1,8,-1
 107 8 l 1,9,10
 227 11 227 11 324 60.5 c 128,-1,11
 421 110 421 110 495 191.5 c 128,-1,12
 569 273 569 273 620 375.5 c 128,-1,13
 671 478 671 478 698 586 c 1,14,15
 636 544 636 544 565 514.5 c 128,-1,16
 494 485 494 485 419 485 c 0,17,18
 337 485 337 485 274 518 c 128,-1,19
 211 551 211 551 167 607 c 128,-1,20
 123 663 123 663 101 734 c 128,-1,21
 79 805 79 805 79 881 c 0,22,23
 79 968 79 968 107.5 1054 c 128,-1,24
 136 1140 136 1140 190 1207 c 128,-1,25
 244 1274 244 1274 321 1315.5 c 128,-1,26
 398 1357 398 1357 495 1357 c 0,27,28
 600 1357 600 1357 679 1305.5 c 128,-1,29
 758 1254 758 1254 810.5 1175 c 128,-1,30
 863 1096 863 1096 889.5 998.5 c 128,-1,31
 916 901 916 901 916 810 c 0,0,1
732 860 m 0,32,33
 732 898 732 898 726 945 c 128,-1,34
 720 992 720 992 707.5 1040 c 128,-1,35
 695 1088 695 1088 675 1133.5 c 128,-1,36
 655 1179 655 1179 626 1214.5 c 128,-1,37
 597 1250 597 1250 558.5 1271.5 c 128,-1,38
 520 1293 520 1293 471 1293 c 0,39,40
 410 1293 410 1293 369 1262.5 c 128,-1,41
 328 1232 328 1232 303 1186.5 c 128,-1,42
 278 1141 278 1141 267 1086 c 128,-1,43
 256 1031 256 1031 256 983 c 0,44,45
 256 927 256 927 266.5 855.5 c 128,-1,46
 277 784 277 784 304 721 c 128,-1,47
 331 658 331 658 378 615 c 128,-1,48
 425 572 425 572 498 572 c 0,49,50
 519 572 519 572 550 578.5 c 128,-1,51
 581 585 581 585 613.5 596.5 c 128,-1,52
 646 608 646 608 673.5 624 c 128,-1,53
 701 640 701 640 714 658 c 1,54,55
 720 707 720 707 726 757 c 128,-1,56
 732 807 732 807 732 860 c 0,32,33
EndSplineSet
Substitution2: "Single Substitution lookup 47 subtable" nine.Small
Substitution2: "Single Substitution lookup 46 subtable" nine.Medium
EndChar

StartChar: colon
Encoding: 58 58 29
Width: 833
GlyphClass: 2
LayerCount: 2
Fore
SplineSet
506 633 m 0,0,1
 506 610 506 610 496.5 589 c 128,-1,2
 487 568 487 568 472.5 552.5 c 128,-1,3
 458 537 458 537 437.5 528 c 128,-1,4
 417 519 417 519 394 519 c 0,5,6
 346 519 346 519 312.5 552 c 128,-1,7
 279 585 279 585 279 633 c 0,8,9
 279 682 279 682 312.5 714.5 c 128,-1,10
 346 747 346 747 394 747 c 0,11,12
 417 747 417 747 437.5 738.5 c 128,-1,13
 458 730 458 730 472.5 714.5 c 128,-1,14
 487 699 487 699 496.5 678.5 c 128,-1,15
 506 658 506 658 506 633 c 0,0,1
506 18 m 256,16,17
 506 -5 506 -5 496.5 -25 c 128,-1,18
 487 -45 487 -45 472.5 -60 c 128,-1,19
 458 -75 458 -75 437.5 -84.5 c 128,-1,20
 417 -94 417 -94 394 -94 c 256,21,22
 371 -94 371 -94 350 -84.5 c 128,-1,23
 329 -75 329 -75 313.5 -60 c 128,-1,24
 298 -45 298 -45 288.5 -25 c 128,-1,25
 279 -5 279 -5 279 18 c 0,26,27
 279 66 279 66 312.5 99.5 c 128,-1,28
 346 133 346 133 394 133 c 0,29,30
 417 133 417 133 437.5 123.5 c 128,-1,31
 458 114 458 114 472.5 98.5 c 128,-1,32
 487 83 487 83 496.5 62 c 128,-1,33
 506 41 506 41 506 18 c 256,16,17
EndSplineSet
EndChar

StartChar: semicolon
Encoding: 59 59 30
Width: 558
GlyphClass: 2
LayerCount: 2
Fore
SplineSet
415 820 m 0,0,1
 415 797 415 797 406.5 777.5 c 128,-1,2
 398 758 398 758 383.5 743 c 128,-1,3
 369 728 369 728 349.5 719.5 c 128,-1,4
 330 711 330 711 308 711 c 0,5,6
 263 711 263 711 231 743 c 128,-1,7
 199 775 199 775 199 820 c 0,8,9
 199 867 199 867 231 898 c 128,-1,10
 263 929 263 929 308 929 c 0,11,12
 352 929 352 929 383.5 898 c 128,-1,13
 415 867 415 867 415 820 c 0,0,1
458 -10 m 0,14,15
 458 -236 458 -236 168 -335 c 1,16,-1
 168 -290 l 1,17,18
 208 -280 208 -280 246.5 -255.5 c 128,-1,19
 285 -231 285 -231 314 -197.5 c 128,-1,20
 343 -164 343 -164 360.5 -123.5 c 128,-1,21
 378 -83 378 -83 378 -40 c 0,22,23
 378 0 378 0 356 0 c 0,24,25
 348 0 348 0 339.5 -4.5 c 128,-1,26
 331 -9 331 -9 321 -15 c 128,-1,27
 311 -21 311 -21 298.5 -25.5 c 128,-1,28
 286 -30 286 -30 272 -30 c 0,29,30
 225 -30 225 -30 196.5 -2.5 c 128,-1,31
 168 25 168 25 168 79 c 0,32,33
 168 130 168 130 205 162.5 c 128,-1,34
 242 195 242 195 292 195 c 0,35,36
 332 195 332 195 363 177.5 c 128,-1,37
 394 160 394 160 414.5 130.5 c 128,-1,38
 435 101 435 101 446.5 65 c 128,-1,39
 458 29 458 29 458 -10 c 0,14,15
EndSplineSet
EndChar

StartChar: less
Encoding: 60 60 31
Width: 1930
GlyphClass: 2
LayerCount: 2
Fore
SplineSet
386 519 m 1,0,-1
 386 640 l 1,1,-1
 1544 1084 l 1,2,-1
 1544 963 l 1,3,-1
 508 580 l 1,4,-1
 1544 195 l 1,5,-1
 1544 74 l 1,6,-1
 386 519 l 1,0,-1
EndSplineSet
EndChar

StartChar: equal
Encoding: 61 61 32
Width: 1189
GlyphClass: 2
LayerCount: 2
Fore
SplineSet
48 653 m 1,0,-1
 48 734 l 1,1,-1
 1133 734 l 1,2,-1
 1133 653 l 1,3,-1
 48 653 l 1,0,-1
48 359 m 1,4,-1
 48 442 l 1,5,-1
 1133 442 l 1,6,-1
 1133 359 l 1,7,-1
 48 359 l 1,4,-1
EndSplineSet
EndChar

StartChar: greater
Encoding: 62 62 33
Width: 1930
GlyphClass: 2
LayerCount: 2
Fore
SplineSet
386 74 m 1,0,-1
 386 195 l 1,1,-1
 1422 580 l 1,2,-1
 386 963 l 1,3,-1
 386 1084 l 1,4,-1
 1544 640 l 1,5,-1
 1544 519 l 1,6,-1
 386 74 l 1,0,-1
EndSplineSet
EndChar

StartChar: question
Encoding: 63 63 34
Width: 891
GlyphClass: 2
LayerCount: 2
Fore
SplineSet
812 1049 m 0,0,1
 812 975 812 975 786 916 c 128,-1,2
 760 857 760 857 720.5 803.5 c 128,-1,3
 681 750 681 750 634.5 699.5 c 128,-1,4
 588 649 588 649 547 591.5 c 128,-1,5
 506 534 506 534 477 466 c 128,-1,6
 448 398 448 398 445 312 c 1,7,-1
 404 312 l 1,8,9
 408 430 408 430 442.5 536 c 128,-1,10
 477 642 477 642 537 743 c 0,11,12
 576 809 576 809 602 882 c 128,-1,13
 628 955 628 955 628 1036 c 0,14,15
 628 1088 628 1088 614.5 1136 c 128,-1,16
 601 1184 601 1184 573 1222 c 128,-1,17
 545 1260 545 1260 502.5 1282.5 c 128,-1,18
 460 1305 460 1305 402 1305 c 0,19,20
 375 1305 375 1305 342 1298 c 128,-1,21
 309 1291 309 1291 281 1275.5 c 128,-1,22
 253 1260 253 1260 234.5 1235 c 128,-1,23
 216 1210 216 1210 216 1176 c 0,24,25
 216 1157 216 1157 225.5 1133.5 c 128,-1,26
 235 1110 235 1110 246 1087.5 c 128,-1,27
 257 1065 257 1065 267 1043.5 c 128,-1,28
 277 1022 277 1022 277 1006 c 0,29,30
 277 974 277 974 255.5 949 c 128,-1,31
 234 924 234 924 200 924 c 0,32,33
 170 924 170 924 150 939 c 128,-1,34
 130 954 130 954 116.5 977 c 128,-1,35
 103 1000 103 1000 97 1027 c 128,-1,36
 91 1054 91 1054 91 1078 c 0,37,38
 91 1151 91 1151 122 1203.5 c 128,-1,39
 153 1256 153 1256 203 1290.5 c 128,-1,40
 253 1325 253 1325 316.5 1341 c 128,-1,41
 380 1357 380 1357 445 1357 c 0,42,43
 516 1357 516 1357 582.5 1339 c 128,-1,44
 649 1321 649 1321 700 1283 c 128,-1,45
 751 1245 751 1245 781.5 1186.5 c 128,-1,46
 812 1128 812 1128 812 1049 c 0,0,1
541 82 m 0,47,48
 541 37 541 37 509 5.5 c 128,-1,49
 477 -26 477 -26 432 -26 c 256,50,51
 387 -26 387 -26 353.5 4 c 128,-1,52
 320 34 320 34 320 82 c 0,53,54
 320 105 320 105 329 126 c 128,-1,55
 338 147 338 147 353.5 162 c 128,-1,56
 369 177 369 177 389 186 c 128,-1,57
 409 195 409 195 432 195 c 0,58,59
 477 195 477 195 509 162 c 128,-1,60
 541 129 541 129 541 82 c 0,47,48
EndSplineSet
EndChar

StartChar: at
Encoding: 64 64 35
Width: 1849
GlyphClass: 2
LayerCount: 2
Fore
SplineSet
1799 168 m 1,0,1
 1761 29 1761 29 1675.5 -82.5 c 128,-1,2
 1590 -194 1590 -194 1475 -272 c 128,-1,3
 1360 -350 1360 -350 1224 -392 c 128,-1,4
 1088 -434 1088 -434 950 -434 c 0,5,6
 763 -434 763 -434 606.5 -367 c 128,-1,7
 450 -300 450 -300 337 -183 c 128,-1,8
 224 -66 224 -66 160 93 c 128,-1,9
 96 252 96 252 96 437 c 0,10,11
 96 636 96 636 165 809.5 c 128,-1,12
 234 983 234 983 357 1113 c 128,-1,13
 480 1243 480 1243 649.5 1317.5 c 128,-1,14
 819 1392 819 1392 1022 1392 c 0,15,16
 1175 1392 1175 1392 1303.5 1346 c 128,-1,17
 1432 1300 1432 1300 1525 1213.5 c 128,-1,18
 1618 1127 1618 1127 1670 1003 c 128,-1,19
 1722 879 1722 879 1722 721 c 0,20,21
 1722 642 1722 642 1707 561 c 128,-1,22
 1692 480 1692 480 1662.5 403 c 128,-1,23
 1633 326 1633 326 1587.5 258.5 c 128,-1,24
 1542 191 1542 191 1482 141 c 128,-1,25
 1422 91 1422 91 1346.5 61.5 c 128,-1,26
 1271 32 1271 32 1182 32 c 0,27,28
 1111 32 1111 32 1072 66 c 128,-1,29
 1033 100 1033 100 1033 173 c 0,30,31
 1033 207 1033 207 1037.5 241.5 c 128,-1,32
 1042 276 1042 276 1049 309 c 1,33,34
 1018 271 1018 271 973.5 224 c 128,-1,35
 929 177 929 177 877 134 c 128,-1,36
 825 91 825 91 770 61.5 c 128,-1,37
 715 32 715 32 663 32 c 0,38,39
 618 32 618 32 584.5 52.5 c 128,-1,40
 551 73 551 73 529.5 105.5 c 128,-1,41
 508 138 508 138 497.5 177.5 c 128,-1,42
 487 217 487 217 487 256 c 0,43,44
 487 320 487 320 507.5 396 c 128,-1,45
 528 472 528 472 564.5 548 c 128,-1,46
 601 624 601 624 651 696 c 128,-1,47
 701 768 701 768 760 823.5 c 128,-1,48
 819 879 819 879 886.5 912 c 128,-1,49
 954 945 954 945 1024 945 c 0,50,51
 1166 945 1166 945 1196 810 c 1,52,-1
 1224 916 l 1,53,-1
 1379 940 l 1,54,55
 1374 924 1374 924 1357 867.5 c 128,-1,56
 1340 811 1340 811 1317.5 733.5 c 128,-1,57
 1295 656 1295 656 1269.5 568 c 128,-1,58
 1244 480 1244 480 1222.5 400 c 128,-1,59
 1201 320 1201 320 1187.5 258 c 128,-1,60
 1174 196 1174 196 1174 173 c 0,61,62
 1174 143 1174 143 1196.5 122 c 128,-1,63
 1219 101 1219 101 1249 101 c 0,64,65
 1291 101 1291 101 1328.5 115.5 c 128,-1,66
 1366 130 1366 130 1399 154 c 128,-1,67
 1432 178 1432 178 1461 208.5 c 128,-1,68
 1490 239 1490 239 1514 270 c 0,69,70
 1592 371 1592 371 1626.5 492.5 c 128,-1,71
 1661 614 1661 614 1661 740 c 0,72,73
 1661 879 1661 879 1612.5 990.5 c 128,-1,74
 1564 1102 1564 1102 1478.5 1181 c 128,-1,75
 1393 1260 1393 1260 1277.5 1302 c 128,-1,76
 1162 1344 1162 1344 1028 1344 c 0,77,78
 899 1344 899 1344 786 1308.5 c 128,-1,79
 673 1273 673 1273 579.5 1209.5 c 128,-1,80
 486 1146 486 1146 412.5 1058.5 c 128,-1,81
 339 971 339 971 289 867 c 128,-1,82
 239 763 239 763 212.5 646.5 c 128,-1,83
 186 530 186 530 186 409 c 0,84,85
 186 236 186 236 241 92.5 c 128,-1,86
 296 -51 296 -51 397 -154 c 128,-1,87
 498 -257 498 -257 639.5 -315 c 128,-1,88
 781 -373 781 -373 955 -373 c 0,89,90
 1093 -373 1093 -373 1213.5 -334.5 c 128,-1,91
 1334 -296 1334 -296 1433 -226 c 128,-1,92
 1532 -156 1532 -156 1610 -56 c 128,-1,93
 1688 44 1688 44 1743 168 c 1,94,-1
 1799 168 l 1,0,1
1158 740 m 0,95,96
 1158 771 1158 771 1153 799.5 c 128,-1,97
 1148 828 1148 828 1134 850.5 c 128,-1,98
 1120 873 1120 873 1096 886 c 128,-1,99
 1072 899 1072 899 1036 899 c 0,100,101
 988 899 988 899 939 866 c 128,-1,102
 890 833 890 833 846.5 779 c 128,-1,103
 803 725 803 725 765.5 658 c 128,-1,104
 728 591 728 591 700.5 523 c 128,-1,105
 673 455 673 455 657.5 392.5 c 128,-1,106
 642 330 642 330 642 287 c 0,107,108
 642 264 642 264 649 239 c 128,-1,109
 656 214 656 214 670.5 194 c 128,-1,110
 685 174 685 174 706 161.5 c 128,-1,111
 727 149 727 149 754 149 c 0,112,113
 809 149 809 149 860 180 c 128,-1,114
 911 211 911 211 956 261 c 128,-1,115
 1001 311 1001 311 1038 374.5 c 128,-1,116
 1075 438 1075 438 1101.5 503.5 c 128,-1,117
 1128 569 1128 569 1143 631 c 128,-1,118
 1158 693 1158 693 1158 740 c 0,95,96
EndSplineSet
EndChar

StartChar: A
Encoding: 65 65 36
Width: 1442
GlyphClass: 2
LayerCount: 2
Fore
SplineSet
902 0 m 1,0,-1
 902 38 l 1,1,2
 924 38 924 38 947.5 41 c 128,-1,3
 971 44 971 44 990.5 53 c 128,-1,4
 1010 62 1010 62 1023 78.5 c 128,-1,5
 1036 95 1036 95 1036 122 c 0,6,7
 1036 148 1036 148 1020.5 195 c 128,-1,8
 1005 242 1005 242 985.5 291.5 c 128,-1,9
 966 341 966 341 946.5 383.5 c 128,-1,10
 927 426 927 426 919 445 c 1,11,-1
 404 445 l 1,12,13
 399 435 399 435 388 410.5 c 128,-1,14
 377 386 377 386 362.5 355.5 c 128,-1,15
 348 325 348 325 334 291 c 128,-1,16
 320 257 320 257 307.5 224.5 c 128,-1,17
 295 192 295 192 287 165 c 128,-1,18
 279 138 279 138 279 122 c 0,19,20
 279 96 279 96 296 80 c 128,-1,21
 313 64 313 64 338 54.5 c 128,-1,22
 363 45 363 45 389 42 c 128,-1,23
 415 39 415 39 434 38 c 1,24,-1
 434 0 l 1,25,-1
 16 0 l 1,26,-1
 16 38 l 1,27,28
 63 41 63 41 95 59.5 c 128,-1,29
 127 78 127 78 152 108.5 c 128,-1,30
 177 139 177 139 195.5 178.5 c 128,-1,31
 214 218 214 218 234 264 c 2,32,-1
 703 1357 l 1,33,-1
 737 1357 l 1,34,-1
 1198 256 l 2,35,36
 1217 211 1217 211 1235 172.5 c 128,-1,37
 1253 134 1253 134 1277.5 104.5 c 128,-1,38
 1302 75 1302 75 1337.5 57.5 c 128,-1,39
 1373 40 1373 40 1427 38 c 1,40,-1
 1427 0 l 1,41,-1
 902 0 l 1,0,-1
666 1057 m 1,42,-1
 434 516 l 1,43,-1
 892 516 l 1,44,-1
 666 1057 l 1,42,-1
EndSplineSet
EndChar

StartChar: B
Encoding: 66 66 37
Width: 1305
GlyphClass: 2
LayerCount: 2
Fore
SplineSet
1227 363 m 0,0,1
 1227 285 1227 285 1202.5 227 c 128,-1,2
 1178 169 1178 169 1135 128.5 c 128,-1,3
 1092 88 1092 88 1035.5 63 c 128,-1,4
 979 38 979 38 916 24 c 128,-1,5
 853 10 853 10 787 5 c 128,-1,6
 721 0 721 0 660 0 c 2,7,-1
 35 0 l 1,8,-1
 35 38 l 1,9,10
 97 38 97 38 134.5 46.5 c 128,-1,11
 172 55 172 55 191.5 76 c 128,-1,12
 211 97 211 97 217.5 135.5 c 128,-1,13
 224 174 224 174 224 234 c 2,14,-1
 224 1094 l 2,15,16
 224 1156 224 1156 218.5 1195 c 128,-1,17
 213 1234 213 1234 193.5 1256 c 128,-1,18
 174 1278 174 1278 136.5 1285.5 c 128,-1,19
 99 1293 99 1293 35 1293 c 1,20,-1
 35 1328 l 1,21,-1
 607 1328 l 2,22,23
 667 1328 667 1328 732.5 1323 c 128,-1,24
 798 1318 798 1318 860.5 1304.5 c 128,-1,25
 923 1291 923 1291 979 1266 c 128,-1,26
 1035 1241 1035 1241 1077 1201.5 c 128,-1,27
 1119 1162 1119 1162 1144 1105.5 c 128,-1,28
 1169 1049 1169 1049 1169 972 c 0,29,30
 1169 916 1169 916 1150 869.5 c 128,-1,31
 1131 823 1131 823 1098.5 786 c 128,-1,32
 1066 749 1066 749 1021.5 721.5 c 128,-1,33
 977 694 977 694 927 678 c 1,34,35
 993 666 993 666 1047.5 642.5 c 128,-1,36
 1102 619 1102 619 1142.5 580.5 c 128,-1,37
 1183 542 1183 542 1205 488 c 128,-1,38
 1227 434 1227 434 1227 363 c 0,0,1
961 983 m 0,39,40
 961 1061 961 1061 927.5 1114 c 128,-1,41
 894 1167 894 1167 841.5 1200.5 c 128,-1,42
 789 1234 789 1234 723.5 1248 c 128,-1,43
 658 1262 658 1262 591 1262 c 0,44,45
 546 1262 546 1262 501 1257.5 c 128,-1,46
 456 1253 456 1253 412 1243 c 1,47,-1
 412 732 l 1,48,49
 459 722 459 722 506.5 720.5 c 128,-1,50
 554 719 554 719 599 719 c 0,51,52
 668 719 668 719 733 730 c 128,-1,53
 798 741 798 741 848.5 771 c 128,-1,54
 899 801 899 801 930 851.5 c 128,-1,55
 961 902 961 902 961 983 c 0,39,40
1001 348 m 0,56,57
 1001 434 1001 434 963 492 c 128,-1,58
 925 550 925 550 866 585 c 128,-1,59
 807 620 807 620 733 635 c 128,-1,60
 659 650 659 650 586 650 c 0,61,62
 544 650 544 650 499.5 649.5 c 128,-1,63
 455 649 455 649 412 642 c 1,64,-1
 412 96 l 1,65,66
 469 83 469 83 525 76 c 128,-1,67
 581 69 581 69 640 69 c 0,68,69
 706 69 706 69 770 84 c 128,-1,70
 834 99 834 99 885.5 132 c 128,-1,71
 937 165 937 165 969 218 c 128,-1,72
 1001 271 1001 271 1001 348 c 0,56,57
EndSplineSet
EndChar

StartChar: C
Encoding: 67 67 38
Width: 1338
GlyphClass: 2
LayerCount: 2
Fore
SplineSet
1267 312 m 1,0,1
 1177 150 1177 150 1041.5 59 c 128,-1,2
 906 -32 906 -32 719 -32 c 0,3,4
 571 -32 571 -32 451 19.5 c 128,-1,5
 331 71 331 71 246.5 162 c 128,-1,6
 162 253 162 253 116.5 376.5 c 128,-1,7
 71 500 71 500 71 645 c 0,8,9
 71 793 71 793 120 922.5 c 128,-1,10
 169 1052 169 1052 258 1148.5 c 128,-1,11
 347 1245 347 1245 471 1301 c 128,-1,12
 595 1357 595 1357 747 1357 c 0,13,14
 798 1357 798 1357 841.5 1350 c 128,-1,15
 885 1343 885 1343 926 1331 c 128,-1,16
 967 1319 967 1319 1006.5 1303 c 128,-1,17
 1046 1287 1046 1287 1092 1267 c 1,18,19
 1111 1267 1111 1267 1125.5 1276.5 c 128,-1,20
 1140 1286 1140 1286 1149 1299 c 128,-1,21
 1158 1312 1158 1312 1164 1327.5 c 128,-1,22
 1170 1343 1170 1343 1174 1357 c 1,23,-1
 1209 1357 l 1,24,-1
 1237 907 l 1,25,-1
 1209 907 l 1,26,27
 1184 990 1184 990 1145.5 1060 c 128,-1,28
 1107 1130 1107 1130 1053.5 1180.5 c 128,-1,29
 1000 1231 1000 1231 927.5 1259.5 c 128,-1,30
 855 1288 855 1288 764 1288 c 256,31,32
 673 1288 673 1288 603.5 1261.5 c 128,-1,33
 534 1235 534 1235 481.5 1188 c 128,-1,34
 429 1141 429 1141 393 1078.5 c 128,-1,35
 357 1016 357 1016 336 944 c 128,-1,36
 315 872 315 872 305 794.5 c 128,-1,37
 295 717 295 717 295 642 c 0,38,39
 295 522 295 522 323.5 416.5 c 128,-1,40
 352 311 352 311 412.5 230 c 128,-1,41
 473 149 473 149 567.5 102.5 c 128,-1,42
 662 56 662 56 793 56 c 0,43,44
 876 56 876 56 939 75.5 c 128,-1,45
 1002 95 1002 95 1053.5 130.5 c 128,-1,46
 1105 166 1105 166 1148.5 217.5 c 128,-1,47
 1192 269 1192 269 1237 333 c 1,48,-1
 1267 312 l 1,0,1
EndSplineSet
EndChar

StartChar: D
Encoding: 68 68 39
Width: 1447
GlyphClass: 2
LayerCount: 2
Fore
SplineSet
1371 671 m 0,0,1
 1371 502 1371 502 1314.5 376.5 c 128,-1,2
 1258 251 1258 251 1158.5 167 c 128,-1,3
 1059 83 1059 83 923.5 41.5 c 128,-1,4
 788 0 788 0 628 0 c 2,5,-1
 35 0 l 1,6,-1
 35 38 l 1,7,8
 97 38 97 38 134.5 45.5 c 128,-1,9
 172 53 172 53 191.5 74.5 c 128,-1,10
 211 96 211 96 217.5 134.5 c 128,-1,11
 224 173 224 173 224 234 c 2,12,-1
 224 1094 l 2,13,14
 224 1156 224 1156 218.5 1195.5 c 128,-1,15
 213 1235 213 1235 193.5 1256.5 c 128,-1,16
 174 1278 174 1278 136.5 1285.5 c 128,-1,17
 99 1293 99 1293 35 1293 c 1,18,-1
 35 1328 l 1,19,-1
 575 1328 l 2,20,21
 743 1328 743 1328 888 1297 c 128,-1,22
 1033 1266 1033 1266 1140.5 1190 c 128,-1,23
 1248 1114 1248 1114 1309.5 988 c 128,-1,24
 1371 862 1371 862 1371 671 c 0,0,1
1150 663 m 256,25,26
 1150 785 1150 785 1115.5 893 c 128,-1,27
 1081 1001 1081 1001 1013 1081.5 c 128,-1,28
 945 1162 945 1162 845 1208 c 128,-1,29
 745 1254 745 1254 615 1254 c 0,30,31
 563 1254 563 1254 513 1246.5 c 128,-1,32
 463 1239 463 1239 412 1224 c 1,33,-1
 412 96 l 1,34,35
 463 83 463 83 515.5 74.5 c 128,-1,36
 568 66 568 66 620 66 c 0,37,38
 750 66 750 66 849 113.5 c 128,-1,39
 948 161 948 161 1014.5 242.5 c 128,-1,40
 1081 324 1081 324 1115.5 432.5 c 128,-1,41
 1150 541 1150 541 1150 663 c 256,25,26
EndSplineSet
EndChar

StartChar: E
Encoding: 69 69 40
Width: 1224
GlyphClass: 2
LayerCount: 2
Fore
SplineSet
1065 0 m 1,0,-1
 43 0 l 1,1,-1
 43 38 l 1,2,3
 105 38 105 38 142 45.5 c 128,-1,4
 179 53 179 53 198.5 74.5 c 128,-1,5
 218 96 218 96 224.5 134.5 c 128,-1,6
 231 173 231 173 231 234 c 2,7,-1
 231 1100 l 2,8,9
 231 1162 231 1162 226 1199.5 c 128,-1,10
 221 1237 221 1237 201.5 1258 c 128,-1,11
 182 1279 182 1279 144.5 1286 c 128,-1,12
 107 1293 107 1293 43 1293 c 1,13,-1
 43 1328 l 1,14,-1
 1065 1328 l 1,15,-1
 1080 1039 l 1,16,-1
 1044 1039 l 1,17,18
 1027 1103 1027 1103 1012 1145 c 128,-1,19
 997 1187 997 1187 971.5 1211.5 c 128,-1,20
 946 1236 946 1236 902.5 1246.5 c 128,-1,21
 859 1257 859 1257 785 1257 c 2,22,-1
 419 1257 l 1,23,-1
 419 732 l 1,24,-1
 711 732 l 2,25,26
 772 732 772 732 809 740.5 c 128,-1,27
 846 749 846 749 869 770.5 c 128,-1,28
 892 792 892 792 903 829 c 128,-1,29
 914 866 914 866 922 924 c 1,30,-1
 958 924 l 1,31,-1
 958 460 l 1,32,-1
 922 460 l 1,33,34
 914 518 914 518 903 556 c 128,-1,35
 892 594 892 594 869.5 617 c 128,-1,36
 847 640 847 640 810 649 c 128,-1,37
 773 658 773 658 711 658 c 2,38,-1
 419 658 l 1,39,-1
 419 221 l 2,40,41
 419 182 419 182 420.5 154 c 128,-1,42
 422 126 422 126 433.5 108 c 128,-1,43
 445 90 445 90 467 80.5 c 128,-1,44
 489 71 489 71 530 71 c 2,45,-1
 754 71 l 2,46,47
 841 71 841 71 897 85.5 c 128,-1,48
 953 100 953 100 994 131 c 128,-1,49
 1035 162 1035 162 1067.5 212.5 c 128,-1,50
 1100 263 1100 263 1140 333 c 1,51,-1
 1182 333 l 1,52,-1
 1065 0 l 1,0,-1
EndSplineSet
EndChar

StartChar: F
Encoding: 70 70 41
Width: 1115
GlyphClass: 2
LayerCount: 2
Fore
SplineSet
1001 1039 m 1,0,1
 982 1104 982 1104 958.5 1146 c 128,-1,2
 935 1188 935 1188 901 1212.5 c 128,-1,3
 867 1237 867 1237 819.5 1247 c 128,-1,4
 772 1257 772 1257 706 1257 c 2,5,-1
 409 1257 l 1,6,-1
 409 734 l 1,7,-1
 653 734 l 2,8,9
 701 734 701 734 732 746 c 128,-1,10
 763 758 763 758 782 781.5 c 128,-1,11
 801 805 801 805 810 838.5 c 128,-1,12
 819 872 819 872 825 916 c 1,13,-1
 863 916 l 1,14,-1
 863 465 l 1,15,-1
 825 465 l 1,16,17
 825 560 825 560 788 606.5 c 128,-1,18
 751 653 751 653 653 653 c 2,19,-1
 409 653 l 1,20,-1
 409 234 l 2,21,22
 409 173 409 173 415 134.5 c 128,-1,23
 421 96 421 96 441 74.5 c 128,-1,24
 461 53 461 53 499.5 45.5 c 128,-1,25
 538 38 538 38 602 38 c 1,26,-1
 602 0 l 1,27,-1
 32 0 l 1,28,-1
 32 38 l 1,29,30
 96 38 96 38 134 46.5 c 128,-1,31
 172 55 172 55 191.5 76 c 128,-1,32
 211 97 211 97 216 135.5 c 128,-1,33
 221 174 221 174 221 234 c 2,34,-1
 221 1094 l 2,35,36
 221 1154 221 1154 215 1192.5 c 128,-1,37
 209 1231 209 1231 189.5 1253.5 c 128,-1,38
 170 1276 170 1276 132.5 1284.5 c 128,-1,39
 95 1293 95 1293 32 1293 c 1,40,-1
 32 1328 l 1,41,-1
 1022 1328 l 1,42,-1
 1036 1039 l 1,43,-1
 1001 1039 l 1,0,1
EndSplineSet
EndChar

StartChar: G
Encoding: 71 71 42
Width: 1447
GlyphClass: 2
LayerCount: 2
Fore
SplineSet
1422 689 m 1,0,1
 1367 689 1367 689 1337.5 676 c 128,-1,2
 1308 663 1308 663 1293.5 638.5 c 128,-1,3
 1279 614 1279 614 1276 577.5 c 128,-1,4
 1273 541 1273 541 1273 495 c 2,5,-1
 1273 88 l 1,6,7
 1166 26 1166 26 1047 -3 c 128,-1,8
 928 -32 928 -32 803 -32 c 0,9,10
 651 -32 651 -32 517 13 c 128,-1,11
 383 58 383 58 284 144.5 c 128,-1,12
 185 231 185 231 127 357.5 c 128,-1,13
 69 484 69 484 69 645 c 0,14,15
 69 793 69 793 123 923 c 128,-1,16
 177 1053 177 1053 272 1150 c 128,-1,17
 367 1247 367 1247 496 1302 c 128,-1,18
 625 1357 625 1357 775 1357 c 0,19,20
 850 1357 850 1357 914.5 1344 c 128,-1,21
 979 1331 979 1331 1027.5 1316 c 128,-1,22
 1076 1301 1076 1301 1106.5 1288 c 128,-1,23
 1137 1275 1137 1275 1148 1275 c 0,24,25
 1161 1275 1161 1275 1170.5 1285 c 128,-1,26
 1180 1295 1180 1295 1186 1308 c 128,-1,27
 1192 1321 1192 1321 1194.5 1334.5 c 128,-1,28
 1197 1348 1197 1348 1198 1357 c 1,29,-1
 1232 1357 l 1,30,-1
 1267 940 l 1,31,-1
 1232 940 l 1,32,33
 1206 1019 1206 1019 1167 1084 c 128,-1,34
 1128 1149 1128 1149 1075 1195 c 128,-1,35
 1022 1241 1022 1241 951.5 1266 c 128,-1,36
 881 1291 881 1291 793 1291 c 0,37,38
 663 1291 663 1291 569.5 1240 c 128,-1,39
 476 1189 476 1189 415 1104.5 c 128,-1,40
 354 1020 354 1020 324.5 911 c 128,-1,41
 295 802 295 802 295 686 c 256,42,43
 295 570 295 570 325.5 454.5 c 128,-1,44
 356 339 356 339 419 246 c 128,-1,45
 482 153 482 153 578.5 95.5 c 128,-1,46
 675 38 675 38 807 38 c 0,47,48
 878 38 878 38 948 55.5 c 128,-1,49
 1018 73 1018 73 1080 109 c 1,50,-1
 1080 495 l 2,51,52
 1080 550 1080 550 1075 586.5 c 128,-1,53
 1070 623 1070 623 1051.5 645 c 128,-1,54
 1033 667 1033 667 999.5 676.5 c 128,-1,55
 966 686 966 686 907 689 c 1,56,-1
 907 724 l 1,57,-1
 1422 724 l 1,58,-1
 1422 689 l 1,0,1
EndSplineSet
EndChar

StartChar: H
Encoding: 72 72 43
Width: 1447
GlyphClass: 2
LayerCount: 2
Fore
SplineSet
838 0 m 1,0,-1
 838 38 l 1,1,2
 900 38 900 38 938.5 46.5 c 128,-1,3
 977 55 977 55 997.5 76 c 128,-1,4
 1018 97 1018 97 1024.5 135.5 c 128,-1,5
 1031 174 1031 174 1031 234 c 2,6,-1
 1031 642 l 1,7,-1
 409 642 l 1,8,-1
 409 234 l 2,9,10
 409 173 409 173 415.5 134.5 c 128,-1,11
 422 96 422 96 443 74.5 c 128,-1,12
 464 53 464 53 502.5 45.5 c 128,-1,13
 541 38 541 38 604 38 c 1,14,-1
 604 0 l 1,15,-1
 35 0 l 1,16,-1
 35 38 l 1,17,18
 99 38 99 38 136.5 45.5 c 128,-1,19
 174 53 174 53 193.5 74.5 c 128,-1,20
 213 96 213 96 218.5 134.5 c 128,-1,21
 224 173 224 173 224 234 c 2,22,-1
 224 1094 l 2,23,24
 224 1155 224 1155 218 1193.5 c 128,-1,25
 212 1232 212 1232 192.5 1254 c 128,-1,26
 173 1276 173 1276 135 1284.5 c 128,-1,27
 97 1293 97 1293 35 1293 c 1,28,-1
 35 1328 l 1,29,-1
 604 1328 l 1,30,-1
 604 1293 l 1,31,32
 542 1293 542 1293 504.5 1284.5 c 128,-1,33
 467 1276 467 1276 445.5 1254 c 128,-1,34
 424 1232 424 1232 416.5 1194 c 128,-1,35
 409 1156 409 1156 409 1094 c 2,36,-1
 409 714 l 1,37,-1
 1031 714 l 1,38,-1
 1031 1094 l 2,39,40
 1031 1155 1031 1155 1024.5 1193.5 c 128,-1,41
 1018 1232 1018 1232 997.5 1254 c 128,-1,42
 977 1276 977 1276 939 1284.5 c 128,-1,43
 901 1293 901 1293 838 1293 c 1,44,-1
 838 1328 l 1,45,-1
 1408 1328 l 1,46,-1
 1408 1293 l 1,47,48
 1350 1293 1350 1293 1313 1286 c 128,-1,49
 1276 1279 1276 1279 1255.5 1259.5 c 128,-1,50
 1235 1240 1235 1240 1228 1204.5 c 128,-1,51
 1221 1169 1221 1169 1221 1110 c 2,52,-1
 1221 221 l 2,53,54
 1221 161 1221 161 1228 124.5 c 128,-1,55
 1235 88 1235 88 1255.5 68.5 c 128,-1,56
 1276 49 1276 49 1312.5 43.5 c 128,-1,57
 1349 38 1349 38 1408 38 c 1,58,-1
 1408 0 l 1,59,-1
 838 0 l 1,0,-1
EndSplineSet
EndChar

StartChar: I
Encoding: 73 73 44
Width: 668
GlyphClass: 2
LayerCount: 2
Fore
SplineSet
51 0 m 1,0,-1
 51 38 l 1,1,2
 115 38 115 38 152.5 46.5 c 128,-1,3
 190 55 190 55 209.5 76 c 128,-1,4
 229 97 229 97 234 135.5 c 128,-1,5
 239 174 239 174 239 234 c 2,6,-1
 239 1094 l 2,7,8
 239 1155 239 1155 234 1193.5 c 128,-1,9
 229 1232 229 1232 209.5 1254 c 128,-1,10
 190 1276 190 1276 152 1284.5 c 128,-1,11
 114 1293 114 1293 51 1293 c 1,12,-1
 51 1328 l 1,13,-1
 620 1328 l 1,14,-1
 620 1293 l 1,15,16
 558 1293 558 1293 520 1284.5 c 128,-1,17
 482 1276 482 1276 462 1254 c 128,-1,18
 442 1232 442 1232 435.5 1194 c 128,-1,19
 429 1156 429 1156 429 1094 c 2,20,-1
 429 234 l 2,21,22
 429 174 429 174 435 135.5 c 128,-1,23
 441 97 441 97 460.5 76 c 128,-1,24
 480 55 480 55 517.5 46.5 c 128,-1,25
 555 38 555 38 620 38 c 1,26,-1
 620 0 l 1,27,-1
 51 0 l 1,0,-1
EndSplineSet
EndChar

StartChar: J
Encoding: 74 74 45
Width: 782
GlyphClass: 2
LayerCount: 2
Fore
SplineSet
769 1293 m 1,0,1
 705 1293 705 1293 667.5 1284.5 c 128,-1,2
 630 1276 630 1276 610.5 1254 c 128,-1,3
 591 1232 591 1232 585.5 1194 c 128,-1,4
 580 1156 580 1156 580 1094 c 2,5,-1
 580 445 l 2,6,7
 580 362 580 362 564.5 277 c 128,-1,8
 549 192 549 192 510 123.5 c 128,-1,9
 471 55 471 55 405 11.5 c 128,-1,10
 339 -32 339 -32 239 -32 c 0,11,12
 205 -32 205 -32 170 -24 c 128,-1,13
 135 -16 135 -16 107 3 c 128,-1,14
 79 22 79 22 61 50.5 c 128,-1,15
 43 79 43 79 43 120 c 0,16,17
 43 221 43 221 142 221 c 0,18,19
 182 221 182 221 205.5 193 c 128,-1,20
 229 165 229 165 246 130.5 c 128,-1,21
 263 96 263 96 278.5 68 c 128,-1,22
 294 40 294 40 320 40 c 256,23,24
 346 40 346 40 360 56.5 c 128,-1,25
 374 73 374 73 381.5 95.5 c 128,-1,26
 389 118 389 118 390 143 c 128,-1,27
 391 168 391 168 391 186 c 2,28,-1
 391 1094 l 2,29,30
 391 1154 391 1154 385.5 1192.5 c 128,-1,31
 380 1231 380 1231 360.5 1253.5 c 128,-1,32
 341 1276 341 1276 303 1284.5 c 128,-1,33
 265 1293 265 1293 200 1293 c 1,34,-1
 200 1328 l 1,35,-1
 769 1328 l 1,36,-1
 769 1293 l 1,0,1
EndSplineSet
EndChar

StartChar: K
Encoding: 75 75 46
Width: 1447
GlyphClass: 2
LayerCount: 2
Fore
SplineSet
833 0 m 1,0,-1
 833 38 l 1,1,2
 850 38 850 38 869.5 40.5 c 128,-1,3
 889 43 889 43 905.5 50 c 128,-1,4
 922 57 922 57 932 70 c 128,-1,5
 942 83 942 83 942 104 c 0,6,7
 942 114 942 114 933.5 129 c 128,-1,8
 925 144 925 144 913 159 c 128,-1,9
 901 174 901 174 888.5 187 c 128,-1,10
 876 200 876 200 868 208 c 2,11,-1
 468 607 l 1,12,-1
 409 549 l 1,13,-1
 409 234 l 2,14,15
 409 173 409 173 415 134.5 c 128,-1,16
 421 96 421 96 441 74.5 c 128,-1,17
 461 53 461 53 499 45.5 c 128,-1,18
 537 38 537 38 599 38 c 1,19,-1
 599 0 l 1,20,-1
 35 0 l 1,21,-1
 35 38 l 1,22,23
 99 38 99 38 136 45.5 c 128,-1,24
 173 53 173 53 192 74.5 c 128,-1,25
 211 96 211 96 216 134.5 c 128,-1,26
 221 173 221 173 221 234 c 2,27,-1
 221 1094 l 2,28,29
 221 1154 221 1154 216 1192.5 c 128,-1,30
 211 1231 211 1231 192 1253.5 c 128,-1,31
 173 1276 173 1276 136 1284.5 c 128,-1,32
 99 1293 99 1293 35 1293 c 1,33,-1
 35 1328 l 1,34,-1
 599 1328 l 1,35,-1
 599 1293 l 1,36,37
 538 1293 538 1293 501 1284.5 c 128,-1,38
 464 1276 464 1276 443 1254 c 128,-1,39
 422 1232 422 1232 415.5 1194 c 128,-1,40
 409 1156 409 1156 409 1094 c 2,41,-1
 409 676 l 1,42,43
 536 796 536 796 633 887.5 c 128,-1,44
 730 979 730 979 794.5 1046.5 c 128,-1,45
 859 1114 859 1114 891.5 1161 c 128,-1,46
 924 1208 924 1208 924 1237 c 0,47,48
 924 1256 924 1256 914.5 1267.5 c 128,-1,49
 905 1279 905 1279 888.5 1285 c 128,-1,50
 872 1291 872 1291 850 1292 c 128,-1,51
 828 1293 828 1293 803 1293 c 1,52,-1
 803 1328 l 1,53,-1
 1293 1328 l 1,54,-1
 1293 1293 l 1,55,56
 1241 1293 1241 1293 1193.5 1273.5 c 128,-1,57
 1146 1254 1146 1254 1091 1212 c 128,-1,58
 1036 1170 1036 1170 967 1103 c 128,-1,59
 898 1036 898 1036 803 941 c 2,60,-1
 599 737 l 1,61,-1
 1092 251 l 2,62,63
 1135 208 1135 208 1176 171.5 c 128,-1,64
 1217 135 1217 135 1260.5 107 c 128,-1,65
 1304 79 1304 79 1354 61 c 128,-1,66
 1404 43 1404 43 1466 38 c 1,67,-1
 1466 0 l 1,68,-1
 833 0 l 1,0,-1
EndSplineSet
EndChar

StartChar: L
Encoding: 76 76 47
Width: 1224
GlyphClass: 2
LayerCount: 2
Fore
SplineSet
1070 0 m 1,0,-1
 38 0 l 1,1,-1
 38 38 l 1,2,3
 85 38 85 38 121 43.5 c 128,-1,4
 157 49 157 49 181 66.5 c 128,-1,5
 205 84 205 84 218 116.5 c 128,-1,6
 231 149 231 149 231 203 c 2,7,-1
 231 1126 l 2,8,9
 231 1178 231 1178 218 1210.5 c 128,-1,10
 205 1243 205 1243 181 1260.5 c 128,-1,11
 157 1278 157 1278 120.5 1284.5 c 128,-1,12
 84 1291 84 1291 38 1291 c 1,13,-1
 38 1328 l 1,14,-1
 615 1328 l 1,15,-1
 615 1291 l 1,16,17
 567 1291 567 1291 530.5 1284.5 c 128,-1,18
 494 1278 494 1278 469.5 1260.5 c 128,-1,19
 445 1243 445 1243 432 1210.5 c 128,-1,20
 419 1178 419 1178 419 1126 c 2,21,-1
 419 251 l 2,22,23
 419 202 419 202 426.5 170 c 128,-1,24
 434 138 434 138 453 119 c 128,-1,25
 472 100 472 100 504.5 93 c 128,-1,26
 537 86 537 86 586 86 c 2,27,-1
 719 86 l 2,28,29
 815 86 815 86 880 97 c 128,-1,30
 945 108 945 108 992.5 138.5 c 128,-1,31
 1040 169 1040 169 1076.5 224 c 128,-1,32
 1113 279 1113 279 1150 368 c 1,33,-1
 1184 363 l 1,34,-1
 1070 0 l 1,0,-1
EndSplineSet
EndChar

StartChar: M
Encoding: 77 77 48
Width: 1785
GlyphClass: 2
LayerCount: 2
Fore
SplineSet
1176 0 m 1,0,-1
 1176 38 l 1,1,2
 1238 38 1238 38 1275.5 45.5 c 128,-1,3
 1313 53 1313 53 1333 74.5 c 128,-1,4
 1353 96 1353 96 1359.5 134 c 128,-1,5
 1366 172 1366 172 1366 231 c 2,6,-1
 1366 1118 l 1,7,-1
 851 0 l 1,8,-1
 820 0 l 1,9,-1
 307 1118 l 1,10,-1
 307 231 l 2,11,12
 307 170 307 170 313.5 132.5 c 128,-1,13
 320 95 320 95 339.5 73.5 c 128,-1,14
 359 52 359 52 396 45 c 128,-1,15
 433 38 433 38 495 38 c 1,16,-1
 495 0 l 1,17,-1
 35 0 l 1,18,-1
 35 38 l 1,19,20
 97 38 97 38 133.5 45.5 c 128,-1,21
 170 53 170 53 189.5 74.5 c 128,-1,22
 209 96 209 96 215 134 c 128,-1,23
 221 172 221 172 221 231 c 2,24,-1
 221 1100 l 2,25,26
 221 1153 221 1153 212.5 1190 c 128,-1,27
 204 1227 204 1227 183 1250 c 128,-1,28
 162 1273 162 1273 126.5 1283 c 128,-1,29
 91 1293 91 1293 35 1293 c 1,30,-1
 35 1328 l 1,31,-1
 409 1328 l 1,32,-1
 892 290 l 1,33,-1
 1366 1328 l 1,34,-1
 1743 1328 l 1,35,-1
 1743 1293 l 1,36,37
 1681 1293 1681 1293 1643 1285.5 c 128,-1,38
 1605 1278 1605 1278 1585.5 1256.5 c 128,-1,39
 1566 1235 1566 1235 1560.5 1197 c 128,-1,40
 1555 1159 1555 1159 1555 1100 c 2,41,-1
 1555 231 l 2,42,43
 1555 170 1555 170 1561.5 132.5 c 128,-1,44
 1568 95 1568 95 1587.5 73.5 c 128,-1,45
 1607 52 1607 52 1644 45 c 128,-1,46
 1681 38 1681 38 1743 38 c 1,47,-1
 1743 0 l 1,48,-1
 1176 0 l 1,0,-1
EndSplineSet
EndChar

StartChar: N
Encoding: 78 78 49
Width: 1447
GlyphClass: 2
LayerCount: 2
Fore
SplineSet
1422 1293 m 1,0,1
 1360 1293 1360 1293 1322 1285.5 c 128,-1,2
 1284 1278 1284 1278 1264 1256.5 c 128,-1,3
 1244 1235 1244 1235 1238 1197 c 128,-1,4
 1232 1159 1232 1159 1232 1100 c 2,5,-1
 1232 -21 l 1,6,-1
 1198 -21 l 1,7,-1
 320 1049 l 1,8,-1
 320 231 l 2,9,10
 320 169 320 169 325.5 131.5 c 128,-1,11
 331 94 331 94 350.5 73 c 128,-1,12
 370 52 370 52 408 45 c 128,-1,13
 446 38 446 38 508 38 c 1,14,-1
 508 0 l 1,15,-1
 45 0 l 1,16,-1
 45 38 l 1,17,18
 107 38 107 38 144.5 45.5 c 128,-1,19
 182 53 182 53 201.5 74.5 c 128,-1,20
 221 96 221 96 227.5 134 c 128,-1,21
 234 172 234 172 234 231 c 2,22,-1
 234 1156 l 1,23,24
 209 1190 209 1190 187.5 1215 c 128,-1,25
 166 1240 166 1240 142 1257.5 c 128,-1,26
 118 1275 118 1275 86.5 1284 c 128,-1,27
 55 1293 55 1293 10 1293 c 1,28,-1
 10 1328 l 1,29,-1
 335 1328 l 1,30,-1
 1148 333 l 1,31,-1
 1148 1100 l 2,32,33
 1148 1160 1148 1160 1141.5 1197.5 c 128,-1,34
 1135 1235 1135 1235 1114.5 1256.5 c 128,-1,35
 1094 1278 1094 1278 1057 1285.5 c 128,-1,36
 1020 1293 1020 1293 958 1293 c 1,37,-1
 958 1328 l 1,38,-1
 1422 1328 l 1,39,-1
 1422 1293 l 1,0,1
EndSplineSet
EndChar

StartChar: O
Encoding: 79 79 50
Width: 1447
GlyphClass: 2
LayerCount: 2
Fore
SplineSet
1371 671 m 0,0,1
 1371 529 1371 529 1324.5 401.5 c 128,-1,2
 1278 274 1278 274 1192.5 177.5 c 128,-1,3
 1107 81 1107 81 987 24.5 c 128,-1,4
 867 -32 867 -32 719 -32 c 256,5,6
 571 -32 571 -32 450.5 23.5 c 128,-1,7
 330 79 330 79 245 174.5 c 128,-1,8
 160 270 160 270 114.5 397.5 c 128,-1,9
 69 525 69 525 69 668 c 0,10,11
 69 812 69 812 117.5 937.5 c 128,-1,12
 166 1063 166 1063 254.5 1156 c 128,-1,13
 343 1249 343 1249 465.5 1303 c 128,-1,14
 588 1357 588 1357 734 1357 c 0,15,16
 878 1357 878 1357 995.5 1302 c 128,-1,17
 1113 1247 1113 1247 1196.5 1152.5 c 128,-1,18
 1280 1058 1280 1058 1325.5 933.5 c 128,-1,19
 1371 809 1371 809 1371 671 c 0,0,1
1148 658 m 0,20,21
 1148 731 1148 731 1140.5 806 c 128,-1,22
 1133 881 1133 881 1115 951.5 c 128,-1,23
 1097 1022 1097 1022 1066 1083 c 128,-1,24
 1035 1144 1035 1144 986.5 1189.5 c 128,-1,25
 938 1235 938 1235 870.5 1261.5 c 128,-1,26
 803 1288 803 1288 714 1288 c 0,27,28
 631 1288 631 1288 567.5 1261.5 c 128,-1,29
 504 1235 504 1235 457.5 1189.5 c 128,-1,30
 411 1144 411 1144 379.5 1083 c 128,-1,31
 348 1022 348 1022 329.5 953.5 c 128,-1,32
 311 885 311 885 303 813 c 128,-1,33
 295 741 295 741 295 673 c 0,34,35
 295 607 295 607 303 534 c 128,-1,36
 311 461 311 461 330.5 391 c 128,-1,37
 350 321 350 321 381 257.5 c 128,-1,38
 412 194 412 194 459 145.5 c 128,-1,39
 506 97 506 97 569.5 68.5 c 128,-1,40
 633 40 633 40 716 40 c 0,41,42
 803 40 803 40 869 66 c 128,-1,43
 935 92 935 92 983 137 c 128,-1,44
 1031 182 1031 182 1062.5 242.5 c 128,-1,45
 1094 303 1094 303 1113 371 c 128,-1,46
 1132 439 1132 439 1140 513 c 128,-1,47
 1148 587 1148 587 1148 658 c 0,20,21
EndSplineSet
MultipleSubs2: "Multiple Substitution lookup 39 subtable" O p e n T y p e
Ligature2: "Ligature Substitution lookup 38 subtable" U n k n o w n
EndChar

StartChar: P
Encoding: 80 80 51
Width: 1117
GlyphClass: 2
LayerCount: 2
Fore
SplineSet
1046 961 m 0,0,1
 1046 853 1046 853 1009 782 c 128,-1,2
 972 711 972 711 908.5 669.5 c 128,-1,3
 845 628 845 628 760 611 c 128,-1,4
 675 594 675 594 580 594 c 0,5,6
 538 594 538 594 496 596.5 c 128,-1,7
 454 599 454 599 409 604 c 1,8,-1
 409 234 l 2,9,10
 409 173 409 173 416.5 134.5 c 128,-1,11
 424 96 424 96 444 74.5 c 128,-1,12
 464 53 464 53 501.5 45.5 c 128,-1,13
 539 38 539 38 602 38 c 1,14,-1
 602 0 l 1,15,-1
 35 0 l 1,16,-1
 35 38 l 1,17,18
 97 38 97 38 134.5 45.5 c 128,-1,19
 172 53 172 53 191.5 74.5 c 128,-1,20
 211 96 211 96 216 134.5 c 128,-1,21
 221 173 221 173 221 234 c 2,22,-1
 221 1094 l 2,23,24
 221 1156 221 1156 216 1195 c 128,-1,25
 211 1234 211 1234 192 1256 c 128,-1,26
 173 1278 173 1278 136 1285.5 c 128,-1,27
 99 1293 99 1293 35 1293 c 1,28,-1
 35 1328 l 1,29,-1
 519 1328 l 2,30,31
 609 1328 609 1328 703 1312.5 c 128,-1,32
 797 1297 797 1297 873 1256 c 128,-1,33
 949 1215 949 1215 997.5 1144 c 128,-1,34
 1046 1073 1046 1073 1046 961 c 0,0,1
823 942 m 0,35,36
 823 1006 823 1006 804 1062.5 c 128,-1,37
 785 1119 785 1119 749.5 1160.5 c 128,-1,38
 714 1202 714 1202 661 1227 c 128,-1,39
 608 1252 608 1252 541 1252 c 0,40,41
 509 1252 509 1252 475.5 1245.5 c 128,-1,42
 442 1239 442 1239 409 1232 c 1,43,-1
 409 671 l 1,44,45
 449 665 449 665 489.5 661.5 c 128,-1,46
 530 658 530 658 572 658 c 0,47,48
 630 658 630 658 676.5 682 c 128,-1,49
 723 706 723 706 755.5 745.5 c 128,-1,50
 788 785 788 785 805.5 836 c 128,-1,51
 823 887 823 887 823 942 c 0,35,36
EndSplineSet
EndChar

StartChar: Q
Encoding: 81 81 52
Width: 1447
GlyphClass: 2
LayerCount: 2
Fore
SplineSet
1371 663 m 0,0,1
 1371 545 1371 545 1337.5 437.5 c 128,-1,2
 1304 330 1304 330 1241 241.5 c 128,-1,3
 1178 153 1178 153 1087.5 87.5 c 128,-1,4
 997 22 997 22 884 -13 c 1,5,6
 924 -82 924 -82 973.5 -142.5 c 128,-1,7
 1023 -203 1023 -203 1082 -249.5 c 128,-1,8
 1141 -296 1141 -296 1212 -325.5 c 128,-1,9
 1283 -355 1283 -355 1366 -363 c 1,10,-1
 1366 -394 l 1,11,12
 1258 -389 1258 -389 1143.5 -358.5 c 128,-1,13
 1029 -328 1029 -328 920 -277.5 c 128,-1,14
 811 -227 811 -227 714 -159.5 c 128,-1,15
 617 -92 617 -92 546 -13 c 1,16,17
 304 71 304 71 186 241 c 0,18,19
 69 412 69 412 69 666 c 0,20,21
 69 810 69 810 117 936 c 128,-1,22
 165 1062 165 1062 253 1155.5 c 128,-1,23
 341 1249 341 1249 462.5 1303 c 128,-1,24
 584 1357 584 1357 732 1357 c 0,25,26
 878 1357 878 1357 996 1301 c 128,-1,27
 1114 1245 1114 1245 1197 1149.5 c 128,-1,28
 1280 1054 1280 1054 1325.5 928.5 c 128,-1,29
 1371 803 1371 803 1371 663 c 0,0,1
1148 640 m 0,30,31
 1148 710 1148 710 1140 784.5 c 128,-1,32
 1132 859 1132 859 1113 931 c 128,-1,33
 1094 1003 1094 1003 1062.5 1067.5 c 128,-1,34
 1031 1132 1031 1132 983.5 1180 c 128,-1,35
 936 1228 936 1228 870.5 1257 c 128,-1,36
 805 1286 805 1286 719 1286 c 256,37,38
 633 1286 633 1286 568.5 1259 c 128,-1,39
 504 1232 504 1232 457.5 1186 c 128,-1,40
 411 1140 411 1140 379.5 1079 c 128,-1,41
 348 1018 348 1018 329.5 949 c 128,-1,42
 311 880 311 880 303 807 c 128,-1,43
 295 734 295 734 295 666 c 128,-1,44
 295 598 295 598 303 525 c 128,-1,45
 311 452 311 452 330.5 382.5 c 128,-1,46
 350 313 350 313 381.5 250.5 c 128,-1,47
 413 188 413 188 460 141 c 128,-1,48
 507 94 507 94 570.5 66 c 128,-1,49
 634 38 634 38 719 38 c 0,50,51
 845 38 845 38 928 92.5 c 128,-1,52
 1011 147 1011 147 1060 233.5 c 128,-1,53
 1109 320 1109 320 1128.5 427.5 c 128,-1,54
 1148 535 1148 535 1148 640 c 0,30,31
EndSplineSet
EndChar

StartChar: R
Encoding: 82 82 53
Width: 1338
GlyphClass: 2
LayerCount: 2
Fore
SplineSet
1001 0 m 1,0,-1
 551 620 l 1,1,2
 513 616 513 616 473 616 c 0,3,4
 456 616 456 616 440.5 616.5 c 128,-1,5
 425 617 425 617 409 619 c 1,6,-1
 409 234 l 2,7,8
 409 173 409 173 416.5 134.5 c 128,-1,9
 424 96 424 96 444.5 74.5 c 128,-1,10
 465 53 465 53 503.5 45.5 c 128,-1,11
 542 38 542 38 604 38 c 1,12,-1
 604 0 l 1,13,-1
 35 0 l 1,14,-1
 35 38 l 1,15,16
 99 38 99 38 136.5 45.5 c 128,-1,17
 174 53 174 53 193.5 74.5 c 128,-1,18
 213 96 213 96 218.5 134.5 c 128,-1,19
 224 173 224 173 224 234 c 2,20,-1
 224 1094 l 2,21,22
 224 1156 224 1156 218.5 1195 c 128,-1,23
 213 1234 213 1234 193.5 1256 c 128,-1,24
 174 1278 174 1278 136.5 1285.5 c 128,-1,25
 99 1293 99 1293 35 1293 c 1,26,-1
 35 1328 l 1,27,-1
 536 1328 l 2,28,29
 593 1328 593 1328 655 1324.5 c 128,-1,30
 717 1321 717 1321 776.5 1308 c 128,-1,31
 836 1295 836 1295 889 1272 c 128,-1,32
 942 1249 942 1249 982.5 1210.5 c 128,-1,33
 1023 1172 1023 1172 1046.5 1117.5 c 128,-1,34
 1070 1063 1070 1063 1070 988 c 0,35,36
 1070 911 1070 911 1045 854 c 128,-1,37
 1020 797 1020 797 976.5 756 c 128,-1,38
 933 715 933 715 873.5 688.5 c 128,-1,39
 814 662 814 662 745 647 c 1,40,-1
 1016 264 l 2,41,42
 1052 213 1052 213 1086 174 c 128,-1,43
 1120 135 1120 135 1159 106.5 c 128,-1,44
 1198 78 1198 78 1245.5 60.5 c 128,-1,45
 1293 43 1293 43 1357 38 c 1,46,-1
 1357 0 l 1,47,-1
 1001 0 l 1,0,-1
851 972 m 0,48,49
 851 1036 851 1036 830.5 1088 c 128,-1,50
 810 1140 810 1140 771.5 1177 c 128,-1,51
 733 1214 733 1214 680.5 1234 c 128,-1,52
 628 1254 628 1254 564 1254 c 0,53,54
 526 1254 526 1254 488 1249 c 128,-1,55
 450 1244 450 1244 409 1237 c 1,56,-1
 409 686 l 1,57,58
 418 685 418 685 433 684.5 c 128,-1,59
 448 684 448 684 465 684 c 0,60,61
 536 684 536 684 605.5 698 c 128,-1,62
 675 712 675 712 729.5 745.5 c 128,-1,63
 784 779 784 779 817.5 834 c 128,-1,64
 851 889 851 889 851 972 c 0,48,49
EndSplineSet
EndChar

StartChar: S
Encoding: 83 83 54
Width: 1115
GlyphClass: 2
LayerCount: 2
Fore
SplineSet
1009 341 m 0,0,1
 1009 254 1009 254 973.5 185 c 128,-1,2
 938 116 938 116 880.5 67.5 c 128,-1,3
 823 19 823 19 747.5 -6.5 c 128,-1,4
 672 -32 672 -32 591 -32 c 0,5,6
 538 -32 538 -32 485 -20 c 128,-1,7
 432 -8 432 -8 384.5 6.5 c 128,-1,8
 337 21 337 21 298 33 c 128,-1,9
 259 45 259 45 234 45 c 0,10,11
 218 45 218 45 207 38 c 128,-1,12
 196 31 196 31 189 19.5 c 128,-1,13
 182 8 182 8 178 -5.5 c 128,-1,14
 174 -19 174 -19 173 -32 c 1,15,-1
 138 -32 l 1,16,-1
 138 426 l 1,17,-1
 173 426 l 1,18,19
 183 342 183 342 213 271.5 c 128,-1,20
 243 201 243 201 292.5 151 c 128,-1,21
 342 101 342 101 411.5 73 c 128,-1,22
 481 45 481 45 569 45 c 0,23,24
 617 45 617 45 664.5 59 c 128,-1,25
 712 73 712 73 749 100 c 128,-1,26
 786 127 786 127 809.5 168 c 128,-1,27
 833 209 833 209 833 264 c 0,28,29
 833 321 833 321 802.5 367 c 128,-1,30
 772 413 772 413 722.5 453 c 128,-1,31
 673 493 673 493 609.5 528.5 c 128,-1,32
 546 564 546 564 480.5 600.5 c 128,-1,33
 415 637 415 637 351 677 c 128,-1,34
 287 717 287 717 237.5 766 c 128,-1,35
 188 815 188 815 157.5 874 c 128,-1,36
 127 933 127 933 127 1009 c 0,37,38
 127 1091 127 1091 159 1155 c 128,-1,39
 191 1219 191 1219 244.5 1264 c 128,-1,40
 298 1309 298 1309 367.5 1333 c 128,-1,41
 437 1357 437 1357 513 1357 c 0,42,43
 557 1357 557 1357 603 1345.5 c 128,-1,44
 649 1334 649 1334 689.5 1320 c 128,-1,45
 730 1306 730 1306 764 1294.5 c 128,-1,46
 798 1283 798 1283 820 1283 c 0,47,48
 836 1283 836 1283 846.5 1291 c 128,-1,49
 857 1299 857 1299 864.5 1310 c 128,-1,50
 872 1321 872 1321 876.5 1334 c 128,-1,51
 881 1347 881 1347 884 1357 c 1,52,-1
 922 1357 l 1,53,-1
 922 899 l 1,54,-1
 884 899 l 1,55,56
 878 977 878 977 850.5 1047 c 128,-1,57
 823 1117 823 1117 776.5 1168 c 128,-1,58
 730 1219 730 1219 664.5 1249.5 c 128,-1,59
 599 1280 599 1280 516 1280 c 0,60,61
 472 1280 472 1280 430.5 1266 c 128,-1,62
 389 1252 389 1252 355.5 1225 c 128,-1,63
 322 1198 322 1198 302 1161 c 128,-1,64
 282 1124 282 1124 282 1078 c 0,65,66
 282 1023 282 1023 313 979 c 128,-1,67
 344 935 344 935 395.5 897 c 128,-1,68
 447 859 447 859 512 824.5 c 128,-1,69
 577 790 577 790 645.5 754.5 c 128,-1,70
 714 719 714 719 779 678.5 c 128,-1,71
 844 638 844 638 895 588.5 c 128,-1,72
 946 539 946 539 977.5 479 c 128,-1,73
 1009 419 1009 419 1009 341 c 0,0,1
EndSplineSet
EndChar

StartChar: T
Encoding: 84 84 55
Width: 1221
GlyphClass: 2
LayerCount: 2
Fore
SplineSet
1133 1016 m 1,0,1
 1121 1129 1121 1129 1064 1187 c 128,-1,2
 1007 1245 1007 1245 889 1245 c 2,3,-1
 703 1245 l 1,4,-1
 703 231 l 2,5,6
 703 170 703 170 708.5 132.5 c 128,-1,7
 714 95 714 95 733.5 73.5 c 128,-1,8
 753 52 753 52 790 45 c 128,-1,9
 827 38 827 38 889 38 c 1,10,-1
 889 0 l 1,11,-1
 328 0 l 1,12,-1
 328 38 l 1,13,14
 390 38 390 38 426.5 45.5 c 128,-1,15
 463 53 463 53 482.5 74.5 c 128,-1,16
 502 96 502 96 507.5 134 c 128,-1,17
 513 172 513 172 513 231 c 2,18,-1
 513 1245 l 1,19,-1
 354 1245 l 2,20,21
 292 1245 292 1245 245 1234 c 128,-1,22
 198 1223 198 1223 166 1197 c 128,-1,23
 134 1171 134 1171 116.5 1127 c 128,-1,24
 99 1083 99 1083 94 1016 c 1,25,-1
 48 1016 l 1,26,-1
 61 1328 l 1,27,-1
 1163 1328 l 1,28,-1
 1176 1016 l 1,29,-1
 1133 1016 l 1,0,1
EndSplineSet
EndChar

StartChar: U
Encoding: 85 85 56
Width: 1447
GlyphClass: 2
LayerCount: 2
Fore
SplineSet
1430 1293 m 1,0,1
 1370 1293 1370 1293 1332.5 1282 c 128,-1,2
 1295 1271 1295 1271 1274 1247 c 128,-1,3
 1253 1223 1253 1223 1245 1183.5 c 128,-1,4
 1237 1144 1237 1144 1237 1087 c 2,5,-1
 1237 546 l 2,6,7
 1237 410 1237 410 1212 302.5 c 128,-1,8
 1187 195 1187 195 1127.5 121 c 128,-1,9
 1068 47 1068 47 969.5 7.5 c 128,-1,10
 871 -32 871 -32 724 -32 c 0,11,12
 562 -32 562 -32 459.5 8 c 128,-1,13
 357 48 357 48 300 125.5 c 128,-1,14
 243 203 243 203 223 315.5 c 128,-1,15
 203 428 203 428 203 572 c 2,16,-1
 203 1094 l 2,17,18
 203 1149 203 1149 197.5 1186.5 c 128,-1,19
 192 1224 192 1224 174.5 1248.5 c 128,-1,20
 157 1273 157 1273 122.5 1283 c 128,-1,21
 88 1293 88 1293 30 1293 c 1,22,-1
 30 1328 l 1,23,-1
 564 1328 l 1,24,-1
 564 1293 l 1,25,26
 507 1293 507 1293 473 1283 c 128,-1,27
 439 1273 439 1273 421 1248.5 c 128,-1,28
 403 1224 403 1224 397 1186.5 c 128,-1,29
 391 1149 391 1149 391 1094 c 2,30,-1
 391 513 l 2,31,32
 391 421 391 421 403.5 337 c 128,-1,33
 416 253 416 253 453 190 c 128,-1,34
 490 127 490 127 558.5 90 c 128,-1,35
 627 53 627 53 737 53 c 0,36,37
 827 53 827 53 908.5 81.5 c 128,-1,38
 990 110 990 110 1057 173 c 0,39,40
 1089 203 1089 203 1107.5 251.5 c 128,-1,41
 1126 300 1126 300 1135 354 c 128,-1,42
 1144 408 1144 408 1146 461.5 c 128,-1,43
 1148 515 1148 515 1148 556 c 2,44,-1
 1148 1094 l 2,45,46
 1148 1156 1148 1156 1142 1195 c 128,-1,47
 1136 1234 1136 1234 1116 1256 c 128,-1,48
 1096 1278 1096 1278 1058 1285.5 c 128,-1,49
 1020 1293 1020 1293 958 1293 c 1,50,-1
 958 1328 l 1,51,-1
 1430 1328 l 1,52,-1
 1430 1293 l 1,0,1
EndSplineSet
EndChar

StartChar: V
Encoding: 86 86 57
Width: 1447
GlyphClass: 2
LayerCount: 2
Fore
SplineSet
1425 1293 m 1,0,1
 1383 1287 1383 1287 1352 1270 c 128,-1,2
 1321 1253 1321 1253 1297.5 1228.5 c 128,-1,3
 1274 1204 1274 1204 1257 1172 c 128,-1,4
 1240 1140 1240 1140 1224 1102 c 2,5,-1
 762 -32 l 1,6,-1
 727 -32 l 1,7,-1
 229 1115 l 2,8,9
 211 1157 211 1157 194 1188 c 128,-1,10
 177 1219 177 1219 154 1241 c 128,-1,11
 131 1263 131 1263 98.5 1275.5 c 128,-1,12
 66 1288 66 1288 18 1293 c 1,13,-1
 18 1328 l 1,14,-1
 559 1328 l 1,15,-1
 559 1293 l 1,16,17
 538 1292 538 1292 512.5 1288 c 128,-1,18
 487 1284 487 1284 464.5 1274.5 c 128,-1,19
 442 1265 442 1265 427 1247.5 c 128,-1,20
 412 1230 412 1230 412 1201 c 0,21,22
 412 1165 412 1165 425 1129.5 c 128,-1,23
 438 1094 438 1094 458 1049 c 2,24,-1
 795 272 l 1,25,-1
 1110 1044 l 2,26,27
 1115 1057 1115 1057 1123.5 1077 c 128,-1,28
 1132 1097 1132 1097 1138.5 1118.5 c 128,-1,29
 1145 1140 1145 1140 1150.5 1160 c 128,-1,30
 1156 1180 1156 1180 1156 1196 c 0,31,32
 1156 1222 1156 1222 1141 1239 c 128,-1,33
 1126 1256 1126 1256 1104.5 1267 c 128,-1,34
 1083 1278 1083 1278 1058 1283.5 c 128,-1,35
 1033 1289 1033 1289 1014 1293 c 1,36,-1
 1014 1328 l 1,37,-1
 1425 1328 l 1,38,-1
 1425 1293 l 1,0,1
EndSplineSet
EndChar

StartChar: W
Encoding: 87 87 58
Width: 1895
GlyphClass: 2
LayerCount: 2
Fore
SplineSet
1877 1293 m 1,0,1
 1839 1293 1839 1293 1811 1281 c 128,-1,2
 1783 1269 1783 1269 1761.5 1246 c 128,-1,3
 1740 1223 1740 1223 1723.5 1190.5 c 128,-1,4
 1707 1158 1707 1158 1694 1118 c 2,5,-1
 1301 -32 l 1,6,-1
 1260 -32 l 1,7,-1
 958 818 l 1,8,-1
 658 -32 l 1,9,-1
 620 -32 l 1,10,-1
 229 1072 l 2,11,12
 213 1115 213 1115 200 1155.5 c 128,-1,13
 187 1196 187 1196 166.5 1226.5 c 128,-1,14
 146 1257 146 1257 113.5 1275 c 128,-1,15
 81 1293 81 1293 26 1293 c 1,16,-1
 26 1328 l 1,17,-1
 516 1328 l 1,18,-1
 516 1293 l 1,19,20
 497 1293 497 1293 474 1290.5 c 128,-1,21
 451 1288 451 1288 432 1280.5 c 128,-1,22
 413 1273 413 1273 401 1257 c 128,-1,23
 389 1241 389 1241 389 1214 c 0,24,25
 389 1198 389 1198 393.5 1177.5 c 128,-1,26
 398 1157 398 1157 405 1135 c 128,-1,27
 412 1113 412 1113 419 1092 c 128,-1,28
 426 1071 426 1071 432 1057 c 2,29,-1
 691 309 l 1,30,-1
 912 945 l 1,31,32
 895 1007 895 1007 874 1069.5 c 128,-1,33
 853 1132 853 1132 823.5 1181.5 c 128,-1,34
 794 1231 794 1231 754 1262 c 128,-1,35
 714 1293 714 1293 658 1293 c 1,36,-1
 658 1328 l 1,37,-1
 1176 1328 l 1,38,-1
 1176 1293 l 1,39,40
 1151 1293 1151 1293 1126 1292 c 128,-1,41
 1101 1291 1101 1291 1081 1282.5 c 128,-1,42
 1061 1274 1061 1274 1048.5 1256.5 c 128,-1,43
 1036 1239 1036 1239 1036 1206 c 0,44,45
 1036 1166 1036 1166 1050.5 1117 c 128,-1,46
 1065 1068 1065 1068 1078 1033 c 2,47,-1
 1334 309 l 1,48,-1
 1587 1044 l 2,49,50
 1592 1060 1592 1060 1599.5 1080.5 c 128,-1,51
 1607 1101 1607 1101 1612.5 1123 c 128,-1,52
 1618 1145 1618 1145 1622 1166.5 c 128,-1,53
 1626 1188 1626 1188 1626 1204 c 0,54,55
 1626 1233 1626 1233 1612.5 1250 c 128,-1,56
 1599 1267 1599 1267 1577.5 1277 c 128,-1,57
 1556 1287 1556 1287 1531 1290 c 128,-1,58
 1506 1293 1506 1293 1483 1293 c 1,59,-1
 1483 1328 l 1,60,-1
 1877 1328 l 1,61,-1
 1877 1293 l 1,0,1
EndSplineSet
EndChar

StartChar: X
Encoding: 88 88 59
Width: 1447
GlyphClass: 2
LayerCount: 2
Fore
SplineSet
854 0 m 1,0,-1
 854 38 l 1,1,2
 872 38 872 38 895.5 40 c 128,-1,3
 919 42 919 42 939 49.5 c 128,-1,4
 959 57 959 57 973.5 72 c 128,-1,5
 988 87 988 87 988 112 c 0,6,7
 988 128 988 128 967 167.5 c 128,-1,8
 946 207 946 207 915 258 c 128,-1,9
 884 309 884 309 847 365 c 128,-1,10
 810 421 810 421 778 469 c 128,-1,11
 746 517 746 517 723.5 549.5 c 128,-1,12
 701 582 701 582 698 586 c 1,13,-1
 419 229 l 2,14,15
 411 219 411 219 400.5 204.5 c 128,-1,16
 390 190 390 190 381 174.5 c 128,-1,17
 372 159 372 159 365.5 142.5 c 128,-1,18
 359 126 359 126 359 112 c 0,19,20
 359 89 359 89 372 73.5 c 128,-1,21
 385 58 385 58 404.5 50.5 c 128,-1,22
 424 43 424 43 446 40.5 c 128,-1,23
 468 38 468 38 487 38 c 1,24,-1
 487 0 l 1,25,-1
 13 0 l 1,26,-1
 13 38 l 1,27,28
 52 38 52 38 92.5 53 c 128,-1,29
 133 68 133 68 172 93 c 128,-1,30
 211 118 211 118 246.5 151.5 c 128,-1,31
 282 185 282 185 312 221 c 2,32,-1
 658 655 l 1,33,-1
 394 1039 l 2,34,35
 359 1090 359 1090 324.5 1134.5 c 128,-1,36
 290 1179 290 1179 249 1213 c 128,-1,37
 208 1247 208 1247 158.5 1268 c 128,-1,38
 109 1289 109 1289 43 1293 c 1,39,-1
 43 1328 l 1,40,-1
 658 1328 l 1,41,-1
 658 1293 l 1,42,43
 640 1292 640 1292 615.5 1289 c 128,-1,44
 591 1286 591 1286 570 1278 c 128,-1,45
 549 1270 549 1270 534 1255 c 128,-1,46
 519 1240 519 1240 519 1217 c 0,47,48
 519 1199 519 1199 535.5 1164.5 c 128,-1,49
 552 1130 552 1130 577.5 1087.5 c 128,-1,50
 603 1045 603 1045 633.5 999.5 c 128,-1,51
 664 954 664 954 692 914.5 c 128,-1,52
 720 875 720 875 741.5 845.5 c 128,-1,53
 763 816 763 816 769 807 c 1,54,55
 774 813 774 813 799 842 c 128,-1,56
 824 871 824 871 857 911 c 128,-1,57
 890 951 890 951 927 998 c 128,-1,58
 964 1045 964 1045 995.5 1088.5 c 128,-1,59
 1027 1132 1027 1132 1047 1168 c 128,-1,60
 1067 1204 1067 1204 1067 1222 c 0,61,62
 1067 1245 1067 1245 1051 1259.5 c 128,-1,63
 1035 1274 1035 1274 1011.5 1281 c 128,-1,64
 988 1288 988 1288 964 1290 c 128,-1,65
 940 1292 940 1292 924 1293 c 1,66,-1
 924 1328 l 1,67,-1
 1395 1328 l 1,68,-1
 1395 1293 l 1,69,70
 1350 1290 1350 1290 1314.5 1279.5 c 128,-1,71
 1279 1269 1279 1269 1246.5 1246.5 c 128,-1,72
 1214 1224 1214 1224 1181.5 1190 c 128,-1,73
 1149 1156 1149 1156 1110 1106 c 2,74,-1
 818 737 l 1,75,-1
 1143 255 l 2,76,77
 1177 204 1177 204 1209 164.5 c 128,-1,78
 1241 125 1241 125 1274.5 97.5 c 128,-1,79
 1308 70 1308 70 1345 54.5 c 128,-1,80
 1382 39 1382 39 1425 38 c 1,81,-1
 1425 0 l 1,82,-1
 854 0 l 1,0,-1
EndSplineSet
EndChar

StartChar: Y
Encoding: 89 89 60
Width: 1447
GlyphClass: 2
LayerCount: 2
Fore
SplineSet
1422 1293 m 1,0,1
 1373 1293 1373 1293 1336.5 1280 c 128,-1,2
 1300 1267 1300 1267 1270 1243 c 128,-1,3
 1240 1219 1240 1219 1214 1185.5 c 128,-1,4
 1188 1152 1188 1152 1161 1109 c 2,5,-1
 812 564 l 1,6,-1
 812 231 l 2,7,8
 812 170 812 170 818.5 132.5 c 128,-1,9
 825 95 825 95 844.5 73.5 c 128,-1,10
 864 52 864 52 901 45 c 128,-1,11
 938 38 938 38 1001 38 c 1,12,-1
 1001 0 l 1,13,-1
 437 0 l 1,14,-1
 437 38 l 1,15,16
 499 38 499 38 535.5 45.5 c 128,-1,17
 572 53 572 53 591 74.5 c 128,-1,18
 610 96 610 96 615 134 c 128,-1,19
 620 172 620 172 620 231 c 2,20,-1
 620 546 l 1,21,-1
 259 1102 l 2,22,23
 238 1134 238 1134 214 1168 c 128,-1,24
 190 1202 190 1202 161.5 1230 c 128,-1,25
 133 1258 133 1258 97.5 1275.5 c 128,-1,26
 62 1293 62 1293 18 1293 c 1,27,-1
 18 1328 l 1,28,-1
 586 1328 l 1,29,-1
 586 1293 l 1,30,31
 565 1293 565 1293 538.5 1290.5 c 128,-1,32
 512 1288 512 1288 488.5 1279.5 c 128,-1,33
 465 1271 465 1271 449.5 1253.5 c 128,-1,34
 434 1236 434 1236 434 1206 c 0,35,36
 434 1187 434 1187 458 1139.5 c 128,-1,37
 482 1092 482 1092 519 1031.5 c 128,-1,38
 556 971 556 971 599 905.5 c 128,-1,39
 642 840 642 840 679 784.5 c 128,-1,40
 716 729 716 729 741.5 691.5 c 128,-1,41
 767 654 767 654 769 650 c 2,42,-1
 1033 1059 l 2,43,44
 1041 1072 1041 1072 1051.5 1089 c 128,-1,45
 1062 1106 1062 1106 1071 1125 c 128,-1,46
 1080 1144 1080 1144 1086 1163.5 c 128,-1,47
 1092 1183 1092 1183 1092 1198 c 0,48,49
 1092 1225 1092 1225 1079 1243.5 c 128,-1,50
 1066 1262 1066 1262 1046.5 1273 c 128,-1,51
 1027 1284 1027 1284 1003.5 1288.5 c 128,-1,52
 980 1293 980 1293 958 1293 c 1,53,-1
 958 1328 l 1,54,-1
 1422 1328 l 1,55,-1
 1422 1293 l 1,0,1
EndSplineSet
EndChar

StartChar: Z
Encoding: 90 90 61
Width: 1224
GlyphClass: 2
LayerCount: 2
Fore
SplineSet
1107 0 m 1,0,-1
 26 0 l 1,1,-1
 26 38 l 1,2,-1
 876 1252 l 1,3,-1
 452 1252 l 2,4,5
 378 1252 378 1252 330.5 1238 c 128,-1,6
 283 1224 283 1224 254 1194.5 c 128,-1,7
 225 1165 225 1165 208.5 1115.5 c 128,-1,8
 192 1066 192 1066 181 996 c 1,9,-1
 144 996 l 1,10,-1
 173 1328 l 1,11,-1
 1156 1328 l 1,12,-1
 282 79 l 1,13,-1
 825 79 l 2,14,15
 900 79 900 79 951.5 98 c 128,-1,16
 1003 117 1003 117 1037.5 152.5 c 128,-1,17
 1072 188 1072 188 1095.5 239.5 c 128,-1,18
 1119 291 1119 291 1140 356 c 1,19,-1
 1169 351 l 1,20,-1
 1107 0 l 1,0,-1
EndSplineSet
EndChar

StartChar: bracketleft
Encoding: 91 91 62
Width: 896
GlyphClass: 2
LayerCount: 2
Fore
SplineSet
610 -315 m 1,0,-1
 251 -261 l 1,1,-1
 251 1361 l 1,2,-1
 610 1413 l 1,3,-1
 628 1310 l 1,4,-1
 383 1273 l 1,5,-1
 383 -170 l 1,6,-1
 628 -211 l 1,7,-1
 610 -315 l 1,0,-1
EndSplineSet
EndChar

StartChar: backslash
Encoding: 92 92 63
Width: 558
GlyphClass: 2
LayerCount: 2
Fore
SplineSet
485 -30 m 1,0,-1
 3 1392 l 1,1,-1
 88 1392 l 1,2,-1
 564 -30 l 1,3,-1
 485 -30 l 1,0,-1
EndSplineSet
EndChar

StartChar: bracketright
Encoding: 93 93 64
Width: 896
GlyphClass: 2
LayerCount: 2
Fore
SplineSet
269 -320 m 1,0,-1
 244 -218 l 1,1,-1
 495 -178 l 1,2,-1
 495 1267 l 1,3,-1
 244 1308 l 1,4,-1
 269 1410 l 1,5,-1
 628 1357 l 1,6,-1
 628 -266 l 1,7,-1
 269 -320 l 1,0,-1
EndSplineSet
EndChar

StartChar: asciicircum
Encoding: 94 94 65
Width: 1930
GlyphClass: 2
LayerCount: 2
Fore
SplineSet
1349 18 m 1,0,-1
 966 1054 l 1,1,-1
 580 18 l 1,2,-1
 460 18 l 1,3,-1
 905 1176 l 1,4,-1
 1024 1176 l 1,5,-1
 1469 18 l 1,6,-1
 1349 18 l 1,0,-1
EndSplineSet
EndChar

StartChar: underscore
Encoding: 95 95 66
Width: 965
GlyphClass: 2
LayerCount: 2
Fore
SplineSet
0 -226 m 1,0,-1
 0 -155 l 1,1,-1
 966 -155 l 1,2,-1
 966 -226 l 1,3,-1
 0 -226 l 1,0,-1
EndSplineSet
EndChar

StartChar: grave
Encoding: 96 96 67
Width: 753
GlyphClass: 2
LayerCount: 2
Fore
SplineSet
487 1022 m 1,0,-1
 200 1204 l 2,1,2
 112 1259 112 1259 112 1291 c 0,3,4
 112 1366 112 1366 173 1366 c 0,5,6
 225 1366 225 1366 290 1301 c 2,7,-1
 569 1022 l 1,8,-1
 487 1022 l 1,0,-1
EndSplineSet
EndChar

StartChar: a
Encoding: 97 97 68
Width: 891
GlyphClass: 2
LayerCount: 2
Fore
SplineSet
889 130 m 1,0,1
 871 105 871 105 848 78.5 c 128,-1,2
 825 52 825 52 798.5 30.5 c 128,-1,3
 772 9 772 9 741 -4.5 c 128,-1,4
 710 -18 710 -18 676 -18 c 0,5,6
 645 -18 645 -18 624.5 -5 c 128,-1,7
 604 8 604 8 592.5 29.5 c 128,-1,8
 581 51 581 51 576.5 77 c 128,-1,9
 572 103 572 103 572 130 c 1,10,11
 540 104 540 104 507 78 c 128,-1,12
 474 52 474 52 439 30.5 c 128,-1,13
 404 9 404 9 366.5 -4.5 c 128,-1,14
 329 -18 329 -18 285 -18 c 0,15,16
 234 -18 234 -18 194.5 -0.5 c 128,-1,17
 155 17 155 17 127.5 48 c 128,-1,18
 100 79 100 79 85.5 121.5 c 128,-1,19
 71 164 71 164 71 213 c 0,20,21
 71 268 71 268 96.5 313.5 c 128,-1,22
 122 359 122 359 163.5 396.5 c 128,-1,23
 205 434 205 434 258.5 464.5 c 128,-1,24
 312 495 312 495 368 519 c 128,-1,25
 424 543 424 543 477 561.5 c 128,-1,26
 530 580 530 580 572 594 c 1,27,-1
 572 630 l 2,28,29
 572 675 572 675 566 717.5 c 128,-1,30
 560 760 560 760 542 793.5 c 128,-1,31
 524 827 524 827 491.5 846.5 c 128,-1,32
 459 866 459 866 404 866 c 0,33,34
 359 866 359 866 333 853.5 c 128,-1,35
 307 841 307 841 293 818 c 128,-1,36
 279 795 279 795 275.5 764.5 c 128,-1,37
 272 734 272 734 272 698 c 0,38,39
 272 654 272 654 255 629 c 128,-1,40
 238 604 238 604 188 604 c 0,41,42
 143 604 143 604 125 630 c 128,-1,43
 107 656 107 656 107 698 c 0,44,45
 107 759 107 759 139.5 802 c 128,-1,46
 172 845 172 845 220.5 872 c 128,-1,47
 269 899 269 899 326 911.5 c 128,-1,48
 383 924 383 924 434 924 c 0,49,50
 518 924 518 924 576 908 c 128,-1,51
 634 892 634 892 669 855 c 128,-1,52
 704 818 704 818 719 759.5 c 128,-1,53
 734 701 734 701 734 617 c 2,54,-1
 734 312 l 2,55,56
 734 293 734 293 734 270.5 c 128,-1,57
 734 248 734 248 735 226.5 c 128,-1,58
 736 205 736 205 736.5 186.5 c 128,-1,59
 737 168 737 168 740 155 c 0,60,61
 743 137 743 137 751.5 122 c 128,-1,62
 760 107 760 107 782 107 c 0,63,64
 792 107 792 107 808 116.5 c 128,-1,65
 824 126 824 126 839.5 139 c 128,-1,66
 855 152 855 152 869 165 c 128,-1,67
 883 178 883 178 889 186 c 1,68,-1
 889 130 l 1,0,1
572 538 m 1,69,70
 523 520 523 520 464.5 494 c 128,-1,71
 406 468 406 468 355 433.5 c 128,-1,72
 304 399 304 399 270.5 355.5 c 128,-1,73
 237 312 237 312 237 259 c 0,74,75
 237 229 237 229 246 200.5 c 128,-1,76
 255 172 255 172 273 148.5 c 128,-1,77
 291 125 291 125 316.5 110.5 c 128,-1,78
 342 96 342 96 376 96 c 0,79,80
 402 96 402 96 428 105 c 128,-1,81
 454 114 454 114 479 129 c 128,-1,82
 504 144 504 144 528 161.5 c 128,-1,83
 552 179 552 179 572 195 c 1,84,-1
 572 538 l 1,69,70
EndSplineSet
EndChar

StartChar: b
Encoding: 98 98 69
Width: 1003
GlyphClass: 2
LayerCount: 2
Fore
SplineSet
935 485 m 0,0,1
 935 386 935 386 901.5 293 c 128,-1,2
 868 200 868 200 807.5 128.5 c 128,-1,3
 747 57 747 57 661.5 13.5 c 128,-1,4
 576 -30 576 -30 471 -30 c 0,5,6
 381 -30 381 -30 298.5 4 c 128,-1,7
 216 38 216 38 144 88 c 1,8,-1
 144 1040 l 2,9,10
 144 1097 144 1097 143 1139.5 c 128,-1,11
 142 1182 142 1182 134.5 1209.5 c 128,-1,12
 127 1237 127 1237 113 1251 c 128,-1,13
 99 1265 99 1265 74 1265 c 0,14,15
 56 1265 56 1265 39.5 1260.5 c 128,-1,16
 23 1256 23 1256 5 1252 c 1,17,-1
 -8 1286 l 1,18,-1
 264 1392 l 1,19,-1
 309 1392 l 1,20,-1
 309 742 l 1,21,22
 334 777 334 777 364.5 809.5 c 128,-1,23
 395 842 395 842 430 867.5 c 128,-1,24
 465 893 465 893 505.5 908.5 c 128,-1,25
 546 924 546 924 591 924 c 0,26,27
 679 924 679 924 744.5 884.5 c 128,-1,28
 810 845 810 845 852 782 c 128,-1,29
 894 719 894 719 914.5 641 c 128,-1,30
 935 563 935 563 935 485 c 0,0,1
764 429 m 0,31,32
 764 485 764 485 751 548 c 128,-1,33
 738 611 738 611 707.5 663.5 c 128,-1,34
 677 716 677 716 629 750.5 c 128,-1,35
 581 785 581 785 511 785 c 0,36,37
 482 785 482 785 454 776 c 128,-1,38
 426 767 426 767 401 752 c 128,-1,39
 376 737 376 737 352.5 719 c 128,-1,40
 329 701 329 701 309 681 c 1,41,-1
 309 144 l 1,42,43
 351 100 351 100 405 72.5 c 128,-1,44
 459 45 459 45 521 45 c 0,45,46
 590 45 590 45 637 84 c 128,-1,47
 684 123 684 123 712 181.5 c 128,-1,48
 740 240 740 240 752 307 c 128,-1,49
 764 374 764 374 764 429 c 0,31,32
EndSplineSet
EndChar

StartChar: c
Encoding: 99 99 70
Width: 891
GlyphClass: 2
LayerCount: 2
Fore
SplineSet
825 341 m 1,0,1
 813 271 813 271 782 204.5 c 128,-1,2
 751 138 751 138 702.5 86 c 128,-1,3
 654 34 654 34 589.5 2 c 128,-1,4
 525 -30 525 -30 450 -30 c 0,5,6
 353 -30 353 -30 280.5 12.5 c 128,-1,7
 208 55 208 55 160.5 123 c 128,-1,8
 113 191 113 191 89.5 276 c 128,-1,9
 66 361 66 361 66 447 c 0,10,11
 66 541 66 541 96 627.5 c 128,-1,12
 126 714 126 714 182 780 c 128,-1,13
 238 846 238 846 317 885 c 128,-1,14
 396 924 396 924 495 924 c 0,15,16
 539 924 539 924 593 910.5 c 128,-1,17
 647 897 647 897 692.5 869.5 c 128,-1,18
 738 842 738 842 769.5 802 c 128,-1,19
 801 762 801 762 801 708 c 0,20,21
 801 664 801 664 775.5 644.5 c 128,-1,22
 750 625 750 625 708 625 c 0,23,24
 664 625 664 625 643.5 642.5 c 128,-1,25
 623 660 623 660 613.5 686 c 128,-1,26
 604 712 604 712 600.5 742.5 c 128,-1,27
 597 773 597 773 584.5 799 c 128,-1,28
 572 825 572 825 544.5 842.5 c 128,-1,29
 517 860 517 860 463 860 c 0,30,31
 398 860 398 860 353 829.5 c 128,-1,32
 308 799 308 799 280.5 751 c 128,-1,33
 253 703 253 703 241 645.5 c 128,-1,34
 229 588 229 588 229 533 c 0,35,36
 229 467 229 467 244.5 395.5 c 128,-1,37
 260 324 260 324 295 264 c 128,-1,38
 330 204 330 204 385.5 165.5 c 128,-1,39
 441 127 441 127 519 127 c 0,40,41
 574 127 574 127 616.5 145.5 c 128,-1,42
 659 164 659 164 692 195 c 128,-1,43
 725 226 725 226 750.5 267 c 128,-1,44
 776 308 776 308 795 354 c 1,45,-1
 825 341 l 1,0,1
EndSplineSet
EndChar

StartChar: d
Encoding: 100 100 71
Width: 1003
GlyphClass: 2
LayerCount: 2
Fore
SplineSet
740 -30 m 1,0,-1
 698 -30 l 1,1,-1
 698 101 l 1,2,3
 643 44 643 44 577.5 7 c 128,-1,4
 512 -30 512 -30 434 -30 c 0,5,6
 346 -30 346 -30 277.5 9 c 128,-1,7
 209 48 209 48 162.5 111 c 128,-1,8
 116 174 116 174 91 252.5 c 128,-1,9
 66 331 66 331 66 409 c 0,10,11
 66 503 66 503 96 594.5 c 128,-1,12
 126 686 126 686 182.5 759.5 c 128,-1,13
 239 833 239 833 320.5 878.5 c 128,-1,14
 402 924 402 924 503 924 c 0,15,16
 558 924 558 924 608 906.5 c 128,-1,17
 658 889 658 889 698 849 c 1,18,-1
 698 1140 l 2,19,20
 698 1198 698 1198 682 1231.5 c 128,-1,21
 666 1265 666 1265 628 1265 c 0,22,23
 610 1265 610 1265 593.5 1261.5 c 128,-1,24
 577 1258 577 1258 559 1252 c 1,25,-1
 546 1286 l 1,26,-1
 818 1392 l 1,27,-1
 860 1392 l 1,28,-1
 860 276 l 2,29,30
 860 237 860 237 862 205 c 128,-1,31
 864 173 864 173 871.5 150 c 128,-1,32
 879 127 879 127 893 114 c 128,-1,33
 907 101 907 101 932 101 c 0,34,35
 948 101 948 101 965.5 105.5 c 128,-1,36
 983 110 983 110 1001 117 c 1,37,-1
 1011 82 l 1,38,-1
 740 -30 l 1,0,-1
698 633 m 2,39,40
 698 675 698 675 682.5 716.5 c 128,-1,41
 667 758 667 758 639 791 c 128,-1,42
 611 824 611 824 572.5 845 c 128,-1,43
 534 866 534 866 490 866 c 0,44,45
 420 866 420 866 373 828 c 128,-1,46
 326 790 326 790 298 733.5 c 128,-1,47
 270 677 270 677 258.5 611.5 c 128,-1,48
 247 546 247 546 247 490 c 0,49,50
 247 428 247 428 261.5 356.5 c 128,-1,51
 276 285 276 285 307.5 223 c 128,-1,52
 339 161 339 161 392 120 c 128,-1,53
 445 79 445 79 521 79 c 0,54,55
 574 79 574 79 619 106 c 128,-1,56
 664 133 664 133 698 170 c 1,57,-1
 698 633 l 2,39,40
EndSplineSet
EndChar

StartChar: e
Encoding: 101 101 72
Width: 891
GlyphClass: 2
LayerCount: 2
Fore
SplineSet
833 328 m 1,0,1
 823 258 823 258 792.5 193.5 c 128,-1,2
 762 129 762 129 714 79.5 c 128,-1,3
 666 30 666 30 602.5 0 c 128,-1,4
 539 -30 539 -30 465 -30 c 0,5,6
 369 -30 369 -30 295.5 10.5 c 128,-1,7
 222 51 222 51 172.5 117 c 128,-1,8
 123 183 123 183 98.5 267 c 128,-1,9
 74 351 74 351 74 439 c 0,10,11
 74 536 74 536 99.5 624 c 128,-1,12
 125 712 125 712 176 778.5 c 128,-1,13
 227 845 227 845 306 884.5 c 128,-1,14
 385 924 385 924 490 924 c 0,15,16
 571 924 571 924 634.5 897 c 128,-1,17
 698 870 698 870 742 821 c 128,-1,18
 786 772 786 772 809.5 705 c 128,-1,19
 833 638 833 638 833 559 c 1,20,-1
 213 559 l 1,21,22
 213 486 213 486 232.5 410.5 c 128,-1,23
 252 335 252 335 292.5 273.5 c 128,-1,24
 333 212 333 212 394.5 172.5 c 128,-1,25
 456 133 456 133 541 133 c 0,26,27
 593 133 593 133 634 149 c 128,-1,28
 675 165 675 165 706.5 194.5 c 128,-1,29
 738 224 738 224 761.5 263.5 c 128,-1,30
 785 303 785 303 803 348 c 1,31,-1
 833 328 l 1,0,1
628 615 m 1,32,33
 628 659 628 659 617 702.5 c 128,-1,34
 606 746 606 746 582 779 c 128,-1,35
 558 812 558 812 521.5 833 c 128,-1,36
 485 854 485 854 434 854 c 256,37,38
 383 854 383 854 344 834 c 128,-1,39
 305 814 305 814 277.5 780.5 c 128,-1,40
 250 747 250 747 233.5 703.5 c 128,-1,41
 217 660 217 660 213 615 c 1,42,-1
 628 615 l 1,32,33
EndSplineSet
EndChar

StartChar: f
Encoding: 102 102 73
Width: 668
GlyphClass: 2
LayerCount: 2
Fore
SplineSet
873 1224 m 0,0,1
 873 1210 873 1210 866 1196 c 128,-1,2
 859 1182 859 1182 848 1170.5 c 128,-1,3
 837 1159 837 1159 822.5 1152 c 128,-1,4
 808 1145 808 1145 793 1145 c 0,5,6
 761 1145 761 1145 736 1172.5 c 128,-1,7
 711 1200 711 1200 685 1233 c 128,-1,8
 659 1266 659 1266 627 1293.5 c 128,-1,9
 595 1321 595 1321 549 1321 c 0,10,11
 501 1321 501 1321 473.5 1293.5 c 128,-1,12
 446 1266 446 1266 432.5 1221 c 128,-1,13
 419 1176 419 1176 415.5 1116.5 c 128,-1,14
 412 1057 412 1057 412 993 c 2,15,-1
 412 897 l 1,16,-1
 645 897 l 1,17,-1
 645 825 l 1,18,-1
 412 825 l 1,19,-1
 412 237 l 2,20,21
 412 169 412 169 419 129.5 c 128,-1,22
 426 90 426 90 448.5 69.5 c 128,-1,23
 471 49 471 49 511.5 43.5 c 128,-1,24
 552 38 552 38 620 38 c 1,25,-1
 620 0 l 1,26,-1
 79 0 l 1,27,-1
 79 38 l 1,28,29
 137 38 137 38 171 49 c 128,-1,30
 205 60 205 60 222.5 84 c 128,-1,31
 240 108 240 108 245.5 145.5 c 128,-1,32
 251 183 251 183 251 237 c 2,33,-1
 251 825 l 1,34,-1
 74 825 l 1,35,-1
 74 897 l 1,36,-1
 251 897 l 1,37,-1
 251 958 l 2,38,39
 251 1044 251 1044 274.5 1122.5 c 128,-1,40
 298 1201 298 1201 344.5 1261 c 128,-1,41
 391 1321 391 1321 461.5 1356.5 c 128,-1,42
 532 1392 532 1392 625 1392 c 0,43,44
 657 1392 657 1392 701 1381 c 128,-1,45
 745 1370 745 1370 782.5 1348.5 c 128,-1,46
 820 1327 820 1327 846.5 1295.5 c 128,-1,47
 873 1264 873 1264 873 1224 c 0,0,1
EndSplineSet
EndChar

StartChar: g
Encoding: 103 103 74
Width: 1003
GlyphClass: 2
LayerCount: 2
Fore
SplineSet
966 818 m 0,0,1
 966 787 966 787 941 777 c 128,-1,2
 916 767 916 767 884 767 c 0,3,4
 858 767 858 767 832 769 c 128,-1,5
 806 771 806 771 788 772 c 1,6,7
 817 734 817 734 829 687 c 128,-1,8
 841 640 841 640 841 594 c 0,9,10
 841 519 841 519 811.5 462.5 c 128,-1,11
 782 406 782 406 733 367.5 c 128,-1,12
 684 329 684 329 620 309.5 c 128,-1,13
 556 290 556 290 487 290 c 0,14,15
 453 290 453 290 419 294.5 c 128,-1,16
 385 299 385 299 351 309 c 1,17,18
 325 288 325 288 301 261 c 128,-1,19
 277 234 277 234 277 200 c 0,20,21
 277 170 277 170 306 157 c 128,-1,22
 335 144 335 144 382.5 139 c 128,-1,23
 430 134 430 134 491 134 c 128,-1,24
 552 134 552 134 616 131.5 c 128,-1,25
 680 129 680 129 741 119.5 c 128,-1,26
 802 110 802 110 849.5 87.5 c 128,-1,27
 897 65 897 65 926 24.5 c 128,-1,28
 955 -16 955 -16 955 -82 c 0,29,30
 955 -142 955 -142 932 -191 c 128,-1,31
 909 -240 909 -240 870 -280 c 128,-1,32
 831 -320 831 -320 779.5 -348.5 c 128,-1,33
 728 -377 728 -377 672 -396.5 c 128,-1,34
 616 -416 616 -416 559 -425 c 128,-1,35
 502 -434 502 -434 452 -434 c 0,36,37
 427 -434 427 -434 387.5 -429.5 c 128,-1,38
 348 -425 348 -425 304.5 -415.5 c 128,-1,39
 261 -406 261 -406 217 -391 c 128,-1,40
 173 -376 173 -376 138 -355 c 128,-1,41
 103 -334 103 -334 80.5 -307.5 c 128,-1,42
 58 -281 58 -281 58 -247 c 0,43,44
 58 -220 58 -220 79.5 -183 c 128,-1,45
 101 -146 101 -146 130.5 -110 c 128,-1,46
 160 -74 160 -74 190.5 -42 c 128,-1,47
 221 -10 221 -10 239 8 c 1,48,49
 226 16 226 16 210.5 27.5 c 128,-1,50
 195 39 195 39 180.5 53.5 c 128,-1,51
 166 68 166 68 156.5 84 c 128,-1,52
 147 100 147 100 147 117 c 0,53,54
 147 144 147 144 164 174.5 c 128,-1,55
 181 205 181 205 205.5 234 c 128,-1,56
 230 263 230 263 256.5 287.5 c 128,-1,57
 283 312 283 312 303 328 c 1,58,59
 264 346 264 346 232 374.5 c 128,-1,60
 200 403 200 403 178 438.5 c 128,-1,61
 156 474 156 474 144.5 515 c 128,-1,62
 133 556 133 556 133 599 c 0,63,64
 133 674 133 674 162 734.5 c 128,-1,65
 191 795 191 795 240.5 837 c 128,-1,66
 290 879 290 879 354.5 901.5 c 128,-1,67
 419 924 419 924 490 924 c 0,68,69
 533 924 533 924 574 913 c 128,-1,70
 615 902 615 902 655 889 c 128,-1,71
 695 876 695 876 735.5 865 c 128,-1,72
 776 854 776 854 818 854 c 0,73,74
 844 854 844 854 870 857 c 128,-1,75
 896 860 896 860 922 860 c 256,76,77
 948 860 948 860 957 855 c 128,-1,78
 966 850 966 850 966 818 c 0,0,1
668 567 m 0,79,80
 668 612 668 612 659.5 666 c 128,-1,81
 651 720 651 720 629 767 c 128,-1,82
 607 814 607 814 569.5 845 c 128,-1,83
 532 876 532 876 474 876 c 0,84,85
 425 876 425 876 392 854.5 c 128,-1,86
 359 833 359 833 339.5 800 c 128,-1,87
 320 767 320 767 311.5 724.5 c 128,-1,88
 303 682 303 682 303 642 c 0,89,90
 303 595 303 595 311.5 542 c 128,-1,91
 320 489 320 489 342.5 443.5 c 128,-1,92
 365 398 365 398 403.5 368 c 128,-1,93
 442 338 442 338 500 338 c 0,94,95
 551 338 551 338 583.5 357.5 c 128,-1,96
 616 377 616 377 635 409.5 c 128,-1,97
 654 442 654 442 661 483 c 128,-1,98
 668 524 668 524 668 567 c 0,79,80
884 -120 m 0,99,100
 884 -101 884 -101 875.5 -86 c 128,-1,101
 867 -71 867 -71 853.5 -61.5 c 128,-1,102
 840 -52 840 -52 822.5 -45.5 c 128,-1,103
 805 -39 805 -39 788 -35 c 0,104,105
 750 -26 750 -26 685 -21 c 128,-1,106
 620 -16 620 -16 548 -12.5 c 128,-1,107
 476 -9 476 -9 407 -6.5 c 128,-1,108
 338 -4 338 -4 292 0 c 1,109,110
 278 -16 278 -16 262.5 -36 c 128,-1,111
 247 -56 247 -56 232.5 -78.5 c 128,-1,112
 218 -101 218 -101 209 -125 c 128,-1,113
 200 -149 200 -149 200 -173 c 0,114,115
 200 -203 200 -203 219.5 -225 c 128,-1,116
 239 -247 239 -247 269.5 -262.5 c 128,-1,117
 300 -278 300 -278 338.5 -288.5 c 128,-1,118
 377 -299 377 -299 414.5 -305 c 128,-1,119
 452 -311 452 -311 485.5 -313 c 128,-1,120
 519 -315 519 -315 541 -315 c 0,121,122
 585 -315 585 -315 644 -306.5 c 128,-1,123
 703 -298 703 -298 756.5 -275.5 c 128,-1,124
 810 -253 810 -253 847 -215.5 c 128,-1,125
 884 -178 884 -178 884 -120 c 0,99,100
EndSplineSet
EndChar

StartChar: h
Encoding: 104 104 75
Width: 1003
GlyphClass: 2
LayerCount: 2
Fore
SplineSet
551 0 m 1,0,-1
 551 38 l 1,1,2
 595 38 595 38 623 44.5 c 128,-1,3
 651 51 651 51 667.5 67 c 128,-1,4
 684 83 684 83 689.5 111 c 128,-1,5
 695 139 695 139 695 183 c 2,6,-1
 695 536 l 2,7,8
 695 587 695 587 692 634.5 c 128,-1,9
 689 682 689 682 674.5 720 c 128,-1,10
 660 758 660 758 631.5 780.5 c 128,-1,11
 603 803 603 803 551 803 c 0,12,13
 517 803 517 803 486 792 c 128,-1,14
 455 781 455 781 426.5 763.5 c 128,-1,15
 398 746 398 746 373 722.5 c 128,-1,16
 348 699 348 699 328 676 c 1,17,-1
 328 183 l 2,18,19
 328 138 328 138 332.5 110 c 128,-1,20
 337 82 337 82 352.5 65.5 c 128,-1,21
 368 49 368 49 396 43.5 c 128,-1,22
 424 38 424 38 471 38 c 1,23,-1
 471 0 l 1,24,-1
 26 0 l 1,25,-1
 26 38 l 1,26,27
 69 38 69 38 96 45 c 128,-1,28
 123 52 123 52 139 69.5 c 128,-1,29
 155 87 155 87 160 114.5 c 128,-1,30
 165 142 165 142 165 183 c 2,31,-1
 165 1131 l 2,32,33
 165 1193 165 1193 153.5 1230 c 128,-1,34
 142 1267 142 1267 99 1267 c 0,35,36
 81 1267 81 1267 62.5 1262.5 c 128,-1,37
 44 1258 44 1258 26 1252 c 1,38,-1
 10 1286 l 1,39,-1
 282 1392 l 1,40,-1
 328 1392 l 1,41,-1
 328 737 l 1,42,43
 354 776 354 776 385 810 c 128,-1,44
 416 844 416 844 453 869 c 128,-1,45
 490 894 490 894 533 909 c 128,-1,46
 576 924 576 924 625 924 c 0,47,48
 711 924 711 924 758.5 884.5 c 128,-1,49
 806 845 806 845 828.5 785 c 128,-1,50
 851 725 851 725 855.5 653.5 c 128,-1,51
 860 582 860 582 860 519 c 2,52,-1
 860 183 l 2,53,54
 860 141 860 141 865 114 c 128,-1,55
 870 87 870 87 884 69.5 c 128,-1,56
 898 52 898 52 924 45 c 128,-1,57
 950 38 950 38 993 38 c 1,58,-1
 993 0 l 1,59,-1
 551 0 l 1,0,-1
EndSplineSet
EndChar

StartChar: i
Encoding: 105 105 76
Width: 558
GlyphClass: 2
LayerCount: 2
Fore
SplineSet
394 1204 m 0,0,1
 394 1162 394 1162 365.5 1132 c 128,-1,2
 337 1102 337 1102 295 1102 c 256,3,4
 253 1102 253 1102 224 1130.5 c 128,-1,5
 195 1159 195 1159 195 1204 c 0,6,7
 195 1246 195 1246 224 1273.5 c 128,-1,8
 253 1301 253 1301 295 1301 c 0,9,10
 335 1301 335 1301 364.5 1272.5 c 128,-1,11
 394 1244 394 1244 394 1204 c 0,0,1
74 0 m 1,12,-1
 74 38 l 1,13,14
 118 38 118 38 145.5 44.5 c 128,-1,15
 173 51 173 51 188 67.5 c 128,-1,16
 203 84 203 84 208 112 c 128,-1,17
 213 140 213 140 213 183 c 2,18,-1
 213 663 l 2,19,20
 213 685 213 685 211 708.5 c 128,-1,21
 209 732 209 732 202 751.5 c 128,-1,22
 195 771 195 771 181.5 783 c 128,-1,23
 168 795 168 795 144 795 c 0,24,25
 128 795 128 795 110 790.5 c 128,-1,26
 92 786 92 786 74 780 c 1,27,-1
 61 815 l 1,28,-1
 333 924 l 1,29,-1
 376 924 l 1,30,-1
 376 183 l 2,31,32
 376 140 376 140 381 112 c 128,-1,33
 386 84 386 84 401 67.5 c 128,-1,34
 416 51 416 51 442.5 44.5 c 128,-1,35
 469 38 469 38 513 38 c 1,36,-1
 513 0 l 1,37,-1
 74 0 l 1,12,-1
EndSplineSet
EndChar

StartChar: j
Encoding: 106 106 77
Width: 558
GlyphClass: 2
LayerCount: 2
Fore
SplineSet
391 1204 m 0,0,1
 391 1162 391 1162 361 1132 c 128,-1,2
 331 1102 331 1102 290 1102 c 0,3,4
 248 1102 248 1102 219.5 1130.5 c 128,-1,5
 191 1159 191 1159 191 1204 c 0,6,7
 191 1244 191 1244 220.5 1272.5 c 128,-1,8
 250 1301 250 1301 290 1301 c 256,9,10
 330 1301 330 1301 360.5 1272.5 c 128,-1,11
 391 1244 391 1244 391 1204 c 0,0,1
376 18 m 2,12,13
 376 -69 376 -69 357.5 -150 c 128,-1,14
 339 -231 339 -231 297.5 -294 c 128,-1,15
 256 -357 256 -357 188.5 -395.5 c 128,-1,16
 121 -434 121 -434 21 -434 c 0,17,18
 0 -434 0 -434 -30 -429 c 128,-1,19
 -60 -424 -60 -424 -88 -412 c 128,-1,20
 -116 -400 -116 -400 -135.5 -381.5 c 128,-1,21
 -155 -363 -155 -363 -155 -335 c 0,22,23
 -155 -301 -155 -301 -131.5 -276 c 128,-1,24
 -108 -251 -108 -251 -74 -251 c 256,25,26
 -40 -251 -40 -251 -15 -267 c 128,-1,27
 10 -283 10 -283 31.5 -302 c 128,-1,28
 53 -321 53 -321 74.5 -337.5 c 128,-1,29
 96 -354 96 -354 122 -354 c 0,30,31
 154 -354 154 -354 173 -331.5 c 128,-1,32
 192 -309 192 -309 200.5 -274 c 128,-1,33
 209 -239 209 -239 211 -195 c 128,-1,34
 213 -151 213 -151 213 -107 c 2,35,-1
 213 601 l 2,36,37
 213 641 213 641 211 676.5 c 128,-1,38
 209 712 209 712 202.5 737.5 c 128,-1,39
 196 763 196 763 181 778 c 128,-1,40
 166 793 166 793 142 793 c 0,41,42
 111 793 111 793 74 780 c 1,43,-1
 61 815 l 1,44,-1
 333 924 l 1,45,-1
 376 924 l 1,46,-1
 376 18 l 2,12,13
EndSplineSet
EndChar

StartChar: k
Encoding: 107 107 78
Width: 1003
GlyphClass: 2
LayerCount: 2
Fore
SplineSet
580 0 m 1,0,-1
 580 38 l 1,1,2
 589 38 589 38 600 38.5 c 128,-1,3
 611 39 611 39 620 43 c 128,-1,4
 629 47 629 47 635.5 53.5 c 128,-1,5
 642 60 642 60 642 71 c 0,6,7
 642 93 642 93 629 113 c 128,-1,8
 616 133 616 133 604 149 c 2,9,-1
 330 495 l 1,10,-1
 330 203 l 2,11,12
 330 156 330 156 333.5 124 c 128,-1,13
 337 92 337 92 350.5 72.5 c 128,-1,14
 364 53 364 53 393 45.5 c 128,-1,15
 422 38 422 38 474 38 c 1,16,-1
 474 0 l 1,17,-1
 13 0 l 1,18,-1
 13 38 l 1,19,20
 64 38 64 38 93 44.5 c 128,-1,21
 122 51 122 51 137.5 68.5 c 128,-1,22
 153 86 153 86 157.5 117 c 128,-1,23
 162 148 162 148 162 198 c 2,24,-1
 162 1114 l 2,25,26
 162 1196 162 1196 148.5 1231.5 c 128,-1,27
 135 1267 135 1267 96 1267 c 0,28,29
 79 1267 79 1267 63.5 1262.5 c 128,-1,30
 48 1258 48 1258 32 1252 c 1,31,-1
 13 1286 l 1,32,-1
 285 1392 l 1,33,-1
 330 1392 l 1,34,-1
 330 516 l 1,35,-1
 556 708 l 2,36,37
 564 714 564 714 579.5 728 c 128,-1,38
 595 742 595 742 611 757.5 c 128,-1,39
 627 773 627 773 638.5 789.5 c 128,-1,40
 650 806 650 806 650 818 c 0,41,42
 650 831 650 831 643.5 840.5 c 128,-1,43
 637 850 637 850 626.5 856 c 128,-1,44
 616 862 616 862 603.5 864.5 c 128,-1,45
 591 867 591 867 580 868 c 1,46,-1
 580 897 l 1,47,-1
 968 897 l 1,48,-1
 968 868 l 1,49,50
 926 865 926 865 893 859.5 c 128,-1,51
 860 854 860 854 831.5 841 c 128,-1,52
 803 828 803 828 776.5 808.5 c 128,-1,53
 750 789 750 789 719 762 c 2,54,-1
 482 551 l 1,55,-1
 764 199 l 2,56,57
 807 146 807 146 837 114 c 128,-1,58
 867 82 867 82 893.5 65 c 128,-1,59
 920 48 920 48 948 43 c 128,-1,60
 976 38 976 38 1014 38 c 1,61,-1
 1014 0 l 1,62,-1
 580 0 l 1,0,-1
EndSplineSet
EndChar

StartChar: l
Encoding: 108 108 79
Width: 558
GlyphClass: 2
LayerCount: 2
Fore
SplineSet
74 0 m 1,0,-1
 74 38 l 1,1,2
 121 38 121 38 147.5 49 c 128,-1,3
 174 60 174 60 187.5 80.5 c 128,-1,4
 201 101 201 101 204.5 131.5 c 128,-1,5
 208 162 208 162 208 203 c 2,6,-1
 208 1104 l 2,7,8
 208 1136 208 1136 206 1165.5 c 128,-1,9
 204 1195 204 1195 196 1217 c 128,-1,10
 188 1239 188 1239 174 1252 c 128,-1,11
 160 1265 160 1265 135 1265 c 0,12,13
 119 1265 119 1265 105 1261.5 c 128,-1,14
 91 1258 91 1258 74 1252 c 1,15,-1
 58 1286 l 1,16,-1
 328 1392 l 1,17,-1
 370 1392 l 1,18,-1
 370 203 l 2,19,20
 370 158 370 158 375 126.5 c 128,-1,21
 380 95 380 95 394.5 75.5 c 128,-1,22
 409 56 409 56 438 47 c 128,-1,23
 467 38 467 38 516 38 c 1,24,-1
 516 0 l 1,25,-1
 74 0 l 1,0,-1
EndSplineSet
EndChar

StartChar: m
Encoding: 109 109 80
Width: 1562
GlyphClass: 2
LayerCount: 2
Fore
SplineSet
1110 0 m 1,0,-1
 1110 38 l 1,1,2
 1162 38 1162 38 1191.5 45.5 c 128,-1,3
 1221 53 1221 53 1234.5 72.5 c 128,-1,4
 1248 92 1248 92 1251 124 c 128,-1,5
 1254 156 1254 156 1254 203 c 2,6,-1
 1254 591 l 2,7,8
 1254 629 1254 629 1248.5 667.5 c 128,-1,9
 1243 706 1243 706 1226.5 737 c 128,-1,10
 1210 768 1210 768 1181 787.5 c 128,-1,11
 1152 807 1152 807 1105 807 c 0,12,13
 1071 807 1071 807 1039 796.5 c 128,-1,14
 1007 786 1007 786 978 768.5 c 128,-1,15
 949 751 949 751 923 729 c 128,-1,16
 897 707 897 707 873 684 c 1,17,-1
 873 203 l 2,18,19
 873 156 873 156 877 124 c 128,-1,20
 881 92 881 92 895.5 72.5 c 128,-1,21
 910 53 910 53 939 45.5 c 128,-1,22
 968 38 968 38 1019 38 c 1,23,-1
 1019 0 l 1,24,-1
 564 0 l 1,25,-1
 564 38 l 1,26,27
 617 38 617 38 646.5 45.5 c 128,-1,28
 676 53 676 53 690 72 c 128,-1,29
 704 91 704 91 707.5 123 c 128,-1,30
 711 155 711 155 711 203 c 2,31,-1
 711 591 l 2,32,33
 711 630 711 630 704.5 669 c 128,-1,34
 698 708 698 708 682 739.5 c 128,-1,35
 666 771 666 771 636 790.5 c 128,-1,36
 606 810 606 810 559 810 c 0,37,38
 524 810 524 810 492 799 c 128,-1,39
 460 788 460 788 431 770.5 c 128,-1,40
 402 753 402 753 376.5 730 c 128,-1,41
 351 707 351 707 328 684 c 1,42,-1
 328 203 l 2,43,44
 328 156 328 156 331.5 124 c 128,-1,45
 335 92 335 92 349.5 72.5 c 128,-1,46
 364 53 364 53 394 45.5 c 128,-1,47
 424 38 424 38 474 38 c 1,48,-1
 474 0 l 1,49,-1
 30 0 l 1,50,-1
 30 38 l 1,51,52
 78 38 78 38 104.5 47.5 c 128,-1,53
 131 57 131 57 145 77 c 128,-1,54
 159 97 159 97 162 128.5 c 128,-1,55
 165 160 165 160 165 203 c 2,56,-1
 165 632 l 2,57,58
 165 662 165 662 163 691 c 128,-1,59
 161 720 161 720 154.5 743.5 c 128,-1,60
 148 767 148 767 134 781 c 128,-1,61
 120 795 120 795 96 795 c 0,62,63
 79 795 79 795 62 790.5 c 128,-1,64
 45 786 45 786 30 780 c 1,65,-1
 13 815 l 1,66,-1
 285 924 l 1,67,-1
 328 924 l 1,68,-1
 328 734 l 1,69,70
 359 768 359 768 392.5 802 c 128,-1,71
 426 836 426 836 464.5 863 c 128,-1,72
 503 890 503 890 546 907 c 128,-1,73
 589 924 589 924 640 924 c 0,74,75
 736 924 736 924 791 874 c 128,-1,76
 846 824 846 824 868 734 c 1,77,78
 899 770 899 770 932.5 804 c 128,-1,79
 966 838 966 838 1003.5 865 c 128,-1,80
 1041 892 1041 892 1084.5 908 c 128,-1,81
 1128 924 1128 924 1182 924 c 0,82,83
 1255 924 1255 924 1301 895 c 128,-1,84
 1347 866 1347 866 1373.5 819 c 128,-1,85
 1400 772 1400 772 1409.5 712.5 c 128,-1,86
 1419 653 1419 653 1419 591 c 2,87,-1
 1419 203 l 2,88,89
 1419 161 1419 161 1422.5 130 c 128,-1,90
 1426 99 1426 99 1439.5 78 c 128,-1,91
 1453 57 1453 57 1480.5 47.5 c 128,-1,92
 1508 38 1508 38 1555 38 c 1,93,-1
 1555 0 l 1,94,-1
 1110 0 l 1,0,-1
EndSplineSet
EndChar

StartChar: n
Encoding: 110 110 81
Width: 1003
GlyphClass: 2
LayerCount: 2
Fore
SplineSet
551 0 m 1,0,-1
 551 38 l 1,1,2
 602 38 602 38 631 45.5 c 128,-1,3
 660 53 660 53 675 72 c 128,-1,4
 690 91 690 91 694 123 c 128,-1,5
 698 155 698 155 698 203 c 2,6,-1
 698 569 l 2,7,8
 698 607 698 607 694.5 648.5 c 128,-1,9
 691 690 691 690 677 724.5 c 128,-1,10
 663 759 663 759 634.5 781 c 128,-1,11
 606 803 606 803 556 803 c 0,12,13
 521 803 521 803 488.5 792 c 128,-1,14
 456 781 456 781 427 763.5 c 128,-1,15
 398 746 398 746 372.5 722.5 c 128,-1,16
 347 699 347 699 325 676 c 1,17,-1
 325 203 l 2,18,19
 325 156 325 156 329 124 c 128,-1,20
 333 92 333 92 347 72.5 c 128,-1,21
 361 53 361 53 390.5 45.5 c 128,-1,22
 420 38 420 38 471 38 c 1,23,-1
 471 0 l 1,24,-1
 23 0 l 1,25,-1
 23 38 l 1,26,27
 72 38 72 38 99.5 47.5 c 128,-1,28
 127 57 127 57 141 77 c 128,-1,29
 155 97 155 97 157.5 128.5 c 128,-1,30
 160 160 160 160 160 203 c 2,31,-1
 160 616 l 2,32,33
 160 650 160 650 158 682 c 128,-1,34
 156 714 156 714 149 739 c 128,-1,35
 142 764 142 764 128 779.5 c 128,-1,36
 114 795 114 795 91 795 c 0,37,38
 74 795 74 795 57 790.5 c 128,-1,39
 40 786 40 786 23 780 c 1,40,-1
 10 815 l 1,41,-1
 285 924 l 1,42,-1
 325 924 l 1,43,-1
 325 734 l 1,44,45
 352 766 352 766 385.5 800 c 128,-1,46
 419 834 419 834 456.5 861.5 c 128,-1,47
 494 889 494 889 537 906.5 c 128,-1,48
 580 924 580 924 625 924 c 0,49,50
 698 924 698 924 744 894 c 128,-1,51
 790 864 790 864 816 815.5 c 128,-1,52
 842 767 842 767 851 706.5 c 128,-1,53
 860 646 860 646 860 586 c 2,54,-1
 860 203 l 2,55,56
 860 160 860 160 864 128.5 c 128,-1,57
 868 97 868 97 882 77 c 128,-1,58
 896 57 896 57 923.5 47.5 c 128,-1,59
 951 38 951 38 1001 38 c 1,60,-1
 1001 0 l 1,61,-1
 551 0 l 1,0,-1
EndSplineSet
EndChar

StartChar: o
Encoding: 111 111 82
Width: 1003
GlyphClass: 2
LayerCount: 2
Fore
SplineSet
935 465 m 0,0,1
 935 368 935 368 904 278 c 128,-1,2
 873 188 873 188 816 120 c 128,-1,3
 759 52 759 52 677 11 c 128,-1,4
 595 -30 595 -30 493 -30 c 0,5,6
 396 -30 396 -30 317 9 c 128,-1,7
 238 48 238 48 182.5 113.5 c 128,-1,8
 127 179 127 179 96.5 263.5 c 128,-1,9
 66 348 66 348 66 439 c 0,10,11
 66 534 66 534 96.5 621 c 128,-1,12
 127 708 127 708 184.5 776 c 128,-1,13
 242 844 242 844 322.5 884 c 128,-1,14
 403 924 403 924 503 924 c 0,15,16
 600 924 600 924 680 888.5 c 128,-1,17
 760 853 760 853 816.5 790.5 c 128,-1,18
 873 728 873 728 904 644 c 128,-1,19
 935 560 935 560 935 465 c 0,0,1
751 389 m 0,20,21
 751 432 751 432 746 484 c 128,-1,22
 741 536 741 536 728 588.5 c 128,-1,23
 715 641 715 641 694 689.5 c 128,-1,24
 673 738 673 738 642 776.5 c 128,-1,25
 611 815 611 815 568 837.5 c 128,-1,26
 525 860 525 860 471 860 c 0,27,28
 405 860 405 860 361.5 827 c 128,-1,29
 318 794 318 794 293.5 744 c 128,-1,30
 269 694 269 694 260 634.5 c 128,-1,31
 251 575 251 575 251 521 c 0,32,33
 251 478 251 478 257 426 c 128,-1,34
 263 374 263 374 276 321 c 128,-1,35
 289 268 289 268 310 218 c 128,-1,36
 331 168 331 168 362.5 129 c 128,-1,37
 394 90 394 90 436 66.5 c 128,-1,38
 478 43 478 43 533 43 c 0,39,40
 603 43 603 43 646 76 c 128,-1,41
 689 109 689 109 712.5 160.5 c 128,-1,42
 736 212 736 212 743.5 273 c 128,-1,43
 751 334 751 334 751 389 c 0,20,21
EndSplineSet
EndChar

StartChar: p
Encoding: 112 112 83
Width: 1003
GlyphClass: 2
LayerCount: 2
Fore
SplineSet
937 482 m 0,0,1
 937 391 937 391 911 299.5 c 128,-1,2
 885 208 885 208 833 135 c 128,-1,3
 781 62 781 62 704 16 c 128,-1,4
 627 -30 627 -30 524 -30 c 0,5,6
 464 -30 464 -30 410 -9 c 128,-1,7
 356 12 356 12 312 53 c 1,8,-1
 312 -221 l 2,9,10
 312 -270 312 -270 316 -302.5 c 128,-1,11
 320 -335 320 -335 335 -354.5 c 128,-1,12
 350 -374 350 -374 379.5 -383.5 c 128,-1,13
 409 -393 409 -393 463 -394 c 1,14,-1
 463 -432 l 1,15,-1
 -10 -432 l 1,16,-1
 -10 -394 l 1,17,18
 45 -393 45 -393 76 -384.5 c 128,-1,19
 107 -376 107 -376 121.5 -356.5 c 128,-1,20
 136 -337 136 -337 140 -303 c 128,-1,21
 144 -269 144 -269 144 -216 c 2,22,-1
 144 633 l 2,23,24
 144 669 144 669 142 698.5 c 128,-1,25
 140 728 140 728 133 748 c 128,-1,26
 126 768 126 768 111.5 779 c 128,-1,27
 97 790 97 790 71 790 c 0,28,29
 36 790 36 790 5 775 c 1,30,-1
 -5 810 l 1,31,-1
 274 922 l 1,32,-1
 312 922 l 1,33,-1
 312 711 l 1,34,35
 335 751 335 751 364 789.5 c 128,-1,36
 393 828 393 828 428.5 858 c 128,-1,37
 464 888 464 888 506.5 906 c 128,-1,38
 549 924 549 924 599 924 c 0,39,40
 686 924 686 924 750.5 883 c 128,-1,41
 815 842 815 842 856 778.5 c 128,-1,42
 897 715 897 715 917 636 c 128,-1,43
 937 557 937 557 937 482 c 0,0,1
780 389 m 0,44,45
 780 451 780 451 769 523 c 128,-1,46
 758 595 758 595 729.5 657.5 c 128,-1,47
 701 720 701 720 651 761.5 c 128,-1,48
 601 803 601 803 521 803 c 0,49,50
 466 803 466 803 415 759 c 128,-1,51
 364 715 364 715 312 653 c 1,52,-1
 312 317 l 2,53,54
 312 261 312 261 318.5 210 c 128,-1,55
 325 159 325 159 347 119 c 128,-1,56
 369 79 369 79 410 55.5 c 128,-1,57
 451 32 451 32 521 32 c 0,58,59
 592 32 592 32 642.5 65.5 c 128,-1,60
 693 99 693 99 723 151 c 128,-1,61
 753 203 753 203 766.5 266 c 128,-1,62
 780 329 780 329 780 389 c 0,44,45
EndSplineSet
EndChar

StartChar: q
Encoding: 113 113 84
Width: 1003
GlyphClass: 2
LayerCount: 2
Fore
SplineSet
551 -432 m 1,0,-1
 551 -394 l 1,1,2
 599 -394 599 -394 628.5 -386 c 128,-1,3
 658 -378 658 -378 673.5 -359.5 c 128,-1,4
 689 -341 689 -341 693.5 -309.5 c 128,-1,5
 698 -278 698 -278 698 -231 c 2,6,-1
 698 157 l 1,7,8
 671 123 671 123 637.5 90 c 128,-1,9
 604 57 604 57 567 30.5 c 128,-1,10
 530 4 530 4 488 -13 c 128,-1,11
 446 -30 446 -30 402 -30 c 0,12,13
 318 -30 318 -30 254.5 11 c 128,-1,14
 191 52 191 52 149.5 116.5 c 128,-1,15
 108 181 108 181 87 258 c 128,-1,16
 66 335 66 335 66 409 c 0,17,18
 66 510 66 510 98 604 c 128,-1,19
 130 698 130 698 189 769 c 128,-1,20
 248 840 248 840 334.5 882 c 128,-1,21
 421 924 421 924 530 924 c 0,22,23
 578 924 578 924 627.5 911 c 128,-1,24
 677 898 677 898 714 860 c 1,25,26
 774 887 774 887 825 924 c 1,27,-1
 860 924 l 1,28,-1
 860 -231 l 2,29,30
 860 -276 860 -276 865 -307.5 c 128,-1,31
 870 -339 870 -339 884.5 -358 c 128,-1,32
 899 -377 899 -377 928 -385.5 c 128,-1,33
 957 -394 957 -394 1006 -394 c 1,34,-1
 1006 -432 l 1,35,-1
 551 -432 l 1,0,-1
698 640 m 2,36,37
 698 740 698 740 651 797 c 128,-1,38
 604 854 604 854 498 854 c 0,39,40
 421 854 421 854 370.5 819 c 128,-1,41
 320 784 320 784 288.5 730 c 128,-1,42
 257 676 257 676 244 610.5 c 128,-1,43
 231 545 231 545 231 482 c 0,44,45
 231 418 231 418 245.5 352 c 128,-1,46
 260 286 260 286 292 232 c 128,-1,47
 324 178 324 178 376 143.5 c 128,-1,48
 428 109 428 109 503 109 c 0,49,50
 561 109 561 109 610.5 141.5 c 128,-1,51
 660 174 660 174 698 216 c 1,52,-1
 698 640 l 2,36,37
EndSplineSet
EndChar

StartChar: r
Encoding: 114 114 85
Width: 686
GlyphClass: 2
LayerCount: 2
Fore
SplineSet
684 815 m 0,0,1
 684 779 684 779 657 751.5 c 128,-1,2
 630 724 630 724 594 724 c 0,3,4
 569 724 569 724 551 735 c 128,-1,5
 533 746 533 746 516.5 758.5 c 128,-1,6
 500 771 500 771 486 782 c 128,-1,7
 472 793 472 793 455 793 c 0,8,9
 426 793 426 793 391 748.5 c 128,-1,10
 356 704 356 704 325 642 c 1,11,-1
 325 208 l 2,12,13
 325 122 325 122 357.5 80 c 128,-1,14
 390 38 390 38 482 38 c 1,15,-1
 482 0 l 1,16,-1
 18 0 l 1,17,-1
 18 38 l 1,18,19
 69 38 69 38 97 45.5 c 128,-1,20
 125 53 125 53 139 72.5 c 128,-1,21
 153 92 153 92 156.5 124 c 128,-1,22
 160 156 160 156 160 203 c 2,23,-1
 160 590 l 2,24,25
 160 637 160 637 158 674 c 128,-1,26
 156 711 156 711 148 737.5 c 128,-1,27
 140 764 140 764 124 778.5 c 128,-1,28
 108 793 108 793 79 793 c 256,29,30
 50 793 50 793 18 780 c 1,31,-1
 8 815 l 1,32,-1
 285 924 l 1,33,-1
 325 924 l 1,34,-1
 325 721 l 1,35,36
 342 752 342 752 365.5 787.5 c 128,-1,37
 389 823 389 823 418 853.5 c 128,-1,38
 447 884 447 884 481.5 904 c 128,-1,39
 516 924 516 924 556 924 c 0,40,41
 579 924 579 924 603 917 c 128,-1,42
 627 910 627 910 644.5 895.5 c 128,-1,43
 662 881 662 881 673 861 c 128,-1,44
 684 841 684 841 684 815 c 0,0,1
EndSplineSet
EndChar

StartChar: s
Encoding: 115 115 86
Width: 782
GlyphClass: 2
LayerCount: 2
Fore
SplineSet
711 226 m 0,0,1
 711 168 711 168 683.5 121 c 128,-1,2
 656 74 656 74 613.5 40 c 128,-1,3
 571 6 571 6 517 -12 c 128,-1,4
 463 -30 463 -30 409 -30 c 0,5,6
 378 -30 378 -30 345 -20 c 128,-1,7
 312 -10 312 -10 281 1.5 c 128,-1,8
 250 13 250 13 222 22.5 c 128,-1,9
 194 32 194 32 170 32 c 0,10,11
 164 32 164 32 158.5 26.5 c 128,-1,12
 153 21 153 21 148.5 13.5 c 128,-1,13
 144 6 144 6 141 -1.5 c 128,-1,14
 138 -9 138 -9 135 -13 c 1,15,-1
 101 -13 l 1,16,-1
 101 307 l 1,17,-1
 135 307 l 1,18,19
 145 254 145 254 167.5 204.5 c 128,-1,20
 190 155 190 155 224.5 116.5 c 128,-1,21
 259 78 259 78 305 55 c 128,-1,22
 351 32 351 32 409 32 c 0,23,24
 439 32 439 32 467 40.5 c 128,-1,25
 495 49 495 49 516.5 66 c 128,-1,26
 538 83 538 83 551 108 c 128,-1,27
 564 133 564 133 564 165 c 0,28,29
 564 227 564 227 529.5 269.5 c 128,-1,30
 495 312 495 312 443 344.5 c 128,-1,31
 391 377 391 377 331.5 406 c 128,-1,32
 272 435 272 435 220 472.5 c 128,-1,33
 168 510 168 510 133.5 560 c 128,-1,34
 99 610 99 610 99 684 c 0,35,36
 99 746 99 746 123.5 791 c 128,-1,37
 148 836 148 836 188.5 866 c 128,-1,38
 229 896 229 896 281.5 910 c 128,-1,39
 334 924 334 924 389 924 c 0,40,41
 415 924 415 924 439.5 919 c 128,-1,42
 464 914 464 914 488.5 906.5 c 128,-1,43
 513 899 513 899 537.5 894 c 128,-1,44
 562 889 562 889 586 889 c 0,45,46
 602 889 602 889 611.5 899.5 c 128,-1,47
 621 910 621 910 628 924 c 1,48,-1
 663 924 l 1,49,-1
 663 617 l 1,50,-1
 628 617 l 1,51,52
 618 665 618 665 599 710 c 128,-1,53
 580 755 580 755 551.5 790 c 128,-1,54
 523 825 523 825 482 846.5 c 128,-1,55
 441 868 441 868 386 868 c 0,56,57
 357 868 357 868 326.5 863 c 128,-1,58
 296 858 296 858 271 845 c 128,-1,59
 246 832 246 832 229.5 808 c 128,-1,60
 213 784 213 784 213 747 c 0,61,62
 213 682 213 682 250 641.5 c 128,-1,63
 287 601 287 601 342.5 570 c 128,-1,64
 398 539 398 539 462 512 c 128,-1,65
 526 485 526 485 581.5 449 c 128,-1,66
 637 413 637 413 674 360.5 c 128,-1,67
 711 308 711 308 711 226 c 0,0,1
EndSplineSet
EndChar

StartChar: t
Encoding: 116 116 87
Width: 558
GlyphClass: 2
LayerCount: 2
Fore
SplineSet
559 165 m 1,0,1
 549 127 549 127 528 92 c 128,-1,2
 507 57 507 57 477.5 30 c 128,-1,3
 448 3 448 3 412 -13.5 c 128,-1,4
 376 -30 376 -30 335 -30 c 0,5,6
 282 -30 282 -30 248 -10 c 128,-1,7
 214 10 214 10 193.5 43.5 c 128,-1,8
 173 77 173 77 165 119.5 c 128,-1,9
 157 162 157 162 157 208 c 2,10,-1
 157 831 l 1,11,-1
 16 831 l 1,12,-1
 16 860 l 1,13,14
 67 879 67 879 109 916 c 128,-1,15
 151 953 151 953 185.5 999 c 128,-1,16
 220 1045 220 1045 246.5 1095.5 c 128,-1,17
 273 1146 273 1146 292 1193 c 1,18,-1
 322 1193 l 1,19,-1
 322 897 l 1,20,-1
 533 897 l 1,21,-1
 533 831 l 1,22,-1
 322 831 l 1,23,-1
 322 231 l 2,24,25
 322 209 322 209 325.5 183 c 128,-1,26
 329 157 329 157 338 134.5 c 128,-1,27
 347 112 347 112 364.5 97 c 128,-1,28
 382 82 382 82 409 82 c 0,29,30
 453 82 453 82 479.5 104.5 c 128,-1,31
 506 127 506 127 521 165 c 1,32,-1
 559 165 l 1,0,1
EndSplineSet
EndChar

StartChar: u
Encoding: 117 117 88
Width: 1003
GlyphClass: 2
LayerCount: 2
Fore
SplineSet
734 -30 m 1,0,-1
 689 -30 l 1,1,-1
 689 162 l 1,2,3
 659 130 659 130 625 96 c 128,-1,4
 591 62 591 62 553 34 c 128,-1,5
 515 6 515 6 472.5 -12 c 128,-1,6
 430 -30 430 -30 383 -30 c 0,7,8
 310 -30 310 -30 265 2.5 c 128,-1,9
 220 35 220 35 194.5 85.5 c 128,-1,10
 169 136 169 136 160.5 198.5 c 128,-1,11
 152 261 152 261 152 320 c 2,12,-1
 152 721 l 2,13,14
 152 765 152 765 144 792.5 c 128,-1,15
 136 820 136 820 118 835 c 128,-1,16
 100 850 100 850 71 855 c 128,-1,17
 42 860 42 860 0 860 c 1,18,-1
 0 897 l 1,19,-1
 317 897 l 1,20,-1
 317 298 l 2,21,22
 317 259 317 259 323 222.5 c 128,-1,23
 329 186 329 186 345 157.5 c 128,-1,24
 361 129 361 129 390.5 111.5 c 128,-1,25
 420 94 420 94 465 94 c 0,26,27
 497 94 497 94 528.5 105.5 c 128,-1,28
 560 117 560 117 588.5 135 c 128,-1,29
 617 153 617 153 642.5 176 c 128,-1,30
 668 199 668 199 689 221 c 1,31,-1
 689 729 l 2,32,33
 689 769 689 769 680.5 795 c 128,-1,34
 672 821 672 821 654.5 835.5 c 128,-1,35
 637 850 637 850 609 855 c 128,-1,36
 581 860 581 860 543 860 c 1,37,-1
 543 897 l 1,38,-1
 851 897 l 1,39,-1
 851 237 l 2,40,41
 851 223 851 223 852.5 199 c 128,-1,42
 854 175 854 175 860 154 c 128,-1,43
 866 133 866 133 878 117 c 128,-1,44
 890 101 890 101 912 101 c 0,45,46
 951 101 951 101 993 117 c 1,47,-1
 1006 82 l 1,48,-1
 734 -30 l 1,0,-1
EndSplineSet
EndChar

StartChar: v
Encoding: 118 118 89
Width: 1003
GlyphClass: 2
LayerCount: 2
Fore
SplineSet
985 860 m 1,0,1
 954 859 954 859 933 850.5 c 128,-1,2
 912 842 912 842 898 827 c 128,-1,3
 884 812 884 812 873.5 790.5 c 128,-1,4
 863 769 863 769 851 742 c 2,5,-1
 536 -30 l 1,6,-1
 495 -30 l 1,7,-1
 173 732 l 2,8,9
 159 764 159 764 145 786 c 128,-1,10
 131 808 131 808 113.5 822.5 c 128,-1,11
 96 837 96 837 72 846 c 128,-1,12
 48 855 48 855 16 860 c 1,13,-1
 16 897 l 1,14,-1
 439 897 l 1,15,-1
 439 860 l 1,16,17
 418 860 418 860 399 859 c 128,-1,18
 380 858 380 858 365.5 851.5 c 128,-1,19
 351 845 351 845 342 830.5 c 128,-1,20
 333 816 333 816 333 790 c 0,21,22
 333 768 333 768 339.5 748.5 c 128,-1,23
 346 729 346 729 354 711 c 2,24,-1
 562 216 l 1,25,-1
 772 732 l 2,26,27
 780 750 780 750 786.5 771.5 c 128,-1,28
 793 793 793 793 793 815 c 0,29,30
 793 831 793 831 784.5 840 c 128,-1,31
 776 849 776 849 761.5 853.5 c 128,-1,32
 747 858 747 858 729 859 c 128,-1,33
 711 860 711 860 691 860 c 1,34,-1
 691 897 l 1,35,-1
 985 897 l 1,36,-1
 985 860 l 1,0,1
EndSplineSet
EndChar

StartChar: w
Encoding: 119 119 90
Width: 1447
GlyphClass: 2
LayerCount: 2
Fore
SplineSet
1432 860 m 1,0,1
 1384 854 1384 854 1353.5 823.5 c 128,-1,2
 1323 793 1323 793 1305 747 c 2,3,-1
 1006 -30 l 1,4,-1
 966 -30 l 1,5,-1
 740 546 l 1,6,-1
 482 -30 l 1,7,-1
 445 -30 l 1,8,-1
 155 727 l 2,9,10
 143 758 143 758 132 780.5 c 128,-1,11
 121 803 121 803 105.5 818.5 c 128,-1,12
 90 834 90 834 67.5 844 c 128,-1,13
 45 854 45 854 10 860 c 1,14,-1
 10 897 l 1,15,-1
 389 897 l 1,16,-1
 389 860 l 1,17,18
 357 860 357 860 332 849 c 128,-1,19
 307 838 307 838 307 798 c 0,20,21
 307 780 307 780 310 761 c 128,-1,22
 313 742 313 742 320 727 c 2,23,-1
 513 211 l 1,24,-1
 706 630 l 1,25,26
 689 677 689 677 677.5 718 c 128,-1,27
 666 759 666 759 647 790 c 128,-1,28
 628 821 628 821 598 840 c 128,-1,29
 568 859 568 859 513 860 c 1,30,-1
 513 897 l 1,31,-1
 942 897 l 1,32,-1
 942 860 l 1,33,34
 920 859 920 859 898.5 856.5 c 128,-1,35
 877 854 877 854 859.5 847 c 128,-1,36
 842 840 842 840 831 825 c 128,-1,37
 820 810 820 810 820 782 c 0,38,39
 820 772 820 772 833.5 731.5 c 128,-1,40
 847 691 847 691 868.5 635.5 c 128,-1,41
 890 580 890 580 916 517 c 128,-1,42
 942 454 942 454 966 396 c 128,-1,43
 990 338 990 338 1009 293 c 128,-1,44
 1028 248 1028 248 1036 231 c 1,45,-1
 1222 727 l 2,46,47
 1230 748 1230 748 1236.5 769 c 128,-1,48
 1243 790 1243 790 1243 812 c 0,49,50
 1243 829 1243 829 1232.5 838 c 128,-1,51
 1222 847 1222 847 1207.5 852.5 c 128,-1,52
 1193 858 1193 858 1177 859 c 128,-1,53
 1161 860 1161 860 1148 860 c 1,54,-1
 1148 897 l 1,55,-1
 1432 897 l 1,56,-1
 1432 860 l 1,0,1
EndSplineSet
EndChar

StartChar: x
Encoding: 120 120 91
Width: 1003
GlyphClass: 2
LayerCount: 2
Fore
SplineSet
556 0 m 1,0,-1
 556 38 l 1,1,2
 570 38 570 38 586 40 c 128,-1,3
 602 42 602 42 615 47.5 c 128,-1,4
 628 53 628 53 636.5 64 c 128,-1,5
 645 75 645 75 645 94 c 0,6,7
 645 103 645 103 632.5 125.5 c 128,-1,8
 620 148 620 148 600.5 178.5 c 128,-1,9
 581 209 581 209 558.5 243 c 128,-1,10
 536 277 536 277 513.5 307.5 c 128,-1,11
 491 338 491 338 474.5 362 c 128,-1,12
 458 386 458 386 450 396 c 1,13,14
 441 384 441 384 421.5 361 c 128,-1,15
 402 338 402 338 378.5 308.5 c 128,-1,16
 355 279 355 279 330 247.5 c 128,-1,17
 305 216 305 216 285 186 c 128,-1,18
 265 156 265 156 252 132.5 c 128,-1,19
 239 109 239 109 239 96 c 0,20,21
 239 78 239 78 247.5 67 c 128,-1,22
 256 56 256 56 269 49.5 c 128,-1,23
 282 43 282 43 297.5 40.5 c 128,-1,24
 313 38 313 38 328 38 c 1,25,-1
 328 0 l 1,26,-1
 35 0 l 1,27,-1
 35 38 l 1,28,29
 54 38 54 38 72 46.5 c 128,-1,30
 90 55 90 55 111.5 74.5 c 128,-1,31
 133 94 133 94 159 125.5 c 128,-1,32
 185 157 185 157 221 205 c 2,33,-1
 409 455 l 1,34,-1
 239 703 l 2,35,36
 216 738 216 738 194.5 766 c 128,-1,37
 173 794 173 794 149 815 c 128,-1,38
 125 836 125 836 95.5 847.5 c 128,-1,39
 66 859 66 859 26 860 c 1,40,-1
 26 897 l 1,41,-1
 450 897 l 1,42,-1
 450 860 l 1,43,-1
 439 860 l 2,44,45
 413 860 413 860 394.5 851 c 128,-1,46
 376 842 376 842 376 812 c 0,47,48
 376 800 376 800 393.5 769 c 128,-1,49
 411 738 411 738 433.5 702 c 128,-1,50
 456 666 456 666 477.5 634 c 128,-1,51
 499 602 499 602 508 589 c 1,52,53
 517 602 517 602 541 634 c 128,-1,54
 565 666 565 666 590 701.5 c 128,-1,55
 615 737 615 737 634 769.5 c 128,-1,56
 653 802 653 802 653 815 c 0,57,58
 653 844 653 844 628.5 852 c 128,-1,59
 604 860 604 860 580 860 c 1,60,-1
 580 897 l 1,61,-1
 884 897 l 1,62,-1
 884 860 l 1,63,64
 832 859 832 859 782 819.5 c 128,-1,65
 732 780 732 780 688.5 726.5 c 128,-1,66
 645 673 645 673 608.5 617.5 c 128,-1,67
 572 562 572 562 547 528 c 1,68,-1
 780 198 l 2,69,70
 815 147 815 147 840.5 115.5 c 128,-1,71
 866 84 866 84 888 67.5 c 128,-1,72
 910 51 910 51 931.5 45 c 128,-1,73
 953 39 953 39 980 38 c 1,74,-1
 980 0 l 1,75,-1
 556 0 l 1,0,-1
EndSplineSet
EndChar

StartChar: y
Encoding: 121 121 92
Width: 1003
GlyphClass: 2
LayerCount: 2
Fore
SplineSet
993 860 m 1,0,1
 962 857 962 857 942 846.5 c 128,-1,2
 922 836 922 836 907.5 818.5 c 128,-1,3
 893 801 893 801 882.5 777.5 c 128,-1,4
 872 754 872 754 860 727 c 2,5,-1
 495 -170 l 2,6,7
 476 -215 476 -215 446.5 -263 c 128,-1,8
 417 -311 417 -311 378 -348.5 c 128,-1,9
 339 -386 339 -386 292.5 -410 c 128,-1,10
 246 -434 246 -434 191 -434 c 0,11,12
 166 -434 166 -434 142 -427 c 128,-1,13
 118 -420 118 -420 100 -405.5 c 128,-1,14
 82 -391 82 -391 70 -370.5 c 128,-1,15
 58 -350 58 -350 58 -322 c 0,16,17
 58 -274 58 -274 85.5 -254 c 128,-1,18
 113 -234 113 -234 157 -234 c 0,19,20
 175 -234 175 -234 193 -239 c 128,-1,21
 211 -244 211 -244 228.5 -251.5 c 128,-1,22
 246 -259 246 -259 262.5 -264 c 128,-1,23
 279 -269 279 -269 295 -269 c 0,24,25
 321 -269 321 -269 344.5 -250 c 128,-1,26
 368 -231 368 -231 388 -202 c 128,-1,27
 408 -173 408 -173 425 -137 c 128,-1,28
 442 -101 442 -101 455.5 -67.5 c 128,-1,29
 469 -34 469 -34 479 -5.5 c 128,-1,30
 489 23 489 23 495 38 c 1,31,-1
 173 714 l 2,32,33
 160 740 160 740 145.5 765 c 128,-1,34
 131 790 131 790 112.5 810.5 c 128,-1,35
 94 831 94 831 68.5 844 c 128,-1,36
 43 857 43 857 10 860 c 1,37,-1
 10 897 l 1,38,-1
 432 897 l 1,39,-1
 432 860 l 1,40,41
 413 860 413 860 393 859 c 128,-1,42
 373 858 373 858 357 852 c 128,-1,43
 341 846 341 846 330.5 833 c 128,-1,44
 320 820 320 820 320 795 c 0,45,46
 320 768 320 768 331 741 c 128,-1,47
 342 714 342 714 354 689 c 2,48,-1
 572 237 l 1,49,-1
 772 734 l 2,50,51
 780 752 780 752 786.5 770.5 c 128,-1,52
 793 789 793 789 793 807 c 0,53,54
 793 826 793 826 784.5 837.5 c 128,-1,55
 776 849 776 849 762.5 854 c 128,-1,56
 749 859 749 859 732.5 859.5 c 128,-1,57
 716 860 716 860 701 860 c 1,58,-1
 701 897 l 1,59,-1
 993 897 l 1,60,-1
 993 860 l 1,0,1
EndSplineSet
EndChar

StartChar: z
Encoding: 122 122 93
Width: 891
GlyphClass: 2
LayerCount: 2
Fore
SplineSet
256 66 m 1,0,-1
 586 66 l 2,1,2
 655 66 655 66 695.5 74.5 c 128,-1,3
 736 83 736 83 758.5 106 c 128,-1,4
 781 129 781 129 791.5 169 c 128,-1,5
 802 209 802 209 810 274 c 1,6,-1
 844 274 l 1,7,-1
 831 0 l 1,8,-1
 40 0 l 1,9,-1
 40 38 l 1,10,-1
 636 831 l 1,11,-1
 341 831 l 2,12,13
 285 831 285 831 248.5 824.5 c 128,-1,14
 212 818 212 818 189 798.5 c 128,-1,15
 166 779 166 779 155 743 c 128,-1,16
 144 707 144 707 138 650 c 1,17,-1
 101 650 l 1,18,-1
 107 897 l 1,19,-1
 860 897 l 1,20,-1
 860 860 l 1,21,-1
 256 66 l 1,0,-1
EndSplineSet
EndChar

StartChar: braceleft
Encoding: 123 123 94
Width: 957
GlyphClass: 2
LayerCount: 2
Fore
SplineSet
759 -432 m 1,0,1
 688 -424 688 -424 622 -392 c 128,-1,2
 556 -360 556 -360 505.5 -310 c 128,-1,3
 455 -260 455 -260 424.5 -195 c 128,-1,4
 394 -130 394 -130 394 -56 c 0,5,6
 394 -18 394 -18 401 19 c 128,-1,7
 408 56 408 56 416.5 93 c 128,-1,8
 425 130 425 130 432 167 c 128,-1,9
 439 204 439 204 439 242 c 0,10,11
 439 285 439 285 419 322 c 128,-1,12
 399 359 399 359 366.5 387 c 128,-1,13
 334 415 334 415 293.5 432.5 c 128,-1,14
 253 450 253 450 213 455 c 1,15,-1
 213 506 l 1,16,17
 253 511 253 511 293.5 528.5 c 128,-1,18
 334 546 334 546 366.5 573.5 c 128,-1,19
 399 601 399 601 419 637 c 128,-1,20
 439 673 439 673 439 716 c 0,21,22
 439 756 439 756 432 795 c 128,-1,23
 425 834 425 834 416.5 873 c 128,-1,24
 408 912 408 912 401 951 c 128,-1,25
 394 990 394 990 394 1031 c 0,26,27
 394 1104 394 1104 425 1167 c 128,-1,28
 456 1230 456 1230 508 1277.5 c 128,-1,29
 560 1325 560 1325 625 1355.5 c 128,-1,30
 690 1386 690 1386 759 1392 c 1,31,-1
 759 1357 l 1,32,33
 656 1334 656 1334 598.5 1271 c 128,-1,34
 541 1208 541 1208 541 1100 c 0,35,36
 541 1066 541 1066 547.5 1032 c 128,-1,37
 554 998 554 998 562.5 964.5 c 128,-1,38
 571 931 571 931 577.5 897 c 128,-1,39
 584 863 584 863 584 828 c 0,40,41
 584 694 584 694 510.5 610 c 128,-1,42
 437 526 437 526 315 482 c 1,43,44
 438 437 438 437 511 351.5 c 128,-1,45
 584 266 584 266 584 130 c 0,46,47
 584 95 584 95 577.5 62 c 128,-1,48
 571 29 571 29 562.5 -4.5 c 128,-1,49
 554 -38 554 -38 547.5 -71 c 128,-1,50
 541 -104 541 -104 541 -138 c 0,51,52
 541 -247 541 -247 598.5 -310 c 128,-1,53
 656 -373 656 -373 759 -396 c 1,54,-1
 759 -432 l 1,0,1
EndSplineSet
EndChar

StartChar: bar
Encoding: 124 124 95
Width: 401
GlyphClass: 2
LayerCount: 2
Fore
SplineSet
157 -434 m 1,0,-1
 157 1392 l 1,1,-1
 242 1392 l 1,2,-1
 242 -434 l 1,3,-1
 157 -434 l 1,0,-1
EndSplineSet
EndChar

StartChar: braceright
Encoding: 125 125 96
Width: 957
GlyphClass: 2
LayerCount: 2
Fore
SplineSet
745 455 m 1,0,1
 706 450 706 450 665.5 432.5 c 128,-1,2
 625 415 625 415 593.5 387 c 128,-1,3
 562 359 562 359 541.5 322 c 128,-1,4
 521 285 521 285 521 242 c 0,5,6
 521 204 521 204 527.5 167 c 128,-1,7
 534 130 534 130 542.5 93 c 128,-1,8
 551 56 551 56 557.5 19 c 128,-1,9
 564 -18 564 -18 564 -56 c 0,10,11
 564 -130 564 -130 533.5 -195 c 128,-1,12
 503 -260 503 -260 452.5 -310 c 128,-1,13
 402 -360 402 -360 336 -392 c 128,-1,14
 270 -424 270 -424 200 -432 c 1,15,-1
 200 -396 l 1,16,17
 301 -373 301 -373 360 -310 c 128,-1,18
 419 -247 419 -247 419 -138 c 0,19,20
 419 -104 419 -104 412.5 -71 c 128,-1,21
 406 -38 406 -38 397.5 -4.5 c 128,-1,22
 389 29 389 29 382.5 62 c 128,-1,23
 376 95 376 95 376 130 c 0,24,25
 376 198 376 198 395.5 253 c 128,-1,26
 415 308 415 308 450 351.5 c 128,-1,27
 485 395 485 395 534.5 427 c 128,-1,28
 584 459 584 459 645 482 c 1,29,30
 523 526 523 526 449.5 610 c 128,-1,31
 376 694 376 694 376 828 c 0,32,33
 376 863 376 863 382.5 897 c 128,-1,34
 389 931 389 931 397.5 964.5 c 128,-1,35
 406 998 406 998 412.5 1032 c 128,-1,36
 419 1066 419 1066 419 1100 c 0,37,38
 419 1208 419 1208 360.5 1271 c 128,-1,39
 302 1334 302 1334 200 1357 c 1,40,-1
 200 1392 l 1,41,42
 269 1386 269 1386 334.5 1355.5 c 128,-1,43
 400 1325 400 1325 451 1277.5 c 128,-1,44
 502 1230 502 1230 533 1167 c 128,-1,45
 564 1104 564 1104 564 1031 c 0,46,47
 564 991 564 991 557.5 951.5 c 128,-1,48
 551 912 551 912 542.5 873 c 128,-1,49
 534 834 534 834 527.5 795 c 128,-1,50
 521 756 521 756 521 716 c 0,51,52
 521 673 521 673 541.5 637 c 128,-1,53
 562 601 562 601 593.5 573.5 c 128,-1,54
 625 546 625 546 665.5 528.5 c 128,-1,55
 706 511 706 511 745 506 c 1,56,-1
 745 455 l 1,0,1
EndSplineSet
EndChar

StartChar: asciitilde
Encoding: 126 126 97
Width: 1091
GlyphClass: 2
LayerCount: 2
Fore
SplineSet
1054 617 m 1,0,1
 1033 577 1033 577 1006 538.5 c 128,-1,2
 979 500 979 500 944.5 470.5 c 128,-1,3
 910 441 910 441 868.5 422.5 c 128,-1,4
 827 404 827 404 777 404 c 0,5,6
 716 404 716 404 657.5 427 c 128,-1,7
 599 450 599 450 540.5 476.5 c 128,-1,8
 482 503 482 503 424.5 526 c 128,-1,9
 367 549 367 549 307 549 c 0,10,11
 267 549 267 549 235.5 531 c 128,-1,12
 204 513 204 513 178.5 486 c 128,-1,13
 153 459 153 459 132.5 426.5 c 128,-1,14
 112 394 112 394 94 363 c 1,15,-1
 40 434 l 1,16,17
 62 476 62 476 87.5 517.5 c 128,-1,18
 113 559 113 559 146 592 c 128,-1,19
 179 625 179 625 221 645.5 c 128,-1,20
 263 666 263 666 317 666 c 0,21,22
 373 666 373 666 435.5 642.5 c 128,-1,23
 498 619 498 619 560.5 591 c 128,-1,24
 623 563 623 563 681.5 539.5 c 128,-1,25
 740 516 740 516 788 516 c 0,26,27
 826 516 826 516 857.5 531.5 c 128,-1,28
 889 547 889 547 915 572 c 128,-1,29
 941 597 941 597 962 628.5 c 128,-1,30
 983 660 983 660 998 691 c 1,31,-1
 1054 617 l 1,0,1
EndSplineSet
EndChar

StartChar: exclamdown
Encoding: 161 161 99
Width: 668
GlyphClass: 2
LayerCount: 2
Fore
SplineSet
445 844 m 0,0,1
 445 818 445 818 434.5 798.5 c 128,-1,2
 424 779 424 779 408.5 765 c 128,-1,3
 393 751 393 751 373.5 744 c 128,-1,4
 354 737 354 737 334 737 c 0,5,6
 315 737 315 737 296 744 c 128,-1,7
 277 751 277 751 261.5 765 c 128,-1,8
 246 779 246 779 236 799 c 128,-1,9
 226 819 226 819 226 844 c 0,10,11
 226 867 226 867 235 888 c 128,-1,12
 244 909 244 909 258.5 923.5 c 128,-1,13
 273 938 273 938 292.5 947.5 c 128,-1,14
 312 957 312 957 334 957 c 0,15,16
 351 957 351 957 370 950.5 c 128,-1,17
 389 944 389 944 405.5 930 c 128,-1,18
 422 916 422 916 433.5 895 c 128,-1,19
 445 874 445 874 445 844 c 0,0,1
446 -295 m 0,20,21
 446 -361 446 -361 413.5 -397 c 128,-1,22
 381 -433 381 -433 331 -433 c 0,23,24
 313 -433 313 -433 293.5 -425 c 128,-1,25
 274 -417 274 -417 258.5 -399.5 c 128,-1,26
 243 -382 243 -382 232.5 -354 c 128,-1,27
 222 -326 222 -326 222 -286 c 0,28,29
 222 -274 222 -274 223 -257 c 128,-1,30
 224 -240 224 -240 226 -220 c 2,31,-1
 315 575 l 1,32,-1
 354 575 l 1,33,-1
 438 -220 l 2,34,35
 443 -255 443 -255 444.5 -269 c 128,-1,36
 446 -283 446 -283 446 -295 c 0,20,21
EndSplineSet
EndChar

StartChar: cent
Encoding: 162 162 100
Width: 1003
GlyphClass: 2
LayerCount: 2
Fore
SplineSet
881 341 m 1,0,1
 869 271 869 271 838 204.5 c 128,-1,2
 807 138 807 138 758.5 86 c 128,-1,3
 710 34 710 34 645.5 2 c 128,-1,4
 581 -30 581 -30 506 -30 c 0,5,6
 470 -30 470 -30 436 -22 c 128,-1,7
 402 -14 402 -14 368 0 c 1,8,-1
 234 -370 l 1,9,-1
 165 -370 l 1,10,-1
 312 32 l 1,11,12
 260 67 260 67 223.5 113.5 c 128,-1,13
 187 160 187 160 165 213 c 128,-1,14
 143 266 143 266 132.5 325.5 c 128,-1,15
 122 385 122 385 122 447 c 0,16,17
 122 541 122 541 152 627.5 c 128,-1,18
 182 714 182 714 238 780 c 128,-1,19
 294 846 294 846 373 885 c 128,-1,20
 452 924 452 924 551 924 c 0,21,22
 594 924 594 924 633 916 c 1,23,-1
 772 1299 l 1,24,-1
 841 1299 l 1,25,-1
 698 897 l 1,26,27
 724 887 724 887 752 867 c 128,-1,28
 780 847 780 847 803.5 822.5 c 128,-1,29
 827 798 827 798 842 769 c 128,-1,30
 857 740 857 740 857 708 c 0,31,32
 857 664 857 664 831.5 644.5 c 128,-1,33
 806 625 806 625 764 625 c 256,34,35
 722 625 722 625 703 638 c 128,-1,36
 684 651 684 651 675 672 c 128,-1,37
 666 693 666 693 662.5 719 c 128,-1,38
 659 745 659 745 650 772 c 1,39,-1
 432 173 l 1,40,41
 464 151 464 151 500.5 139 c 128,-1,42
 537 127 537 127 575 127 c 0,43,44
 630 127 630 127 672.5 145.5 c 128,-1,45
 715 164 715 164 748 195 c 128,-1,46
 781 226 781 226 806.5 267 c 128,-1,47
 832 308 832 308 851 354 c 1,48,-1
 881 341 l 1,0,1
604 838 m 1,49,50
 565 860 565 860 519 860 c 0,51,52
 454 860 454 860 409 829.5 c 128,-1,53
 364 799 364 799 336.5 751 c 128,-1,54
 309 703 309 703 297 645.5 c 128,-1,55
 285 588 285 588 285 533 c 0,56,57
 285 451 285 451 305 369 c 128,-1,58
 325 287 325 287 381 221 c 1,59,-1
 604 838 l 1,49,50
EndSplineSet
EndChar

StartChar: sterling
Encoding: 163 163 101
Width: 1003
GlyphClass: 2
LayerCount: 2
Fore
SplineSet
958 298 m 1,0,1
 952 241 952 241 930.5 183.5 c 128,-1,2
 909 126 909 126 873.5 80.5 c 128,-1,3
 838 35 838 35 789 6 c 128,-1,4
 740 -23 740 -23 676 -23 c 0,5,6
 628 -23 628 -23 586.5 -8.5 c 128,-1,7
 545 6 545 6 506 29 c 128,-1,8
 467 52 467 52 430 80 c 128,-1,9
 393 108 393 108 356 135 c 1,10,11
 343 108 343 108 325.5 79.5 c 128,-1,12
 308 51 308 51 286 28 c 128,-1,13
 264 5 264 5 235.5 -9 c 128,-1,14
 207 -23 207 -23 173 -23 c 0,15,16
 113 -23 113 -23 85.5 10.5 c 128,-1,17
 58 44 58 44 58 101 c 0,18,19
 58 174 58 174 104.5 215 c 128,-1,20
 151 256 151 256 221 256 c 0,21,22
 240 256 240 256 261.5 254 c 128,-1,23
 283 252 283 252 303 247 c 1,24,25
 306 264 306 264 306.5 279.5 c 128,-1,26
 307 295 307 295 307 312 c 0,27,28
 307 396 307 396 299.5 479.5 c 128,-1,29
 292 563 292 563 285 647 c 1,30,-1
 96 647 l 1,31,-1
 96 740 l 1,32,-1
 285 740 l 1,33,34
 282 788 282 788 277 836.5 c 128,-1,35
 272 885 272 885 272 935 c 0,36,37
 272 1016 272 1016 296 1091.5 c 128,-1,38
 320 1167 320 1167 366 1226.5 c 128,-1,39
 412 1286 412 1286 479.5 1321.5 c 128,-1,40
 547 1357 547 1357 636 1357 c 0,41,42
 680 1357 680 1357 724 1344 c 128,-1,43
 768 1331 768 1331 804 1305 c 128,-1,44
 840 1279 840 1279 862 1241.5 c 128,-1,45
 884 1204 884 1204 884 1156 c 0,46,47
 884 1127 884 1127 862 1101 c 128,-1,48
 840 1075 840 1075 810 1075 c 0,49,50
 774 1075 774 1075 759.5 1092 c 128,-1,51
 745 1109 745 1109 739.5 1133.5 c 128,-1,52
 734 1158 734 1158 733 1188 c 128,-1,53
 732 1218 732 1218 721.5 1242.5 c 128,-1,54
 711 1267 711 1267 687 1284 c 128,-1,55
 663 1301 663 1301 612 1301 c 0,56,57
 555 1301 555 1301 520 1275 c 128,-1,58
 485 1249 485 1249 466 1209.5 c 128,-1,59
 447 1170 447 1170 440.5 1121 c 128,-1,60
 434 1072 434 1072 434 1028 c 0,61,62
 434 955 434 955 441 882.5 c 128,-1,63
 448 810 448 810 455 740 c 1,64,-1
 708 740 l 1,65,-1
 708 647 l 1,66,-1
 455 647 l 1,67,68
 455 591 455 591 453 538.5 c 128,-1,69
 451 486 451 486 445 434.5 c 128,-1,70
 439 383 439 383 427.5 332.5 c 128,-1,71
 416 282 416 282 396 229 c 1,72,73
 423 220 423 220 465.5 206 c 128,-1,74
 508 192 508 192 553.5 180 c 128,-1,75
 599 168 599 168 642.5 158.5 c 128,-1,76
 686 149 686 149 714 149 c 0,77,78
 876 149 876 149 922 307 c 1,79,-1
 958 298 l 1,0,1
292 168 m 1,80,81
 257 195 257 195 208 195 c 0,82,83
 166 195 166 195 141.5 175 c 128,-1,84
 117 155 117 155 117 109 c 0,85,86
 117 77 117 77 130.5 56 c 128,-1,87
 144 35 144 35 181 35 c 0,88,89
 207 35 207 35 225.5 48 c 128,-1,90
 244 61 244 61 258 81 c 128,-1,91
 272 101 272 101 279.5 125 c 128,-1,92
 287 149 287 149 292 168 c 1,80,81
EndSplineSet
EndChar

StartChar: currency
Encoding: 164 164 102
Width: 1158
GlyphClass: 2
LayerCount: 2
Fore
SplineSet
1031 309 m 1,0,-1
 831 508 l 1,1,2
 779 463 779 463 716.5 441 c 128,-1,3
 654 419 654 419 584 419 c 0,4,5
 511 419 511 419 446.5 439.5 c 128,-1,6
 382 460 382 460 328 508 c 1,7,-1
 127 309 l 1,8,-1
 58 378 l 1,9,-1
 256 577 l 1,10,11
 214 630 214 630 193.5 693 c 128,-1,12
 173 756 173 756 173 825 c 256,13,14
 173 894 173 894 193 960 c 128,-1,15
 213 1026 213 1026 261 1078 c 1,16,-1
 58 1280 l 1,17,-1
 127 1352 l 1,18,-1
 330 1148 l 1,19,20
 385 1192 385 1192 450 1212 c 128,-1,21
 515 1232 515 1232 584 1232 c 0,22,23
 652 1232 652 1232 712.5 1212 c 128,-1,24
 773 1192 773 1192 825 1148 c 1,25,-1
 1031 1352 l 1,26,-1
 1100 1280 l 1,27,-1
 899 1080 l 1,28,29
 943 1025 943 1025 964 960.5 c 128,-1,30
 985 896 985 896 985 825 c 0,31,32
 985 756 985 756 964.5 693 c 128,-1,33
 944 630 944 630 902 577 c 1,34,-1
 1100 378 l 1,35,-1
 1031 309 l 1,0,-1
876 825 m 256,36,37
 876 886 876 886 853.5 940 c 128,-1,38
 831 994 831 994 790.5 1035 c 128,-1,39
 750 1076 750 1076 696.5 1099.5 c 128,-1,40
 643 1123 643 1123 584 1123 c 0,41,42
 520 1123 520 1123 465.5 1100.5 c 128,-1,43
 411 1078 411 1078 370 1037.5 c 128,-1,44
 329 997 329 997 305.5 942.5 c 128,-1,45
 282 888 282 888 282 825 c 0,46,47
 282 763 282 763 305.5 708.5 c 128,-1,48
 329 654 329 654 370 613.5 c 128,-1,49
 411 573 411 573 465.5 550.5 c 128,-1,50
 520 528 520 528 584 528 c 0,51,52
 645 528 645 528 698 551.5 c 128,-1,53
 751 575 751 575 791 615.5 c 128,-1,54
 831 656 831 656 853.5 710 c 128,-1,55
 876 764 876 764 876 825 c 256,36,37
EndSplineSet
EndChar

StartChar: yen
Encoding: 165 165 103
Width: 1003
GlyphClass: 2
LayerCount: 2
Fore
SplineSet
586 346 m 1,0,-1
 586 239 l 2,1,2
 586 182 586 182 589.5 144.5 c 128,-1,3
 593 107 593 107 608.5 83.5 c 128,-1,4
 624 60 624 60 657.5 50 c 128,-1,5
 691 40 691 40 754 40 c 1,6,-1
 754 0 l 1,7,-1
 247 0 l 1,8,-1
 247 40 l 1,9,10
 311 40 311 40 346 49 c 128,-1,11
 381 58 381 58 397 80.5 c 128,-1,12
 413 103 413 103 416 142 c 128,-1,13
 419 181 419 181 419 239 c 2,14,-1
 419 346 l 1,15,-1
 18 346 l 1,16,-1
 18 419 l 1,17,-1
 419 419 l 1,18,-1
 419 559 l 1,19,-1
 404 594 l 1,20,-1
 18 594 l 1,21,-1
 18 663 l 1,22,-1
 370 663 l 1,23,-1
 162 1150 l 2,24,25
 148 1181 148 1181 135.5 1206.5 c 128,-1,26
 123 1232 123 1232 105.5 1249.5 c 128,-1,27
 88 1267 88 1267 63.5 1278 c 128,-1,28
 39 1289 39 1289 3 1293 c 1,29,-1
 3 1328 l 1,30,-1
 437 1328 l 1,31,-1
 437 1293 l 1,32,33
 424 1292 424 1292 403 1289 c 128,-1,34
 382 1286 382 1286 362.5 1279.5 c 128,-1,35
 343 1273 343 1273 329 1261 c 128,-1,36
 315 1249 315 1249 315 1232 c 0,37,38
 315 1227 315 1227 330.5 1186 c 128,-1,39
 346 1145 346 1145 370.5 1085.5 c 128,-1,40
 395 1026 395 1026 423 956 c 128,-1,41
 451 886 451 886 477 824.5 c 128,-1,42
 503 763 503 763 521 718 c 128,-1,43
 539 673 539 673 543 663 c 1,44,-1
 754 1158 l 2,45,46
 760 1175 760 1175 766 1194 c 128,-1,47
 772 1213 772 1213 772 1232 c 256,48,49
 772 1251 772 1251 761 1263 c 128,-1,50
 750 1275 750 1275 733.5 1281.5 c 128,-1,51
 717 1288 717 1288 697.5 1290 c 128,-1,52
 678 1292 678 1292 663 1293 c 1,53,-1
 663 1328 l 1,54,-1
 1003 1328 l 1,55,-1
 1003 1293 l 1,56,57
 965 1293 965 1293 940 1281 c 128,-1,58
 915 1269 915 1269 895.5 1247.5 c 128,-1,59
 876 1226 876 1226 861.5 1198.5 c 128,-1,60
 847 1171 847 1171 833 1140 c 2,61,-1
 620 663 l 1,62,-1
 985 663 l 1,63,-1
 985 594 l 1,64,-1
 594 594 l 1,65,-1
 586 575 l 1,66,-1
 586 419 l 1,67,-1
 985 419 l 1,68,-1
 985 346 l 1,69,-1
 586 346 l 1,0,-1
EndSplineSet
EndChar

StartChar: brokenbar
Encoding: 166 166 104
Width: 607
GlyphClass: 2
LayerCount: 2
Fore
SplineSet
256 650 m 1,0,-1
 256 1422 l 1,1,-1
 354 1422 l 1,2,-1
 354 650 l 1,3,-1
 256 650 l 1,0,-1
256 -383 m 1,4,-1
 256 389 l 1,5,-1
 354 389 l 1,6,-1
 354 -383 l 1,7,-1
 256 -383 l 1,4,-1
EndSplineSet
EndChar

StartChar: section
Encoding: 167 167 105
Width: 1003
GlyphClass: 2
LayerCount: 2
Fore
SplineSet
851 471 m 0,0,1
 851 414 851 414 835 365.5 c 128,-1,2
 819 317 819 317 789.5 275.5 c 128,-1,3
 760 234 760 234 721 199 c 128,-1,4
 682 164 682 164 636 135 c 1,5,6
 683 86 683 86 718.5 23.5 c 128,-1,7
 754 -39 754 -39 754 -112 c 0,8,9
 754 -172 754 -172 733 -223 c 128,-1,10
 712 -274 712 -274 674.5 -311 c 128,-1,11
 637 -348 637 -348 585.5 -369.5 c 128,-1,12
 534 -391 534 -391 474 -391 c 0,13,14
 427 -391 427 -391 383 -375.5 c 128,-1,15
 339 -360 339 -360 305.5 -331 c 128,-1,16
 272 -302 272 -302 251.5 -262 c 128,-1,17
 231 -222 231 -222 231 -173 c 0,18,19
 231 -139 231 -139 250.5 -112.5 c 128,-1,20
 270 -86 270 -86 307 -86 c 0,21,22
 342 -86 342 -86 362.5 -112 c 128,-1,23
 383 -138 383 -138 383 -170 c 0,24,25
 383 -196 383 -196 374 -223.5 c 128,-1,26
 365 -251 365 -251 365 -277 c 0,27,28
 365 -298 365 -298 377.5 -313 c 128,-1,29
 390 -328 390 -328 407.5 -337 c 128,-1,30
 425 -346 425 -346 446 -350 c 128,-1,31
 467 -354 467 -354 482 -354 c 0,32,33
 513 -354 513 -354 544 -341 c 128,-1,34
 575 -328 575 -328 599.5 -305.5 c 128,-1,35
 624 -283 624 -283 639.5 -254.5 c 128,-1,36
 655 -226 655 -226 655 -195 c 0,37,38
 655 -131 655 -131 618 -78.5 c 128,-1,39
 581 -26 581 -26 525 23.5 c 128,-1,40
 469 73 469 73 403.5 122.5 c 128,-1,41
 338 172 338 172 282 227 c 128,-1,42
 226 282 226 282 189 347.5 c 128,-1,43
 152 413 152 413 152 495 c 0,44,45
 152 551 152 551 168.5 599 c 128,-1,46
 185 647 185 647 214 688 c 128,-1,47
 243 729 243 729 282 763.5 c 128,-1,48
 321 798 321 798 368 825 c 1,49,50
 347 851 347 851 325.5 881 c 128,-1,51
 304 911 304 911 286.5 943.5 c 128,-1,52
 269 976 269 976 258 1010.5 c 128,-1,53
 247 1045 247 1045 247 1080 c 0,54,55
 247 1137 247 1137 269 1187 c 128,-1,56
 291 1237 291 1237 329 1275 c 128,-1,57
 367 1313 367 1313 417 1335 c 128,-1,58
 467 1357 467 1357 524 1357 c 0,59,60
 572 1357 572 1357 617.5 1342.5 c 128,-1,61
 663 1328 663 1328 698 1300.5 c 128,-1,62
 733 1273 733 1273 754 1232.5 c 128,-1,63
 775 1192 775 1192 775 1140 c 0,64,65
 775 1102 775 1102 757.5 1077 c 128,-1,66
 740 1052 740 1052 698 1052 c 0,67,68
 668 1052 668 1052 644 1074 c 128,-1,69
 620 1096 620 1096 620 1126 c 0,70,71
 620 1151 620 1151 626.5 1174 c 128,-1,72
 633 1197 633 1197 633 1222 c 0,73,74
 633 1274 633 1274 603 1294.5 c 128,-1,75
 573 1315 573 1315 524 1315 c 0,76,77
 488 1315 488 1315 456.5 1302 c 128,-1,78
 425 1289 425 1289 402.5 1266.5 c 128,-1,79
 380 1244 380 1244 367 1213 c 128,-1,80
 354 1182 354 1182 354 1145 c 0,81,82
 354 1081 354 1081 391 1030 c 128,-1,83
 428 979 428 979 483 931.5 c 128,-1,84
 538 884 538 884 602.5 837 c 128,-1,85
 667 790 667 790 722 736 c 128,-1,86
 777 682 777 682 814 617.5 c 128,-1,87
 851 553 851 553 851 471 c 0,0,1
402 795 m 1,88,89
 371 777 371 777 343.5 755 c 128,-1,90
 316 733 316 733 296 705.5 c 128,-1,91
 276 678 276 678 263.5 646 c 128,-1,92
 251 614 251 614 251 577 c 0,93,94
 251 526 251 526 269 485.5 c 128,-1,95
 287 445 287 445 317 409.5 c 128,-1,96
 347 374 347 374 385.5 343.5 c 128,-1,97
 424 313 424 313 463 284 c 128,-1,98
 502 255 502 255 538.5 225.5 c 128,-1,99
 575 196 575 196 602 165 c 1,100,101
 631 183 631 183 658 205 c 128,-1,102
 685 227 685 227 706 254.5 c 128,-1,103
 727 282 727 282 739 314 c 128,-1,104
 751 346 751 346 751 383 c 0,105,106
 751 447 751 447 713 505.5 c 128,-1,107
 675 564 675 564 620 616.5 c 128,-1,108
 565 669 565 669 505.5 714 c 128,-1,109
 446 759 446 759 402 795 c 1,88,89
EndSplineSet
EndChar

StartChar: dieresis
Encoding: 168 168 106
Width: 599
GlyphClass: 2
LayerCount: 2
Fore
SplineSet
599 1204 m 0,0,1
 599 1183 599 1183 591.5 1164 c 128,-1,2
 584 1145 584 1145 570 1131.5 c 128,-1,3
 556 1118 556 1118 538 1110 c 128,-1,4
 520 1102 520 1102 500 1102 c 0,5,6
 460 1102 460 1102 429.5 1132.5 c 128,-1,7
 399 1163 399 1163 399 1204 c 0,8,9
 399 1223 399 1223 407.5 1240.5 c 128,-1,10
 416 1258 416 1258 430.5 1272 c 128,-1,11
 445 1286 445 1286 463 1293.5 c 128,-1,12
 481 1301 481 1301 500 1301 c 0,13,14
 540 1301 540 1301 569.5 1272.5 c 128,-1,15
 599 1244 599 1244 599 1204 c 0,0,1
200 1204 m 0,16,17
 200 1183 200 1183 191.5 1164 c 128,-1,18
 183 1145 183 1145 169.5 1131.5 c 128,-1,19
 156 1118 156 1118 137 1110 c 128,-1,20
 118 1102 118 1102 99 1102 c 0,21,22
 59 1102 59 1102 29.5 1132.5 c 128,-1,23
 0 1163 0 1163 0 1204 c 0,24,25
 0 1223 0 1223 8.5 1240.5 c 128,-1,26
 17 1258 17 1258 30.5 1272 c 128,-1,27
 44 1286 44 1286 61.5 1293.5 c 128,-1,28
 79 1301 79 1301 99 1301 c 0,29,30
 139 1301 139 1301 169.5 1272.5 c 128,-1,31
 200 1244 200 1244 200 1204 c 0,16,17
EndSplineSet
EndChar

StartChar: copyright
Encoding: 169 169 107
Width: 1525
GlyphClass: 2
LayerCount: 2
Fore
SplineSet
1458 663 m 0,0,1
 1458 517 1458 517 1404 390.5 c 128,-1,2
 1350 264 1350 264 1256.5 169.5 c 128,-1,3
 1163 75 1163 75 1036 21.5 c 128,-1,4
 909 -32 909 -32 762 -32 c 256,5,6
 615 -32 615 -32 488 21.5 c 128,-1,7
 361 75 361 75 267.5 169 c 128,-1,8
 174 263 174 263 120 389.5 c 128,-1,9
 66 516 66 516 66 663 c 0,10,11
 66 811 66 811 120 938 c 128,-1,12
 174 1065 174 1065 267.5 1157.5 c 128,-1,13
 361 1250 361 1250 488 1303.5 c 128,-1,14
 615 1357 615 1357 762 1357 c 0,15,16
 910 1357 910 1357 1037.5 1303.5 c 128,-1,17
 1165 1250 1165 1250 1258.5 1157.5 c 128,-1,18
 1352 1065 1352 1065 1405 938 c 128,-1,19
 1458 811 1458 811 1458 663 c 0,0,1
1397 663 m 0,20,21
 1397 797 1397 797 1348 912.5 c 128,-1,22
 1299 1028 1299 1028 1213 1114 c 128,-1,23
 1127 1200 1127 1200 1011.5 1249.5 c 128,-1,24
 896 1299 896 1299 762 1299 c 0,25,26
 629 1299 629 1299 513.5 1249.5 c 128,-1,27
 398 1200 398 1200 312.5 1113.5 c 128,-1,28
 227 1027 227 1027 178.5 911 c 128,-1,29
 130 795 130 795 130 663 c 0,30,31
 130 530 130 530 178.5 415 c 128,-1,32
 227 300 227 300 312.5 215 c 128,-1,33
 398 130 398 130 513.5 81 c 128,-1,34
 629 32 629 32 762 32 c 0,35,36
 896 32 896 32 1011.5 81 c 128,-1,37
 1127 130 1127 130 1213 215 c 128,-1,38
 1299 300 1299 300 1348 415 c 128,-1,39
 1397 530 1397 530 1397 663 c 0,20,21
1143 421 m 1,40,41
 1074 322 1074 322 979.5 271.5 c 128,-1,42
 885 221 885 221 767 221 c 0,43,44
 673 221 673 221 590 253.5 c 128,-1,45
 507 286 507 286 445 344 c 128,-1,46
 383 402 383 402 347.5 482 c 128,-1,47
 312 562 312 562 312 658 c 0,48,49
 312 763 312 763 351 847.5 c 128,-1,50
 390 932 390 932 456.5 991 c 128,-1,51
 523 1050 523 1050 612 1081.5 c 128,-1,52
 701 1113 701 1113 801 1113 c 0,53,54
 832 1113 832 1113 864 1105.5 c 128,-1,55
 896 1098 896 1098 925 1089.5 c 128,-1,56
 954 1081 954 1081 978.5 1074 c 128,-1,57
 1003 1067 1003 1067 1019 1067 c 0,58,59
 1037 1067 1037 1067 1049 1082 c 128,-1,60
 1061 1097 1061 1097 1067 1113 c 1,61,-1
 1105 1113 l 1,62,-1
 1126 838 l 1,63,-1
 1089 838 l 1,64,65
 1053 945 1053 945 981 1006 c 128,-1,66
 909 1067 909 1067 790 1067 c 0,67,68
 706 1067 706 1067 646 1036 c 128,-1,69
 586 1005 586 1005 548.5 952 c 128,-1,70
 511 899 511 899 492.5 830.5 c 128,-1,71
 474 762 474 762 474 686 c 0,72,73
 474 608 474 608 492 535.5 c 128,-1,74
 510 463 510 463 548 407 c 128,-1,75
 586 351 586 351 648.5 318 c 128,-1,76
 711 285 711 285 801 285 c 0,77,78
 997 285 997 285 1105 442 c 1,79,-1
 1143 421 l 1,40,41
EndSplineSet
EndChar

StartChar: ordfeminine
Encoding: 170 170 108
Width: 639
GlyphClass: 2
LayerCount: 2
Fore
SplineSet
637 867 m 1,0,1
 559 780 559 780 485 780 c 0,2,3
 455 780 455 780 432 798 c 128,-1,4
 409 816 409 816 409 867 c 1,5,6
 366 840 366 840 338.5 823 c 128,-1,7
 311 806 311 806 289.5 796 c 128,-1,8
 268 786 268 786 249 783 c 128,-1,9
 230 780 230 780 204 780 c 0,10,11
 134 780 134 780 91.5 817.5 c 128,-1,12
 49 855 49 855 49 918 c 0,13,14
 49 948 49 948 62 974.5 c 128,-1,15
 75 1001 75 1001 114 1028 c 128,-1,16
 153 1055 153 1055 223.5 1084.5 c 128,-1,17
 294 1114 294 1114 409 1148 c 1,18,-1
 409 1169 l 2,19,20
 409 1247 409 1247 379.5 1278.5 c 128,-1,21
 350 1310 350 1310 287 1310 c 0,22,23
 244 1310 244 1310 219 1290.5 c 128,-1,24
 194 1271 194 1271 191 1244 c 0,25,26
 192 1236 192 1236 193 1225 c 128,-1,27
 194 1214 194 1214 194 1208 c 0,28,29
 194 1181 194 1181 177.5 1167 c 128,-1,30
 161 1153 161 1153 135 1153 c 0,31,32
 75 1153 75 1153 75 1209 c 0,33,34
 75 1240 75 1240 94.5 1265.5 c 128,-1,35
 114 1291 114 1291 146.5 1308.5 c 128,-1,36
 179 1326 179 1326 221.5 1335 c 128,-1,37
 264 1344 264 1344 311 1344 c 0,38,39
 381 1344 381 1344 423 1331 c 128,-1,40
 465 1318 465 1318 488.5 1294 c 128,-1,41
 512 1270 512 1270 519 1236 c 128,-1,42
 526 1202 526 1202 526 1161 c 2,43,-1
 526 977 l 2,44,45
 526 899 526 899 530 883 c 0,46,47
 534 866 534 866 540.5 859.5 c 128,-1,48
 547 853 547 853 562 853 c 0,49,50
 567 853 567 853 572.5 854 c 128,-1,51
 578 855 578 855 586 859.5 c 128,-1,52
 594 864 594 864 606.5 874 c 128,-1,53
 619 884 619 884 637 901 c 1,54,-1
 637 867 l 1,0,1
57 641 m 1,55,-1
 57 684 l 1,56,-1
 627 684 l 1,57,-1
 627 641 l 1,58,-1
 57 641 l 1,55,-1
409 1113 m 1,59,60
 327 1086 327 1086 280 1063.5 c 128,-1,61
 233 1041 233 1041 208 1021 c 128,-1,62
 183 1001 183 1001 176.5 982 c 128,-1,63
 170 963 170 963 170 944 c 0,64,65
 170 904 170 904 199.5 875 c 128,-1,66
 229 846 229 846 269 846 c 0,67,68
 322 846 322 846 409 906 c 1,69,-1
 409 1113 l 1,59,60
EndSplineSet
EndChar

StartChar: guillemotleft
Encoding: 171 171 109
Width: 849
GlyphClass: 2
LayerCount: 2
Fore
SplineSet
199 340 m 0,0,1
 199 129 199 129 381 -27 c 0,2,3
 396 -39 396 -39 387 -57 c 0,4,5
 374 -77 374 -77 352 -66 c 0,6,7
 235 -6 235 -6 168 104 c 0,8,9
 100 216 100 216 100 340 c 0,10,11
 100 466 100 466 168 575 c 0,12,13
 236 687 236 687 352 745 c 0,14,15
 377 757 377 757 387 737 c 0,16,17
 396 719 396 719 381 707 c 0,18,19
 199 563 199 563 199 340 c 0,0,1
557 340 m 0,20,21
 557 129 557 129 739 -27 c 0,22,23
 754 -39 754 -39 745 -57 c 0,24,25
 732 -76 732 -76 711 -66 c 0,26,27
 590 -4 590 -4 524 104 c 0,28,29
 459 211 459 211 459 340 c 0,30,31
 459 471 459 471 524 575 c 0,32,33
 591 685 591 685 711 745 c 0,34,35
 735 757 735 757 745 737 c 0,36,37
 754 719 754 719 739 707 c 0,38,39
 557 563 557 563 557 340 c 0,20,21
EndSplineSet
EndChar

StartChar: logicalnot
Encoding: 172 172 110
Width: 1198
GlyphClass: 2
LayerCount: 2
Fore
SplineSet
1003 365 m 1,0,-1
 1003 695 l 1,1,-1
 77 695 l 1,2,-1
 77 812 l 1,3,-1
 1120 812 l 1,4,-1
 1120 365 l 1,5,-1
 1003 365 l 1,0,-1
EndSplineSet
EndChar

StartChar: sfthyphen
Encoding: 173 173 111
Width: 668
GlyphClass: 2
LayerCount: 2
Fore
SplineSet
79 376 m 1,0,-1
 79 521 l 1,1,-1
 586 521 l 1,2,-1
 586 376 l 1,3,-1
 79 376 l 1,0,-1
EndSplineSet
EndChar

StartChar: registered
Encoding: 174 174 112
Width: 1525
GlyphClass: 2
LayerCount: 2
Fore
SplineSet
1458 663 m 0,0,1
 1458 517 1458 517 1404 390.5 c 128,-1,2
 1350 264 1350 264 1256.5 169.5 c 128,-1,3
 1163 75 1163 75 1036 21.5 c 128,-1,4
 909 -32 909 -32 762 -32 c 256,5,6
 615 -32 615 -32 488 21.5 c 128,-1,7
 361 75 361 75 267.5 169 c 128,-1,8
 174 263 174 263 120 389.5 c 128,-1,9
 66 516 66 516 66 663 c 0,10,11
 66 811 66 811 120 938 c 128,-1,12
 174 1065 174 1065 267.5 1157.5 c 128,-1,13
 361 1250 361 1250 488 1303.5 c 128,-1,14
 615 1357 615 1357 762 1357 c 0,15,16
 910 1357 910 1357 1037.5 1303.5 c 128,-1,17
 1165 1250 1165 1250 1258.5 1157.5 c 128,-1,18
 1352 1065 1352 1065 1405 938 c 128,-1,19
 1458 811 1458 811 1458 663 c 0,0,1
1397 663 m 0,20,21
 1397 797 1397 797 1348 912.5 c 128,-1,22
 1299 1028 1299 1028 1213 1114 c 128,-1,23
 1127 1200 1127 1200 1011.5 1249.5 c 128,-1,24
 896 1299 896 1299 762 1299 c 0,25,26
 629 1299 629 1299 513.5 1249.5 c 128,-1,27
 398 1200 398 1200 312.5 1113.5 c 128,-1,28
 227 1027 227 1027 178.5 911 c 128,-1,29
 130 795 130 795 130 663 c 0,30,31
 130 530 130 530 178.5 415 c 128,-1,32
 227 300 227 300 312.5 215 c 128,-1,33
 398 130 398 130 513.5 81 c 128,-1,34
 629 32 629 32 762 32 c 0,35,36
 896 32 896 32 1011.5 81 c 128,-1,37
 1127 130 1127 130 1213 215 c 128,-1,38
 1299 300 1299 300 1348 415 c 128,-1,39
 1397 530 1397 530 1397 663 c 0,20,21
972 244 m 1,40,-1
 684 642 l 1,41,-1
 610 642 l 1,42,-1
 610 351 l 2,43,44
 610 326 610 326 619 311 c 128,-1,45
 628 296 628 296 643.5 288.5 c 128,-1,46
 659 281 659 281 680.5 279 c 128,-1,47
 702 277 702 277 727 277 c 1,48,-1
 727 244 l 1,49,-1
 368 244 l 1,50,-1
 368 277 l 1,51,52
 402 277 402 277 421.5 283.5 c 128,-1,53
 441 290 441 290 450.5 305.5 c 128,-1,54
 460 321 460 321 462.5 346.5 c 128,-1,55
 465 372 465 372 465 409 c 2,56,-1
 465 950 l 2,57,58
 465 979 465 979 463 999 c 128,-1,59
 461 1019 461 1019 452 1032 c 128,-1,60
 443 1045 443 1045 426 1051 c 128,-1,61
 409 1057 409 1057 378 1057 c 1,62,-1
 378 1092 l 1,63,-1
 756 1092 l 2,64,65
 807 1092 807 1092 859 1080 c 128,-1,66
 911 1068 911 1068 953.5 1041.5 c 128,-1,67
 996 1015 996 1015 1022.5 973.5 c 128,-1,68
 1049 932 1049 932 1049 873 c 0,69,70
 1049 824 1049 824 1031 787.5 c 128,-1,71
 1013 751 1013 751 983 724.5 c 128,-1,72
 953 698 953 698 913 681 c 128,-1,73
 873 664 873 664 831 655 c 1,74,-1
 1036 363 l 2,75,76
 1061 328 1061 328 1088 304.5 c 128,-1,77
 1115 281 1115 281 1156 277 c 1,78,-1
 1156 244 l 1,79,-1
 972 244 l 1,40,-1
892 860 m 0,80,81
 892 904 892 904 876 939 c 128,-1,82
 860 974 860 974 833 998.5 c 128,-1,83
 806 1023 806 1023 769.5 1036 c 128,-1,84
 733 1049 733 1049 691 1049 c 0,85,86
 672 1049 672 1049 650.5 1045.5 c 128,-1,87
 629 1042 629 1042 610 1036 c 1,88,-1
 610 684 l 1,89,90
 655 684 655 684 705 690.5 c 128,-1,91
 755 697 755 697 796.5 715.5 c 128,-1,92
 838 734 838 734 865 768.5 c 128,-1,93
 892 803 892 803 892 860 c 0,80,81
EndSplineSet
EndChar

StartChar: macron
Encoding: 175 175 113
Width: 627
GlyphClass: 2
LayerCount: 2
Fore
SplineSet
0 1102 m 1,0,-1
 0 1211 l 1,1,-1
 628 1211 l 1,2,-1
 628 1102 l 1,3,-1
 0 1102 l 1,0,-1
EndSplineSet
EndChar

StartChar: degree
Encoding: 176 176 114
Width: 617
GlyphClass: 2
LayerCount: 2
Fore
SplineSet
521 1176 m 256,0,1
 521 1132 521 1132 505 1093.5 c 128,-1,2
 489 1055 489 1055 460.5 1026.5 c 128,-1,3
 432 998 432 998 393 982 c 128,-1,4
 354 966 354 966 309 966 c 256,5,6
 264 966 264 966 225 982 c 128,-1,7
 186 998 186 998 157.5 1026.5 c 128,-1,8
 129 1055 129 1055 112.5 1093.5 c 128,-1,9
 96 1132 96 1132 96 1176 c 256,10,11
 96 1220 96 1220 112.5 1259.5 c 128,-1,12
 129 1299 129 1299 157.5 1328 c 128,-1,13
 186 1357 186 1357 225 1373 c 128,-1,14
 264 1389 264 1389 309 1389 c 0,15,16
 353 1389 353 1389 392.5 1373 c 128,-1,17
 432 1357 432 1357 460.5 1328 c 128,-1,18
 489 1299 489 1299 505 1259.5 c 128,-1,19
 521 1220 521 1220 521 1176 c 256,0,1
445 1176 m 0,20,21
 445 1205 445 1205 434.5 1229.5 c 128,-1,22
 424 1254 424 1254 405 1272.5 c 128,-1,23
 386 1291 386 1291 361.5 1302 c 128,-1,24
 337 1313 337 1313 309 1313 c 0,25,26
 280 1313 280 1313 255.5 1302 c 128,-1,27
 231 1291 231 1291 212.5 1272.5 c 128,-1,28
 194 1254 194 1254 183.5 1229.5 c 128,-1,29
 173 1205 173 1205 173 1176 c 0,30,31
 173 1149 173 1149 183.5 1124.5 c 128,-1,32
 194 1100 194 1100 212.5 1082.5 c 128,-1,33
 231 1065 231 1065 256 1054.5 c 128,-1,34
 281 1044 281 1044 309 1044 c 0,35,36
 336 1044 336 1044 361 1054.5 c 128,-1,37
 386 1065 386 1065 405 1082.5 c 128,-1,38
 424 1100 424 1100 434.5 1124.5 c 128,-1,39
 445 1149 445 1149 445 1176 c 0,20,21
EndSplineSet
EndChar

StartChar: plusminus
Encoding: 177 177 115
Width: 1930
GlyphClass: 2
LayerCount: 2
Fore
SplineSet
1024 691 m 1,0,-1
 1024 343 l 1,1,-1
 905 343 l 1,2,-1
 905 691 l 1,3,-1
 386 691 l 1,4,-1
 386 812 l 1,5,-1
 905 812 l 1,6,-1
 905 1158 l 1,7,-1
 1024 1158 l 1,8,-1
 1024 812 l 1,9,-1
 1544 812 l 1,10,-1
 1544 691 l 1,11,-1
 1024 691 l 1,0,-1
386 0 m 1,12,-1
 386 120 l 1,13,-1
 1544 120 l 1,14,-1
 1544 0 l 1,15,-1
 386 0 l 1,12,-1
EndSplineSet
EndChar

StartChar: twosuperior
Encoding: 178 178 116
Width: 705
GlyphClass: 2
LayerCount: 2
Fore
SplineSet
586 503 m 1,0,-1
 23 503 l 1,1,-1
 23 524 l 1,2,3
 98 581 98 581 178.5 646 c 128,-1,4
 259 711 259 711 324.5 780 c 128,-1,5
 390 849 390 849 432 918.5 c 128,-1,6
 474 988 474 988 474 1054 c 0,7,8
 474 1094 474 1094 459.5 1126.5 c 128,-1,9
 445 1159 445 1159 419 1181.5 c 128,-1,10
 393 1204 393 1204 358.5 1215.5 c 128,-1,11
 324 1227 324 1227 285 1227 c 0,12,13
 211 1227 211 1227 158 1195 c 128,-1,14
 105 1163 105 1163 77 1092 c 1,15,-1
 53 1092 l 1,16,17
 69 1208 69 1208 138.5 1263 c 128,-1,18
 208 1318 208 1318 322 1318 c 0,19,20
 367 1318 367 1318 416 1305 c 128,-1,21
 465 1292 465 1292 505 1266 c 128,-1,22
 545 1240 545 1240 571 1200.5 c 128,-1,23
 597 1161 597 1161 597 1107 c 0,24,25
 597 1063 597 1063 574.5 1015.5 c 128,-1,26
 552 968 552 968 516 919.5 c 128,-1,27
 480 871 480 871 433.5 824 c 128,-1,28
 387 777 387 777 340.5 734 c 128,-1,29
 294 691 294 691 249.5 655.5 c 128,-1,30
 205 620 205 620 173 594 c 1,31,-1
 426 594 l 2,32,33
 465 594 465 594 494.5 595.5 c 128,-1,34
 524 597 524 597 547.5 603.5 c 128,-1,35
 571 610 571 610 590.5 622 c 128,-1,36
 610 634 610 634 628 658 c 1,37,-1
 655 658 l 1,38,-1
 586 503 l 1,0,-1
EndSplineSet
EndChar

StartChar: threesuperior
Encoding: 179 179 117
Width: 705
GlyphClass: 2
LayerCount: 2
Fore
SplineSet
594 775 m 0,0,1
 594 698 594 698 559 644.5 c 128,-1,2
 524 591 524 591 469.5 558 c 128,-1,3
 415 525 415 525 348 510 c 128,-1,4
 281 495 281 495 216 495 c 0,5,6
 200 495 200 495 173 496.5 c 128,-1,7
 146 498 146 498 119 504.5 c 128,-1,8
 92 511 92 511 72.5 523.5 c 128,-1,9
 53 536 53 536 53 559 c 0,10,11
 53 585 53 585 70 592 c 128,-1,12
 87 599 87 599 109 599 c 0,13,14
 132 599 132 599 155 590.5 c 128,-1,15
 178 582 178 582 202.5 572.5 c 128,-1,16
 227 563 227 563 254.5 554.5 c 128,-1,17
 282 546 282 546 312 546 c 0,18,19
 343 546 343 546 375 557.5 c 128,-1,20
 407 569 407 569 432.5 589.5 c 128,-1,21
 458 610 458 610 474 639 c 128,-1,22
 490 668 490 668 490 703 c 0,23,24
 490 763 490 763 465.5 802 c 128,-1,25
 441 841 441 841 401 863 c 128,-1,26
 361 885 361 885 312 894 c 128,-1,27
 263 903 263 903 213 905 c 1,28,-1
 213 924 l 1,29,30
 249 928 249 928 288.5 941 c 128,-1,31
 328 954 328 954 359.5 977 c 128,-1,32
 391 1000 391 1000 411.5 1032.5 c 128,-1,33
 432 1065 432 1065 432 1107 c 0,34,35
 432 1141 432 1141 418 1166.5 c 128,-1,36
 404 1192 404 1192 382 1209 c 128,-1,37
 360 1226 360 1226 331.5 1234.5 c 128,-1,38
 303 1243 303 1243 272 1243 c 0,39,40
 214 1243 214 1243 168 1217 c 128,-1,41
 122 1191 122 1191 88 1145 c 1,42,-1
 66 1156 l 1,43,44
 106 1233 106 1233 170.5 1278 c 128,-1,45
 235 1323 235 1323 325 1323 c 0,46,47
 361 1323 361 1323 400 1314 c 128,-1,48
 439 1305 439 1305 471.5 1285.5 c 128,-1,49
 504 1266 504 1266 525 1235.5 c 128,-1,50
 546 1205 546 1205 546 1161 c 0,51,52
 546 1134 546 1134 533.5 1107.5 c 128,-1,53
 521 1081 521 1081 503 1058.5 c 128,-1,54
 485 1036 485 1036 462 1016.5 c 128,-1,55
 439 997 439 997 419 983 c 1,56,57
 494 958 494 958 544 908 c 128,-1,58
 594 858 594 858 594 775 c 0,0,1
EndSplineSet
EndChar

StartChar: acute
Encoding: 180 180 118
Width: 686
GlyphClass: 2
LayerCount: 2
Fore
SplineSet
564 1306 m 0,0,1
 564 1272 564 1272 540.5 1248 c 128,-1,2
 517 1224 517 1224 485 1204 c 2,3,-1
 195 1022 l 1,4,-1
 114 1022 l 1,5,-1
 391 1301 l 2,6,7
 416 1326 416 1326 446 1345.5 c 128,-1,8
 476 1365 476 1365 512 1365 c 0,9,10
 537 1365 537 1365 550.5 1346.5 c 128,-1,11
 564 1328 564 1328 564 1306 c 0,0,1
EndSplineSet
EndChar

StartChar: mu
Encoding: 181 181 119
Width: 1136
GlyphClass: 2
LayerCount: 2
Fore
SplineSet
1062 203 m 1,0,1
 1059 156 1059 156 1047.5 114.5 c 128,-1,2
 1036 73 1036 73 1014 40.5 c 128,-1,3
 992 8 992 8 956 -11 c 128,-1,4
 920 -30 920 -30 868 -30 c 0,5,6
 826 -30 826 -30 799 -13 c 128,-1,7
 772 4 772 4 754 30.5 c 128,-1,8
 736 57 736 57 726.5 90 c 128,-1,9
 717 123 717 123 714 157 c 1,10,11
 684 125 684 125 650 91.5 c 128,-1,12
 616 58 616 58 577 31 c 128,-1,13
 538 4 538 4 494.5 -13 c 128,-1,14
 451 -30 451 -30 404 -30 c 0,15,16
 305 -30 305 -30 253 56 c 1,17,-1
 253 10 l 2,18,19
 253 -33 253 -33 260.5 -75 c 128,-1,20
 268 -117 268 -117 275.5 -158.5 c 128,-1,21
 283 -200 283 -200 290.5 -241.5 c 128,-1,22
 298 -283 298 -283 298 -325 c 0,23,24
 298 -344 298 -344 292 -363.5 c 128,-1,25
 286 -383 286 -383 274.5 -399 c 128,-1,26
 263 -415 263 -415 246 -424.5 c 128,-1,27
 229 -434 229 -434 208 -434 c 256,28,29
 187 -434 187 -434 171 -424.5 c 128,-1,30
 155 -415 155 -415 144.5 -399 c 128,-1,31
 134 -383 134 -383 128 -364.5 c 128,-1,32
 122 -346 122 -346 122 -328 c 0,33,34
 122 -290 122 -290 133 -246.5 c 128,-1,35
 144 -203 144 -203 152 -165 c 0,36,37
 171 -79 171 -79 177 9 c 128,-1,38
 183 97 183 97 183 186 c 2,39,-1
 183 894 l 1,40,-1
 343 894 l 1,41,-1
 343 360 l 2,42,43
 343 313 343 313 346.5 265.5 c 128,-1,44
 350 218 350 218 363.5 180 c 128,-1,45
 377 142 377 142 405 118 c 128,-1,46
 433 94 433 94 482 94 c 0,47,48
 517 94 517 94 549 105 c 128,-1,49
 581 116 581 116 610.5 134 c 128,-1,50
 640 152 640 152 665.5 175.5 c 128,-1,51
 691 199 691 199 714 224 c 1,52,-1
 714 894 l 1,53,-1
 876 894 l 1,54,-1
 876 247 l 2,55,56
 876 220 876 220 878 190.5 c 128,-1,57
 880 161 880 161 886.5 136.5 c 128,-1,58
 893 112 893 112 906 95.5 c 128,-1,59
 919 79 919 79 942 79 c 0,60,61
 961 79 961 79 975.5 93 c 128,-1,62
 990 107 990 107 999.5 126.5 c 128,-1,63
 1009 146 1009 146 1014 166.5 c 128,-1,64
 1019 187 1019 187 1022 203 c 1,65,-1
 1062 203 l 1,0,1
EndSplineSet
EndChar

StartChar: paragraph
Encoding: 182 182 120
Width: 907
GlyphClass: 2
LayerCount: 2
Fore
SplineSet
782 1275 m 1,0,-1
 782 -434 l 1,1,-1
 711 -434 l 1,2,-1
 711 1275 l 1,3,-1
 530 1275 l 1,4,-1
 530 -434 l 1,5,-1
 458 -434 l 1,6,-1
 458 591 l 1,7,8
 366 592 366 592 280.5 610.5 c 128,-1,9
 195 629 195 629 130 671.5 c 128,-1,10
 65 714 65 714 26 784 c 128,-1,11
 -13 854 -13 854 -13 961 c 0,12,13
 -13 1060 -13 1060 22.5 1130 c 128,-1,14
 58 1200 58 1200 118.5 1244 c 128,-1,15
 179 1288 179 1288 259 1308 c 128,-1,16
 339 1328 339 1328 429 1328 c 2,17,-1
 912 1328 l 1,18,-1
 912 1275 l 1,19,-1
 782 1275 l 1,0,-1
EndSplineSet
EndChar

StartChar: periodcentered
Encoding: 183 183 121
Width: 362
GlyphClass: 2
LayerCount: 2
Fore
SplineSet
295 658 m 0,0,1
 295 609 295 609 262 576 c 128,-1,2
 229 543 229 543 181 543 c 256,3,4
 133 543 133 543 99.5 575.5 c 128,-1,5
 66 608 66 608 66 658 c 0,6,7
 66 706 66 706 99.5 737.5 c 128,-1,8
 133 769 133 769 181 769 c 256,9,10
 229 769 229 769 262 737.5 c 128,-1,11
 295 706 295 706 295 658 c 0,0,1
EndSplineSet
EndChar

StartChar: cedilla
Encoding: 184 184 122
Width: 470
GlyphClass: 2
LayerCount: 2
Fore
SplineSet
445 -264 m 0,0,1
 445 -311 445 -311 419 -342.5 c 128,-1,2
 393 -374 393 -374 354 -394.5 c 128,-1,3
 315 -415 315 -415 269.5 -423.5 c 128,-1,4
 224 -432 224 -432 186 -432 c 0,5,6
 105 -432 105 -432 23 -402 c 1,7,-1
 53 -338 l 1,8,9
 117 -363 117 -363 178 -363 c 0,10,11
 200 -363 200 -363 221 -359 c 128,-1,12
 242 -355 242 -355 259 -345 c 128,-1,13
 276 -335 276 -335 285.5 -319 c 128,-1,14
 295 -303 295 -303 295 -277 c 0,15,16
 295 -233 295 -233 269 -216.5 c 128,-1,17
 243 -200 243 -200 203 -200 c 0,18,19
 185 -200 185 -200 166.5 -202 c 128,-1,20
 148 -204 148 -204 130 -211 c 1,21,-1
 117 -200 l 1,22,-1
 205 13 l 1,23,-1
 277 13 l 1,24,-1
 221 -130 l 1,25,26
 235 -127 235 -127 249 -126 c 128,-1,27
 263 -125 263 -125 277 -125 c 0,28,29
 309 -125 309 -125 339.5 -133.5 c 128,-1,30
 370 -142 370 -142 393.5 -158.5 c 128,-1,31
 417 -175 417 -175 431 -201.5 c 128,-1,32
 445 -228 445 -228 445 -264 c 0,0,1
EndSplineSet
EndChar

StartChar: onesuperior
Encoding: 185 185 123
Width: 705
GlyphClass: 2
LayerCount: 2
Fore
SplineSet
178 503 m 1,0,-1
 178 524 l 1,1,2
 218 524 218 524 242 527 c 128,-1,3
 266 530 266 530 279 543 c 128,-1,4
 292 556 292 556 296 579.5 c 128,-1,5
 300 603 300 603 300 645 c 2,6,-1
 300 1120 l 2,7,8
 300 1164 300 1164 291 1193 c 128,-1,9
 282 1222 282 1222 244 1222 c 0,10,11
 226 1222 226 1222 208 1216.5 c 128,-1,12
 190 1211 190 1211 173 1204 c 1,13,-1
 162 1224 l 1,14,-1
 394 1318 l 1,15,-1
 419 1318 l 1,16,-1
 419 645 l 2,17,18
 419 603 419 603 422.5 579.5 c 128,-1,19
 426 556 426 556 438.5 543 c 128,-1,20
 451 530 451 530 474.5 527 c 128,-1,21
 498 524 498 524 538 524 c 1,22,-1
 538 503 l 1,23,-1
 178 503 l 1,0,-1
EndSplineSet
EndChar

StartChar: ordmasculine
Encoding: 186 186 124
Width: 735
GlyphClass: 2
LayerCount: 2
Fore
SplineSet
680 1070 m 0,0,1
 680 1018 680 1018 660 964.5 c 128,-1,2
 640 911 640 911 600 868 c 128,-1,3
 560 825 560 825 501 798.5 c 128,-1,4
 442 772 442 772 363 772 c 0,5,6
 295 772 295 772 238.5 795 c 128,-1,7
 182 818 182 818 141.5 857 c 128,-1,8
 101 896 101 896 78.5 946.5 c 128,-1,9
 56 997 56 997 56 1054 c 0,10,11
 56 1109 56 1109 77.5 1161 c 128,-1,12
 99 1213 99 1213 139 1254 c 128,-1,13
 179 1295 179 1295 237 1319.5 c 128,-1,14
 295 1344 295 1344 369 1344 c 0,15,16
 439 1344 439 1344 496.5 1322.5 c 128,-1,17
 554 1301 554 1301 595 1264 c 128,-1,18
 636 1227 636 1227 658 1177 c 128,-1,19
 680 1127 680 1127 680 1070 c 0,0,1
68 641 m 1,20,-1
 68 684 l 1,21,-1
 671 684 l 1,22,-1
 671 641 l 1,23,-1
 68 641 l 1,20,-1
549 1023 m 0,24,25
 549 1083 549 1083 535 1135 c 128,-1,26
 521 1187 521 1187 495 1224.5 c 128,-1,27
 469 1262 469 1262 432 1284 c 128,-1,28
 395 1306 395 1306 348 1306 c 0,29,30
 321 1306 321 1306 292.5 1296.5 c 128,-1,31
 264 1287 264 1287 240.5 1263 c 128,-1,32
 217 1239 217 1239 202 1200 c 128,-1,33
 187 1161 187 1161 187 1102 c 0,34,35
 187 1045 187 1045 202 993 c 128,-1,36
 217 941 217 941 243.5 901.5 c 128,-1,37
 270 862 270 862 308 838.5 c 128,-1,38
 346 815 346 815 393 815 c 0,39,40
 428 815 428 815 456.5 826 c 128,-1,41
 485 837 485 837 505 861.5 c 128,-1,42
 525 886 525 886 537 926 c 128,-1,43
 549 966 549 966 549 1023 c 0,24,25
EndSplineSet
EndChar

StartChar: guillemotright
Encoding: 187 187 125
Width: 849
GlyphClass: 2
LayerCount: 2
Fore
SplineSet
651 340 m 0,0,1
 651 563 651 563 469 707 c 0,2,3
 454 719 454 719 463 737 c 0,4,5
 473 757 473 757 498 745 c 0,6,7
 614 687 614 687 682 575 c 0,8,9
 750 466 750 466 750 340 c 0,10,11
 750 216 750 216 682 104 c 0,12,13
 615 -6 615 -6 498 -66 c 0,14,15
 476 -77 476 -77 463 -57 c 0,16,17
 454 -39 454 -39 469 -27 c 0,18,19
 651 129 651 129 651 340 c 0,0,1
293 340 m 0,20,21
 293 563 293 563 111 707 c 0,22,23
 95 720 95 720 104 737 c 0,24,25
 114 757 114 757 139 745 c 0,26,27
 259 685 259 685 326 575 c 0,28,29
 391 471 391 471 391 340 c 0,30,31
 391 211 391 211 326 104 c 0,32,33
 260 -4 260 -4 139 -66 c 0,34,35
 117 -77 117 -77 104 -57 c 0,36,37
 95 -40 95 -40 111 -27 c 0,38,39
 293 129 293 129 293 340 c 0,20,21
EndSplineSet
EndChar

StartChar: onequarter
Encoding: 188 188 126
Width: 1544
GlyphClass: 2
LayerCount: 2
Fore
SplineSet
1245 208 m 1,0,-1
 1245 -8 l 1,1,-1
 1148 -8 l 1,2,-1
 1148 208 l 1,3,-1
 807 208 l 1,4,-1
 807 279 l 1,5,-1
 1182 815 l 1,6,-1
 1245 815 l 1,7,-1
 1245 290 l 1,8,-1
 1352 290 l 1,9,-1
 1352 208 l 1,10,-1
 1245 208 l 1,0,-1
373 -16 m 1,11,-1
 277 -16 l 1,12,-1
 1189 1352 l 1,13,-1
 1280 1352 l 1,14,-1
 373 -16 l 1,11,-1
205 513 m 1,15,-1
 205 538 l 1,16,17
 240 538 240 538 261 542 c 128,-1,18
 282 546 282 546 293 557.5 c 128,-1,19
 304 569 304 569 306.5 590.5 c 128,-1,20
 309 612 309 612 309 647 c 2,21,-1
 309 1127 l 2,22,23
 309 1140 309 1140 308.5 1159 c 128,-1,24
 308 1178 308 1178 303.5 1195.5 c 128,-1,25
 299 1213 299 1213 290 1225 c 128,-1,26
 281 1237 281 1237 264 1237 c 0,27,28
 246 1237 246 1237 230 1232 c 128,-1,29
 214 1227 214 1227 200 1219 c 1,30,-1
 191 1240 l 1,31,-1
 386 1336 l 1,32,-1
 407 1336 l 1,33,-1
 407 658 l 2,34,35
 407 620 407 620 409 596.5 c 128,-1,36
 411 573 411 573 420.5 560 c 128,-1,37
 430 547 430 547 450.5 542.5 c 128,-1,38
 471 538 471 538 508 538 c 1,39,-1
 508 513 l 1,40,-1
 205 513 l 1,15,-1
1148 689 m 1,41,-1
 866 290 l 1,42,-1
 1148 290 l 1,43,-1
 1148 689 l 1,41,-1
EndSplineSet
EndChar

StartChar: onehalf
Encoding: 189 189 127
Width: 1544
GlyphClass: 2
LayerCount: 2
Fore
SplineSet
1323 -8 m 1,0,-1
 849 -8 l 1,1,-1
 849 16 l 1,2,3
 911 73 911 73 978.5 137 c 128,-1,4
 1046 201 1046 201 1101.5 269.5 c 128,-1,5
 1157 338 1157 338 1193.5 408 c 128,-1,6
 1230 478 1230 478 1230 549 c 0,7,8
 1230 583 1230 583 1219 614.5 c 128,-1,9
 1208 646 1208 646 1187 670 c 128,-1,10
 1166 694 1166 694 1136 709 c 128,-1,11
 1106 724 1106 724 1070 724 c 0,12,13
 1002 724 1002 724 959 688.5 c 128,-1,14
 916 653 916 653 894 589 c 1,15,-1
 873 589 l 1,16,17
 878 637 878 637 896 678 c 128,-1,18
 914 719 914 719 942 749.5 c 128,-1,19
 970 780 970 780 1010 797.5 c 128,-1,20
 1050 815 1050 815 1102 815 c 0,21,22
 1147 815 1147 815 1189 800 c 128,-1,23
 1231 785 1231 785 1262 757 c 128,-1,24
 1293 729 1293 729 1312 689.5 c 128,-1,25
 1331 650 1331 650 1331 602 c 0,26,27
 1331 533 1331 533 1292.5 461.5 c 128,-1,28
 1254 390 1254 390 1199.5 321.5 c 128,-1,29
 1145 253 1145 253 1084 191.5 c 128,-1,30
 1023 130 1023 130 977 82 c 1,31,-1
 1187 82 l 2,32,33
 1219 82 1219 82 1244.5 83 c 128,-1,34
 1270 84 1270 84 1289.5 90 c 128,-1,35
 1309 96 1309 96 1325 109 c 128,-1,36
 1341 122 1341 122 1357 147 c 1,37,-1
 1382 147 l 1,38,-1
 1323 -8 l 1,0,-1
354 -16 m 1,39,-1
 259 -16 l 1,40,-1
 1105 1352 l 1,41,-1
 1198 1352 l 1,42,-1
 354 -16 l 1,39,-1
175 513 m 1,43,-1
 175 538 l 1,44,45
 211 538 211 538 232 542 c 128,-1,46
 253 546 253 546 263.5 557.5 c 128,-1,47
 274 569 274 569 276.5 590.5 c 128,-1,48
 279 612 279 612 279 647 c 2,49,-1
 279 1139 l 2,50,51
 279 1156 279 1156 277.5 1174 c 128,-1,52
 276 1192 276 1192 270.5 1205.5 c 128,-1,53
 265 1219 265 1219 256 1228 c 128,-1,54
 247 1237 247 1237 234 1237 c 0,55,56
 216 1237 216 1237 200.5 1232 c 128,-1,57
 185 1227 185 1227 170 1219 c 1,58,-1
 162 1240 l 1,59,-1
 356 1336 l 1,60,-1
 378 1336 l 1,61,-1
 378 647 l 2,62,63
 378 612 378 612 380.5 590.5 c 128,-1,64
 383 569 383 569 393.5 557.5 c 128,-1,65
 404 546 404 546 425 542 c 128,-1,66
 446 538 446 538 482 538 c 1,67,-1
 482 513 l 1,68,-1
 175 513 l 1,43,-1
EndSplineSet
EndChar

StartChar: threequarters
Encoding: 190 190 128
Width: 1544
GlyphClass: 2
LayerCount: 2
Fore
SplineSet
1273 208 m 1,0,-1
 1273 -8 l 1,1,-1
 1174 -8 l 1,2,-1
 1174 208 l 1,3,-1
 831 208 l 1,4,-1
 831 279 l 1,5,-1
 1206 815 l 1,6,-1
 1273 815 l 1,7,-1
 1273 290 l 1,8,-1
 1379 290 l 1,9,-1
 1379 208 l 1,10,-1
 1273 208 l 1,0,-1
419 -16 m 1,11,-1
 320 -16 l 1,12,-1
 1232 1352 l 1,13,-1
 1323 1352 l 1,14,-1
 419 -16 l 1,11,-1
623 780 m 0,15,16
 623 710 623 710 597.5 657 c 128,-1,17
 572 604 572 604 529 569 c 128,-1,18
 486 534 486 534 429 516 c 128,-1,19
 372 498 372 498 307 498 c 0,20,21
 290 498 290 498 266 499 c 128,-1,22
 242 500 242 500 219 506.5 c 128,-1,23
 196 513 196 513 180.5 527 c 128,-1,24
 165 541 165 541 165 564 c 0,25,26
 165 586 165 586 178.5 595 c 128,-1,27
 192 604 192 604 213 604 c 0,28,29
 232 604 232 604 251 596 c 128,-1,30
 270 588 270 588 291.5 578 c 128,-1,31
 313 568 313 568 336 559.5 c 128,-1,32
 359 551 359 551 386 551 c 0,33,34
 417 551 417 551 445 564 c 128,-1,35
 473 577 473 577 494 598.5 c 128,-1,36
 515 620 515 620 526.5 648 c 128,-1,37
 538 676 538 676 538 706 c 0,38,39
 538 762 538 762 520 800 c 128,-1,40
 502 838 502 838 470 862 c 128,-1,41
 438 886 438 886 394.5 897.5 c 128,-1,42
 351 909 351 909 300 910 c 1,43,-1
 300 929 l 1,44,45
 338 933 338 933 372 948 c 128,-1,46
 406 963 406 963 431 987 c 128,-1,47
 456 1011 456 1011 470.5 1044.5 c 128,-1,48
 485 1078 485 1078 485 1118 c 0,49,50
 485 1176 485 1176 450 1215 c 128,-1,51
 415 1254 415 1254 354 1254 c 0,52,53
 302 1254 302 1254 264 1225.5 c 128,-1,54
 226 1197 226 1197 200 1156 c 1,55,-1
 178 1163 l 1,56,57
 196 1199 196 1199 215 1231 c 128,-1,58
 234 1263 234 1263 259.5 1286.5 c 128,-1,59
 285 1310 285 1310 318 1323 c 128,-1,60
 351 1336 351 1336 396 1336 c 0,61,62
 432 1336 432 1336 466 1325 c 128,-1,63
 500 1314 500 1314 526 1293.5 c 128,-1,64
 552 1273 552 1273 568 1242 c 128,-1,65
 584 1211 584 1211 584 1171 c 0,66,67
 584 1144 584 1144 573.5 1119 c 128,-1,68
 563 1094 563 1094 547.5 1071 c 128,-1,69
 532 1048 532 1048 512.5 1027.5 c 128,-1,70
 493 1007 493 1007 474 990 c 1,71,72
 545 961 545 961 584 909.5 c 128,-1,73
 623 858 623 858 623 780 c 0,15,16
1174 689 m 1,74,-1
 889 290 l 1,75,-1
 1174 290 l 1,76,-1
 1174 689 l 1,74,-1
EndSplineSet
EndChar

StartChar: questiondown
Encoding: 191 191 129
Width: 891
GlyphClass: 2
LayerCount: 2
Fore
SplineSet
565 844 m 0,0,1
 565 796 565 796 531.5 764.5 c 128,-1,2
 498 733 498 733 454 733 c 0,3,4
 435 733 435 733 415 741 c 128,-1,5
 395 749 395 749 379.5 764 c 128,-1,6
 364 779 364 779 355 799 c 128,-1,7
 346 819 346 819 346 844 c 0,8,9
 346 871 346 871 355.5 891 c 128,-1,10
 365 911 365 911 380.5 925.5 c 128,-1,11
 396 940 396 940 415 947 c 128,-1,12
 434 954 434 954 454 954 c 0,13,14
 475 954 475 954 495 947 c 128,-1,15
 515 940 515 940 530.5 925.5 c 128,-1,16
 546 911 546 911 555.5 890.5 c 128,-1,17
 565 870 565 870 565 844 c 0,0,1
795 -151 m 0,18,19
 795 -206 795 -206 772 -257 c 128,-1,20
 749 -308 749 -308 704 -347 c 128,-1,21
 659 -386 659 -386 593.5 -409.5 c 128,-1,22
 528 -433 528 -433 442 -433 c 0,23,24
 363 -433 363 -433 295 -412 c 128,-1,25
 227 -391 227 -391 178.5 -351 c 128,-1,26
 130 -311 130 -311 102.5 -253.5 c 128,-1,27
 75 -196 75 -196 75 -123 c 0,28,29
 75 -67 75 -67 91 -19 c 128,-1,30
 107 29 107 29 129.5 69 c 128,-1,31
 152 109 152 109 178.5 142 c 128,-1,32
 205 175 205 175 229 201 c 0,33,34
 281 259 281 259 319 305.5 c 128,-1,35
 357 352 357 352 383 397.5 c 128,-1,36
 409 443 409 443 423.5 494 c 128,-1,37
 438 545 438 545 441 614 c 1,38,-1
 482 614 l 1,39,40
 477 497 477 497 446 394 c 128,-1,41
 415 291 415 291 350 183 c 0,42,43
 334 157 334 157 318 123.5 c 128,-1,44
 302 90 302 90 288 51 c 128,-1,45
 274 12 274 12 265 -28.5 c 128,-1,46
 256 -69 256 -69 256 -108 c 0,47,48
 256 -182 256 -182 277.5 -233.5 c 128,-1,49
 299 -285 299 -285 332 -317.5 c 128,-1,50
 365 -350 365 -350 406 -364 c 128,-1,51
 447 -378 447 -378 485 -378 c 0,52,53
 532 -378 532 -378 567 -366 c 128,-1,54
 602 -354 602 -354 624.5 -335.5 c 128,-1,55
 647 -317 647 -317 659 -294.5 c 128,-1,56
 671 -272 671 -272 671 -250 c 0,57,58
 671 -229 671 -229 661 -206 c 128,-1,59
 651 -183 651 -183 639.5 -161 c 128,-1,60
 628 -139 628 -139 618 -118 c 128,-1,61
 608 -97 608 -97 608 -81 c 0,62,63
 608 -60 608 -60 615.5 -44.5 c 128,-1,64
 623 -29 623 -29 634.5 -18.5 c 128,-1,65
 646 -8 646 -8 660.5 -2 c 128,-1,66
 675 4 675 4 688 4 c 0,67,68
 698 4 698 4 716 -2.5 c 128,-1,69
 734 -9 734 -9 751.5 -26 c 128,-1,70
 769 -43 769 -43 782 -73 c 128,-1,71
 795 -103 795 -103 795 -151 c 0,18,19
EndSplineSet
EndChar

StartChar: AE
Encoding: 198 198 136
Width: 1785
GlyphClass: 2
LayerCount: 2
Fore
SplineSet
1623 0 m 1,0,-1
 627 0 l 1,1,-1
 627 36 l 1,2,-1
 675 36 l 2,3,4
 756 36 756 36 795 84 c 0,5,6
 818 115 818 115 819 235 c 2,7,-1
 819 513 l 1,8,-1
 432 513 l 1,9,-1
 309 286 l 2,10,11
 275 224 275 224 257 183 c 128,-1,12
 239 142 239 142 239 116 c 0,13,14
 239 76 239 76 282 59.5 c 128,-1,15
 325 43 325 43 394 36 c 1,16,-1
 394 0 l 1,17,-1
 -23 0 l 1,18,-1
 -23 36 l 1,19,20
 20 36 20 36 49 53 c 0,21,22
 63 62 63 62 79.5 77 c 128,-1,23
 96 92 96 92 115 117.5 c 128,-1,24
 134 143 134 143 156.5 179.5 c 128,-1,25
 179 216 179 216 208 269 c 2,26,-1
 614 1023 l 2,27,28
 652 1093 652 1093 670.5 1141 c 128,-1,29
 689 1189 689 1189 689 1213 c 0,30,31
 689 1230 689 1230 682 1243.5 c 128,-1,32
 675 1257 675 1257 656 1266.5 c 128,-1,33
 637 1276 637 1276 604.5 1283.5 c 128,-1,34
 572 1291 572 1291 520 1293 c 1,35,-1
 520 1328 l 1,36,-1
 1609 1328 l 1,37,-1
 1623 1039 l 1,38,-1
 1591 1039 l 1,39,40
 1577 1107 1577 1107 1562.5 1149.5 c 128,-1,41
 1548 1192 1548 1192 1522 1216 c 128,-1,42
 1496 1240 1496 1240 1451 1248.5 c 128,-1,43
 1406 1257 1406 1257 1332 1257 c 2,44,-1
 1006 1257 l 1,45,-1
 1006 732 l 1,46,-1
 1258 732 l 2,47,48
 1315 732 1315 732 1354 741.5 c 128,-1,49
 1393 751 1393 751 1418 774 c 128,-1,50
 1443 797 1443 797 1455 833.5 c 128,-1,51
 1467 870 1467 870 1471 923 c 1,52,-1
 1505 923 l 1,53,-1
 1505 464 l 1,54,-1
 1471 464 l 1,55,56
 1463 522 1463 522 1453 560 c 128,-1,57
 1443 598 1443 598 1421 619.5 c 128,-1,58
 1399 641 1399 641 1360.5 649.5 c 128,-1,59
 1322 658 1322 658 1258 658 c 2,60,-1
 1006 658 l 1,61,-1
 1006 218 l 2,62,63
 1006 179 1006 179 1006.5 150 c 128,-1,64
 1007 121 1007 121 1014 112 c 0,65,66
 1018 106 1018 106 1025 98.5 c 128,-1,67
 1032 91 1032 91 1043.5 85 c 128,-1,68
 1055 79 1055 79 1073.5 75 c 128,-1,69
 1092 71 1092 71 1120 71 c 2,70,-1
 1297 71 l 2,71,72
 1380 71 1380 71 1440 86 c 128,-1,73
 1500 101 1500 101 1545 133.5 c 128,-1,74
 1590 166 1590 166 1625 215.5 c 128,-1,75
 1660 265 1660 265 1694 335 c 1,76,-1
 1729 335 l 1,77,-1
 1623 0 l 1,0,-1
819 1257 m 1,78,-1
 468 588 l 1,79,-1
 819 588 l 1,80,-1
 819 1257 l 1,78,-1
EndSplineSet
EndChar

StartChar: Ccedilla
Encoding: 199 199 137
Width: 1338
GlyphClass: 2
LayerCount: 2
Fore
SplineSet
963 -292 m 0,0,1
 963 -339 963 -339 937 -371 c 128,-1,2
 911 -403 911 -403 872 -423 c 128,-1,3
 833 -443 833 -443 787.5 -451.5 c 128,-1,4
 742 -460 742 -460 704 -460 c 0,5,6
 623 -460 623 -460 542 -430 c 1,7,-1
 572 -367 l 1,8,9
 636 -392 636 -392 697 -391 c 0,10,11
 719 -391 719 -391 739.5 -387 c 128,-1,12
 760 -383 760 -383 777 -373.5 c 128,-1,13
 794 -364 794 -364 804 -347.5 c 128,-1,14
 814 -331 814 -331 814 -305 c 0,15,16
 814 -261 814 -261 788 -245 c 128,-1,17
 762 -229 762 -229 721 -229 c 0,18,19
 703 -229 703 -229 685 -231 c 128,-1,20
 667 -233 667 -233 649 -239 c 1,21,-1
 636 -229 l 1,22,-1
 716 -32 l 1,23,24
 569 -32 569 -32 449.5 19.5 c 128,-1,25
 330 71 330 71 246 162 c 128,-1,26
 162 253 162 253 116.5 376.5 c 128,-1,27
 71 500 71 500 71 645 c 0,28,29
 71 793 71 793 120 922.5 c 128,-1,30
 169 1052 169 1052 258 1148.5 c 128,-1,31
 347 1245 347 1245 471 1301 c 128,-1,32
 595 1357 595 1357 747 1357 c 0,33,34
 798 1357 798 1357 841.5 1350 c 128,-1,35
 885 1343 885 1343 926 1331 c 128,-1,36
 967 1319 967 1319 1006.5 1303 c 128,-1,37
 1046 1287 1046 1287 1092 1267 c 1,38,39
 1111 1267 1111 1267 1125.5 1276.5 c 128,-1,40
 1140 1286 1140 1286 1149 1299 c 128,-1,41
 1158 1312 1158 1312 1164 1327.5 c 128,-1,42
 1170 1343 1170 1343 1174 1357 c 1,43,-1
 1209 1357 l 1,44,-1
 1237 907 l 1,45,-1
 1209 907 l 1,46,47
 1184 990 1184 990 1145.5 1060 c 128,-1,48
 1107 1130 1107 1130 1053.5 1180.5 c 128,-1,49
 1000 1231 1000 1231 927.5 1259.5 c 128,-1,50
 855 1288 855 1288 764 1288 c 256,51,52
 673 1288 673 1288 603.5 1261.5 c 128,-1,53
 534 1235 534 1235 481.5 1188 c 128,-1,54
 429 1141 429 1141 393 1078.5 c 128,-1,55
 357 1016 357 1016 336 944 c 128,-1,56
 315 872 315 872 305 794.5 c 128,-1,57
 295 717 295 717 295 642 c 0,58,59
 295 522 295 522 323.5 416.5 c 128,-1,60
 352 311 352 311 412.5 230 c 128,-1,61
 473 149 473 149 567.5 102.5 c 128,-1,62
 662 56 662 56 793 56 c 0,63,64
 876 56 876 56 939 75.5 c 128,-1,65
 1002 95 1002 95 1053.5 130.5 c 128,-1,66
 1105 166 1105 166 1148.5 217.5 c 128,-1,67
 1192 269 1192 269 1237 333 c 1,68,-1
 1267 312 l 1,69,70
 1185 165 1185 165 1067.5 77.5 c 128,-1,71
 950 -10 950 -10 790 -29 c 1,72,-1
 740 -159 l 1,73,74
 754 -156 754 -156 767.5 -154.5 c 128,-1,75
 781 -153 781 -153 795 -153 c 0,76,77
 827 -153 827 -153 858 -161.5 c 128,-1,78
 889 -170 889 -170 912.5 -187 c 128,-1,79
 936 -204 936 -204 949.5 -230 c 128,-1,80
 963 -256 963 -256 963 -292 c 0,0,1
EndSplineSet
EndChar

StartChar: Eth
Encoding: 208 208 146
Width: 1450
GlyphClass: 2
LayerCount: 2
Fore
SplineSet
1371 675 m 0,0,1
 1371 535 1371 535 1329 412 c 128,-1,2
 1287 289 1287 289 1197 197 c 128,-1,3
 1107 105 1107 105 967 52.5 c 128,-1,4
 827 0 827 0 630 0 c 2,5,-1
 35 0 l 1,6,-1
 35 36 l 1,7,-1
 84 36 l 2,8,9
 131 36 131 36 159 49 c 128,-1,10
 187 62 187 62 201.5 87 c 128,-1,11
 216 112 216 112 220.5 149 c 128,-1,12
 225 186 225 186 225 235 c 2,13,-1
 225 664 l 1,14,-1
 35 664 l 1,15,-1
 35 776 l 1,16,-1
 225 776 l 1,17,-1
 225 1094 l 2,18,19
 225 1220 225 1220 199 1252 c 0,20,21
 181 1274 181 1274 151.5 1283.5 c 128,-1,22
 122 1293 122 1293 84 1293 c 2,23,-1
 35 1293 l 1,24,-1
 35 1328 l 1,25,-1
 575 1328 l 2,26,27
 886 1328 886 1328 1033 1258 c 0,28,29
 1107 1223 1107 1223 1169 1167 c 128,-1,30
 1231 1111 1231 1111 1276 1036.5 c 128,-1,31
 1321 962 1321 962 1346 870.5 c 128,-1,32
 1371 779 1371 779 1371 675 c 0,0,1
1152 664 m 0,33,34
 1152 802 1152 802 1112 912 c 128,-1,35
 1072 1022 1072 1022 1001.5 1098.5 c 128,-1,36
 931 1175 931 1175 831.5 1216 c 128,-1,37
 732 1257 732 1257 614 1257 c 0,38,39
 571 1257 571 1257 521.5 1250.5 c 128,-1,40
 472 1244 472 1244 413 1228 c 1,41,-1
 413 776 l 1,42,-1
 802 776 l 1,43,-1
 802 664 l 1,44,-1
 413 664 l 1,45,-1
 413 97 l 1,46,47
 471 81 471 81 525.5 75.5 c 128,-1,48
 580 70 580 70 621 70 c 0,49,50
 735 70 735 70 832 111 c 128,-1,51
 929 152 929 152 1000 228.5 c 128,-1,52
 1071 305 1071 305 1111.5 415 c 128,-1,53
 1152 525 1152 525 1152 664 c 0,33,34
EndSplineSet
EndChar

StartChar: multiply
Encoding: 215 215 153
Width: 1189
GlyphClass: 2
LayerCount: 2
Fore
SplineSet
948 135 m 1,0,-1
 591 490 l 1,1,-1
 237 135 l 1,2,-1
 178 191 l 1,3,-1
 536 549 l 1,4,-1
 178 902 l 1,5,-1
 237 961 l 1,6,-1
 591 604 l 1,7,-1
 948 961 l 1,8,-1
 1003 902 l 1,9,-1
 650 549 l 1,10,-1
 1003 191 l 1,11,-1
 948 135 l 1,0,-1
EndSplineSet
EndChar

StartChar: Oslash
Encoding: 216 216 154
Width: 1450
GlyphClass: 2
LayerCount: 2
Fore
SplineSet
1373 675 m 0,0,1
 1373 522 1373 522 1320 392.5 c 128,-1,2
 1267 263 1267 263 1178 168.5 c 128,-1,3
 1089 74 1089 74 973 21.5 c 128,-1,4
 857 -31 857 -31 729 -31 c 0,5,6
 680 -31 680 -31 627.5 -22.5 c 128,-1,7
 575 -14 575 -14 522 3.5 c 128,-1,8
 469 21 469 21 418 47.5 c 128,-1,9
 367 74 367 74 322 110 c 1,10,-1
 198 -47 l 1,11,-1
 139 0 l 1,12,-1
 269 160 l 1,13,14
 71 361 71 361 71 680 c 0,15,16
 71 823 71 823 122 947 c 128,-1,17
 173 1071 173 1071 261.5 1162.5 c 128,-1,18
 350 1254 350 1254 469.5 1307 c 128,-1,19
 589 1360 589 1360 727 1360 c 0,20,21
 949 1360 949 1360 1124 1213 c 1,22,-1
 1253 1371 l 1,23,-1
 1312 1328 l 1,24,-1
 1178 1166 l 1,25,26
 1231 1110 1231 1110 1268 1055 c 128,-1,27
 1305 1000 1305 1000 1328.5 940 c 128,-1,28
 1352 880 1352 880 1362.5 815 c 128,-1,29
 1373 750 1373 750 1373 675 c 0,0,1
1042 1113 m 1,30,31
 929 1290 929 1290 720 1289 c 0,32,33
 597 1289 597 1289 515.5 1234 c 128,-1,34
 434 1179 434 1179 384.5 1091 c 128,-1,35
 335 1003 335 1003 315 896 c 128,-1,36
 295 789 295 789 295 684 c 0,37,38
 295 458 295 458 367 283 c 1,39,-1
 1042 1113 l 1,30,31
1148 643 m 0,40,41
 1148 694 1148 694 1146 739 c 128,-1,42
 1144 784 1144 784 1137 830.5 c 128,-1,43
 1130 877 1130 877 1116 928.5 c 128,-1,44
 1102 980 1102 980 1078 1042 c 1,45,-1
 407 212 l 1,46,47
 475 116 475 116 550 78 c 128,-1,48
 625 40 625 40 715 40 c 0,49,50
 806 40 806 40 884.5 72.5 c 128,-1,51
 963 105 963 105 1021.5 177.5 c 128,-1,52
 1080 250 1080 250 1114 364.5 c 128,-1,53
 1148 479 1148 479 1148 643 c 0,40,41
EndSplineSet
EndChar

StartChar: Thorn
Encoding: 222 222 160
Width: 1116
GlyphClass: 2
LayerCount: 2
Fore
SplineSet
1041 667 m 0,0,1
 1041 577 1041 577 1006 508 c 128,-1,2
 971 439 971 439 908.5 393 c 128,-1,3
 846 347 846 347 760.5 323 c 128,-1,4
 675 299 675 299 572 299 c 2,5,-1
 411 299 l 1,6,-1
 411 239 l 2,7,8
 411 190 411 190 415.5 152 c 128,-1,9
 420 114 420 114 435.5 88 c 128,-1,10
 451 62 451 62 481 49 c 128,-1,11
 511 36 511 36 562 36 c 2,12,-1
 603 36 l 1,13,-1
 603 0 l 1,14,-1
 36 0 l 1,15,-1
 36 36 l 1,16,-1
 71 36 l 2,17,18
 120 36 120 36 150.5 47 c 128,-1,19
 181 58 181 58 196.5 81.5 c 128,-1,20
 212 105 212 105 217 143 c 128,-1,21
 222 181 222 181 222 235 c 2,22,-1
 222 1093 l 2,23,24
 222 1141 222 1141 217.5 1179 c 128,-1,25
 213 1217 213 1217 197.5 1242 c 128,-1,26
 182 1267 182 1267 152.5 1280 c 128,-1,27
 123 1293 123 1293 74 1293 c 2,28,-1
 36 1293 l 1,29,-1
 36 1328 l 1,30,-1
 603 1328 l 1,31,-1
 603 1293 l 1,32,-1
 562 1293 l 2,33,34
 515 1293 515 1293 485.5 1280 c 128,-1,35
 456 1267 456 1267 440 1242 c 128,-1,36
 424 1217 424 1217 417.5 1179 c 128,-1,37
 411 1141 411 1141 411 1093 c 2,38,-1
 411 1028 l 1,39,-1
 576 1028 l 2,40,41
 676 1028 676 1028 761 1004 c 128,-1,42
 846 980 846 980 908.5 934.5 c 128,-1,43
 971 889 971 889 1006 821.5 c 128,-1,44
 1041 754 1041 754 1041 667 c 0,0,1
812 664 m 0,45,46
 812 733 812 733 789.5 787 c 128,-1,47
 767 841 767 841 726 878 c 128,-1,48
 685 915 685 915 630 934 c 128,-1,49
 575 953 575 953 510 953 c 2,50,-1
 411 953 l 1,51,-1
 411 367 l 1,52,-1
 468 367 l 2,53,54
 562 367 562 367 626.5 389.5 c 128,-1,55
 691 412 691 412 733 452.5 c 128,-1,56
 775 493 775 493 793.5 547.5 c 128,-1,57
 812 602 812 602 812 664 c 0,45,46
EndSplineSet
EndChar

